<svg enable-background="new 0 0 500 500" viewBox="0 0 500 500" xmlns="http://www.w3.org/2000/svg"><path d="m0 0h500v500h-500z" fill="#fff"/><path d="m112.4 94.7c15.6 1 22.2-9.6 29.5-23.3 20.1-37.5 64.8-33.9 79.8-10.8 10.6 16.4 33.6 13 52.1 6.6 18.3-6.3 49.4-12.4 74.1-4.8 21.6 6.6 30.5 30.3 50.2 28.8 43-3.2 64.7 39.3 56.9 57.8-5.1 12.1-7.6 25.6-3.5 38.1 4.6 13.7 15 24.6 23.4 36.3 8.4 11.8 15.2 26.5 11 40.3-3.6 11.8-14.2 20-20.9 30.5-20.6 32.5-.2 82.2-27.6 109.3-19.6 19.4-51.6 14.9-79.1 18.6-22.9 3.1-44.4 12.7-67.2 16.5-46.1 7.6-92.8-9.2-139.5-9.6-16.5-.2-33.3 1.7-49.2-2.4-21.3-5.4-39.4-21.8-46.8-42.3-10.2-28.3-.5-61.1-12.1-88.9-9.4-22.6-32.3-41.1-30.9-65.5.9-15.2 11.3-27.9 18.4-41.4 10.8-20.1-3.2-99.4 81.4-93.8zm136.2-36.7c-4.1 0-7.4 2.5-7.4 5.7 0 3.1 3.3 5.4 7.4 5.7 13.3.9 13.3-4.5 13.3-7.7 0-5-9.2-3.7-13.3-3.7zm135.6 24.3c3.6 2.9 8.1 4.7 12.8 5 1.2.1 2.6 0 3.5-.8 1.2-1 1.3-3 .3-4.1-.7-.7-1.6-1-2.5-1.4-1.5-.6-3-1.5-3.9-2.9-.3-.4-.5-.9-.9-1.1-2.6-1.5-14 1.4-9.3 5.3zm22.7 5c1.2.4 2.5 0 3.6-.4.8-.2 1.7-.8 1.5-1.6-.1-.4-.4-.6-.8-.8-1.6-.8-3.6-1.4-5.1-.4-1.6 1.2-.4 2.8.8 3.2zm54.3 107.3c.2 1.8 1.3 3.3 2.4 4.7 2 2.8 4.1 5.6 6.8 7.8 1.1.9 2.5 1.7 3.9 1.8 1.3 0 2.6-.6 3.7-1.3 2.6-1.9 4.4-4.9 4.8-8.1.5-4.4-1.5-8.7-3.9-12.4-1.5-2.3-3.2-4.6-5.7-5.9-4.1-2.1-6.9-.3-8 3.4-1.1 3.3-4.4 6.2-4 10zm-440.4 102.5c-2.2 1.9-.2 7.5.4 11.2.2 1.1.5 2.3 1.2 3.2 1 1.2 2.6 1.7 4.1 2.1 2.7.8 5.9 1.4 7.9-.4 1.5-1.4 1.7-3.6 1.7-5.7 0-1.9-.1-3.7-.3-5.6-.1-.9-.2-1.8-.7-2.6-.6-1-1.7-1.5-2.7-2-3.9-1.5-9.4-2.1-11.6-.2zm133.2 140.7c-1.3.3-2.8.8-3 2.1-.2 1.1.7 2 1.6 2.6 7.1 5.3 16.7 5.6 25.6 5.8 1 0 2.1 0 3.1-.4 1.9-.8 2.8-3.3 1.9-5.2-.3-.7-.8-1.2-1.4-1.8-7.1-6.8-18.9-4.8-27.8-3.1zm177.7-3.5c-8 5.9.1 11.1 10.2 7.2 5.5-2.1 10.7-4.2 16.3-5.6 1.8-.5 12.7-2.8 12.7-5.3 0-6.5-12.3-5-20.1-3.9-6.1.9-12.5 2.7-19.1 7.6z" fill="#ecf3ff"/><ellipse cx="180.8" cy="413.7" fill="#c8dbfb" rx="38.6" ry="3.6"/><ellipse cx="379.4" cy="413.7" fill="#c8dbfb" rx="38.6" ry="3.6"/><path d="m461 159.5c-.1-.7-.2-1.3-.4-2" fill="none" stroke="#c8dbfb" stroke-linecap="round" stroke-linejoin="round"/><path d="m459.7 153.6c-6.9-23.5-28.9-21.2-48.7-21.2-21.4 0-352.5.7-352.5.7-33.3.1-30.1 48.1-4 48.1 15 0 20.7 28.1-5.2 28.2-15.5 0-16 19.7-5.6 23.7" fill="none" stroke="#c8dbfb" stroke-dasharray="3.9929 3.9929" stroke-linecap="round" stroke-linejoin="round"/><path d="m45.6 233.6c.6.1 1.3.2 2 .2" fill="none" stroke="#c8dbfb" stroke-linecap="round" stroke-linejoin="round"/><path d="m51.6 232.8c.4 2.6-1.3 5.1-3.9 5.5s-5.1-1.3-5.5-3.9 1.3-5.1 3.9-5.5 5.1 1.3 5.5 3.9z" fill="#5193f4"/><path d="m465.7 161.6c-.5 2.6-3 4.3-5.6 3.9-2.6-.5-4.3-3-3.9-5.6.5-2.6 3-4.3 5.6-3.9 2.7.5 4.4 3 3.9 5.6z" fill="#5193f4"/><path d="m100.4 197.8c-.7 3.9-1.7 7.7-2.9 11.4-2.6 8.1-6.3 15.9-10 23.6-1.9 4-9.8 13.3-14 15.1.5-10.5.5-22.7-.7-33.3-1.2-10.2 2.5-17.9-1.5-27.4-.5-1.2-1-2.4-1.6-3.6-2-4.5-4-9-4.6-13.9-.8-6.1 1.1-13.2 6.4-16.4 3.8-2.3 8.8-2.2 12.9-.4s7.4 5.1 9.9 8.8c7.1 10.5 8.3 23.9 6.1 36.1z" fill="#002139"/><path d="m81.8 163.9c7.8 11.1 8.5 23.9 9.2 37.5.7 13.5-2.6 27.2-9.3 39" fill="none" stroke="#0b43a4" stroke-linecap="round" stroke-linejoin="round" stroke-miterlimit="10"/><path d="m81.5 367.8c-5.5-4.8-11-9.8-15.1-15.9-3.5-5.3-5.8-11.3-8.9-16.9-2-3.6-4.3-7.1-5.5-11.1s-.9-8.7 1.9-11.7c2.9-3.1 8-3.6 12-2s7 5 9.4 8.6c3.1 4.8 5.2 10.3 6 15.9.8 5.1.6 10.4 1.4 15.5.7 4.8 2.3 9.4 4.4 13.7 1.8 4 6.5 11 7.7 15.1-3.3 1.8-10.9-9.1-13.3-11.2z" fill="#00ad9f"/><path d="m62.3 317.6c5.2 2.3 7.3 8.5 8.4 14.1 1.2 6.4 1 13.3 3.9 19 5.5 10.9 12.7 23.3 18 27" fill="none" stroke="#00ad9f" stroke-linecap="round" stroke-linejoin="round" stroke-miterlimit="10"/><path d="m54.5 352.9c-4.6-1.8-10.6-2.5-13.6 1.4-2.4 3.3-1.2 8 .5 11.7 1.4 3.2 3.2 6.4 6.2 8.1 2.1 1.2 4.5 1.5 6.8 1.8 6.5.8 13.1 1.2 19.7 1.1 7.6 0 16.9 3.1 23.2 7.9-7.9-15.1-27.5-25.9-42.8-32z" fill="#002139"/><path d="m46.5 362.7c5.8.2 11.6.7 17.2 2.3 5.7 1.7 27.6 11.7 31 16" fill="none" stroke="#0b43a4" stroke-linecap="round" stroke-linejoin="round" stroke-miterlimit="10"/><path d="m104.2 322c-5.9-9.3-16.1-15.8-27-17.2-8.1-1.1-16.4.4-24.3-1.3-8.4-1.8-15.9-7.1-20.3-14.5-4.4-7.3-5.5-16.5-3-24.7 1.9-6.2 6.1-12.1 12.3-14.1 3.4-1.1 7.1-.9 10.5-.1 3.2.8 6.1 2.1 8.8 3.8 6.2 3.9 11.2 10 15 16.4 3.4 5.9 11.9 15 17.7 20.9 3.4 3.5 5.8 5.8 5.8 5.8 4 5 2.2 19.1 4.5 25z" fill="#52d2bc"/><path d="m40.1 268.2c19.4 8.7 40.5 20.2 54.2 36.4" fill="none" stroke="#00ad9f" stroke-linecap="round" stroke-linejoin="round" stroke-miterlimit="10"/><path d="m96.2 302.4s-28.9-23.4-34.9-48.5c6.2 3.9 11.2 10 15 16.4 3.4 5.9 11.9 15 17.7 20.9.6 3.2 1.4 6.8 2.2 11.2z" fill="#5275a0" opacity=".2"/><path d="m97.5 209.3c-2.6 8.1-6.3 15.9-10 23.6-1.9 4-9.8 13.3-14 15.1.5-10.5.5-22.7-.7-33.3-1.2-10.2 2.5-17.9-1.5-27.4-.5-1.2-1-2.4-1.6-3.6.4.1.7.2 1.1.4 6.6 2.8 9.6 9.8 10.2 16.5.5 5.6-.5 11.2-1.3 16.7-.3 2.6-.6 5.2-.1 7.7v.1c.7 3 5.1 2.8 5.6-.2l1.8-9.3c.5-2.8 1.1-5.7 3.4-7.6.9-.8 2.1-1.2 3.2-1.2 2 0 3.1 1.1 3.9 2.5z" fill="#5275a0" opacity=".2"/><path d="m96.2 296.5c-4.6-23.8-7-27.5-5-33.4 2.6-7.6 1.1-15.3 3.5-22.9 2.4-7.7 4.1-15.9 2.1-23.7-.6-2.5-1.9-5.1-4.8-5.2-1.2 0-2.3.4-3.2 1.2-2.3 1.9-2.9 4.9-3.4 7.6l-1.7 9.3c-.6 3-4.9 3.2-5.6.2v-.1c-.6-2.5-.3-5.1.1-7.7.7-5.6 1.8-11.1 1.3-16.7-.6-6.8-3.6-13.7-10.2-16.5-2.3-1-5-1.2-7.4-.6-6.9 1.8-8.7 8.5-7.6 14.2.7 4 2.6 7.7 4.3 11.5 4.2 9.1 1.1 17.4 1.7 27.4 1.5 27.6 35.9 55.4 35.9 55.4z" fill="#7ee8d4"/><path d="m65.5 195.2c3.4 16.9 6.8 34 13.4 50 1.9 4.7 2.9 10.8 14 23.6" fill="none" stroke="#00ad9f" stroke-linecap="round" stroke-linejoin="round" stroke-miterlimit="10"/><path d="m197.8 199.5c-3.5-4-6.8-8.1-10.2-12-2.2-2.5-4.5-5-7-7.4-1.2-1.2-2.5-2.3-3.8-3.4-7.9-6.5-16.8-12-26.2-16-5.7-2.4-11.7-4.4-16.6-8.3-4.8-3.9-8.3-10.3-6.7-16.2 1.2-4.3 4.8-7.7 9.1-9.2 4.2-1.5 8.9-1.4 13.2-.5 12.2 2.6 22.4 11.4 29.3 21.8.1.2.2.4.4.6 5.1 7.8 8.6 16.4 11.7 25.1 1 2.8 1.9 5.7 2.9 8.5 1.4 4.1 5.7 12.8 3.9 17z" fill="#002139"/><path d="m142 136.6c13.3 2.5 22.7 11.4 32.6 20.6s17 21.4 20.4 34.5" fill="none" stroke="#0b43a4" stroke-linecap="round" stroke-linejoin="round" stroke-miterlimit="10"/><path d="m187.6 187.5c-.1 1.4-.1 2.8.2 4.2-3.3-.8-5.6-5.9-7.2-11.6-1.5-5.5-2.2-11.4-2.5-14.1-.4-5.8-.1-11.6 1.1-17.3 5.1 7.8 8.6 16.4 11.7 25.1-1.1 3.2-2 6.3-2.7 9.6-.2 1.4-.5 2.7-.6 4.1z" fill="#5275a0" opacity=".2"/><path d="m210.7 139.5c-1.1 5-4.1 9.3-6.8 13.7-1.4 2.3-2.7 4.7-3.9 7.1-3.9 7.7-6.9 15.8-8.9 24.2-.6 2.8-1 5.4-.5 8.2-6.6-1.5-9.2-20.1-9.6-25.7-.8-10 .9-20.2 5-29.4 1.8-4 4.1-8 7.7-10.5 3.6-2.6 8.6-3.5 12.4-1.2 2.3 1.3 3.7 3.6 4.4 6.1.7 2.4.8 5 .2 7.5z" fill="#52d2bc"/><path d="m188.1 187.2c-4.1-10.2-1.6-31.9 4.9-45.6 2-4.1 4.8-8 8.7-10.3" fill="none" stroke="#00ad9f" stroke-linecap="round" stroke-linejoin="round" stroke-miterlimit="10"/><path d="m210.7 139.5c-1.1 5-4.1 9.3-6.8 13.7-1.4 2.3-2.7 4.7-3.9 7.1-1.8-3-3-6.4-3.4-9.8-.6-5.8 1.7-12 6.4-15.5 2.2-1.6 4.8-2.5 7.5-2.9.7 2.3.8 4.9.2 7.4z" fill="#5275a0" opacity=".2"/><path d="m248.6 182.9c-.3 1.9-.9 3.7-1.7 5.5-2.9 6.3-9 11.7-18.2 16.1 0 0-.5-10-.6-12.6-.4-11.4-12.8-17.7-20.7-26.1-4-4.2-7-9.6-7.6-15.4s1.7-12 6.4-15.5c4-2.9 9.1-3.5 14-3.1 7.9.6 15.8 3.9 20.7 10.1.2.2.4.5.6.7 3 4.1 4.5 9.1 5.7 14 1.9 8.6 2.8 17.6 1.4 26.3z" fill="#00ad9f"/><path d="m209.6 141.1c8.6 4.4 17.2 9.8 22.2 18.1 7 11.5 5.4 26.5.1 38.9" fill="none" stroke="#00ad9f" stroke-linecap="round" stroke-linejoin="round" stroke-miterlimit="10"/><path d="m392.1 256.5c5.5-9 2.7-20.6 4.6-30.9 1.5-8 5.9-15.3 12.2-20.4 4-3.2 9.6-5.4 14.1-3 1 .5 2.1 1.2 3.1.7.6-.3.8-1 .9-1.7 1.1-5.6-1.5-11.7.6-17 1.2-2.8 3.6-5 6.2-6.6 5-3.2 10.8-5 16.8-5.3 1.6-.1 3.2 0 4.6.7 2.5 1.3 3.7 4.4 3.4 7.3-.3 2.8-1.9 5.3-3.6 7.6-5.7 7.5-14.2 14-15.3 23.4-.1 1.2-.1 2.4.4 3.5.5 1 1.5 1.8 2.1 2.8 1.8 3.2-1.6 6.9-5 8.5-3 1.5-6.4 2.4-9.7 2.7-2.3.2-4.9.3-6.5 2-2.9 3.2.4 8.2-.2 12.5-.4 2.7-2.3 4.8-4.2 6.6-3.6 3.4-7.5 6.5-11.7 9.2-3.4 2.2-7 4.1-10 6.8s-5.4 6.3-5.6 10.3" fill="#52d2bc"/><path d="m399.3 247.8c.9-4.4 2.9-8.4 4.9-12.4 3.1-6.2 6.3-12.5 11.1-17.6 3.6-3.9 8-6.9 11.7-10.7 2.6-2.7 4.8-5.8 6.6-9.1.9-1.8 1.8-3.7 3-5.3 1.5-1.9 3.6-3.2 5.4-4.9 2.4-2.2 4.4-4.9 5.7-7.9" fill="none" stroke="#00ad9f" stroke-linecap="round" stroke-linejoin="round" stroke-miterlimit="10"/><path d="m470.6 262.8c-1.2 4.7-3.1 9.4-6.2 13.2-2.2 2.6-4.9 4.6-7.8 6.3-1.5.9-3.1 1.6-4.7 2.3-6.3 2.6-13 4.1-19.8 4.4-9.9.4-20-1.8-29.5 1-4.4 1.3-8.4 3.6-11.6 6.8-2.1 1.9-3.8 4.2-5.2 6.6l1.3-8.2c2.4-8.8 4.8-17.8 9.7-25.5 3.1-5 7.2-9.4 11.6-13.4 7-6.4 14.7-12.1 23.2-16.2 6.9-3.3 14.5-5.7 22.1-4.8s15 5.7 17.4 13c1.4 4.6.7 9.7-.5 14.5z" fill="#002139"/><path d="m393.4 288.9c7.3-10.7 18.1-19 30.4-23.1 7.7-2.6 15.8-3.5 23.5-5.8 7.8-2.2 15.5-6 20.1-12.7" fill="none" stroke="#0b43a4" stroke-linecap="round" stroke-linejoin="round" stroke-miterlimit="10"/><path d="m398.2 367.6c.4-11 6.1-21.2 13.1-29.8 5.8-7.2 12.7-13.7 21.3-17 2.7-1 5.7-1.7 8.5-1s5.3 3.1 5.4 6c0 2.4-1.6 4.6-3.3 6.3-5.7 5.7-13 9.3-19.8 13.4-11.8 7.1-23 16.6-27.7 29.6" fill="#52d2bc"/><path d="m402.5 358c7.2-16.1 25.8-30.4 38.1-32.2" fill="none" stroke="#00ad9f" stroke-linecap="round" stroke-linejoin="round" stroke-miterlimit="10"/><path d="m393.7 376.4c-.1-1.8 5.9-6.7 7.3-7.9 7.5-6.8 16.5-11.8 25.9-14.8 3.8-1.2 7.9-2.1 11.7-1.1 3.8.9 7.3 4.1 7.7 8.2.4 4-2.3 7.9-5.7 9.9-3.4 1.9-7.4 2.2-11.3 2-5.9-.3-11.7-1.8-17.6-1.8s-14.3.6-18 5.5z" fill="#00ad9f"/><path d="m399.8 370.8c12.1-6.6 30.4-10.8 43.7-9.2" fill="none" stroke="#00ad9f" stroke-linecap="round" stroke-linejoin="round" stroke-miterlimit="10"/><path d="m248.6 182.9c-.3 1.9-.9 3.7-1.7 5.5-4.2-9-8-20.8-8.9-35.2-.2-3.9.8-7.9 2.9-11.3.2.2.4.5.6.7 3 4.1 4.5 9.1 5.7 14 1.9 8.6 2.8 17.6 1.4 26.3z" fill="#5275a0" opacity=".2"/><path d="m290.5 182.4c9-3.2 18.4-5.8 26.7-10.7 2.5-1.5 4.9-3.2 6.6-5.5 1.8-2.3 2.8-5.2 2.5-8.1-.4-2.9-2.3-5.7-1.6-8.6.4-1.9 1.8-3.4 2.9-5 2.6-3.8 3.4-8.8 2-13.3-1.4-4.8-5-8.6-7-13.1-1.7-3.7-2.3-7.9-1.7-11.9-7.6.1-14.5 4.2-22 5.6-5.7 1.1-11.6.5-17.3 1.8-10.3 2.4-18.7 11.4-20.3 21.9-4.8-.8-9.9.9-13.3 4.4-3.5 3.8-5.5 9.1-5.2 14.3 2.3 37.4 23.8 57 23.8 57s20.4-27.6 23.9-28.8z" fill="#7ee8d4"/><path d="m270.2 182.1c-.9-9.2 2.3-18.4 6-26.9 3.6-8.3 7.8-16.4 13.3-23.5 5.6-7.1 12.7-13.2 21-16.7" fill="none" stroke="#00ad9f" stroke-linecap="round" stroke-linejoin="round" stroke-miterlimit="10"/><path d="m278.3 120.7c-.9 8.2-.3 18.1 1.9 26.2" fill="none" stroke="#00ad9f" stroke-linecap="round" stroke-linejoin="round" stroke-miterlimit="10"/><path d="m281.7 143.9c9.4-6 23.9-9.7 35-9.1" fill="none" stroke="#00ad9f" stroke-linecap="round" stroke-linejoin="round" stroke-miterlimit="10"/><path d="m258.7 145.4c11.3 4.8 11.8 21.4 12.1 26.1" fill="none" stroke="#00ad9f" stroke-linecap="round" stroke-linejoin="round" stroke-miterlimit="10"/><path d="m273.9 161c8.7-6.2 21.2-8.1 30.4-5.8" fill="none" stroke="#00ad9f" stroke-linecap="round" stroke-linejoin="round" stroke-miterlimit="10"/><path d="m297.5 116.4c-2.6 3.2-3.3 7-3 9.7" fill="none" stroke="#00ad9f" stroke-linecap="round" stroke-linejoin="round" stroke-miterlimit="10"/><path d="m297 123.8c4-2 9.3-2.5 15-1.1" fill="none" stroke="#00ad9f" stroke-linecap="round" stroke-linejoin="round" stroke-miterlimit="10"/><path d="m74.3 141.9c1.1-.1 8.3-5.4 11.1-7.2.8-.5 1.6-1 2.1-1.8s.8-1.8.4-2.6c-.5-1.1-1.3-2.1-3.4-2.1-3.6 0-4.9 1.2-6.6 3-5.8 5.9-3.6 10.7-3.6 10.7z" fill="#4a49ca"/><path d="m106.8 163.5c3.2 1.4 6.5 2.8 10 2.4 1.3-.2 2.8-.8 3.2-2 .4-1.1-.1-2.3-1-3.1s-2-1.1-3.1-1.4c-4.2-1-10.1-.5-14.3.7 0 0 3.3 2.6 5.2 3.4z" fill="#4a49ca"/><path d="m127.6 116.9c-1.4-.9-3-2.1-3-3.7 0-1.7 1.7-2.9 3.4-3 1.7 0 3.2.9 4.5 2 5.3 4.7 4.7 10 4.7 10s-8-4.3-9.6-5.3z" fill="#4a49ca"/><path d="m131.8 102.6c-1.2-.5-2.5-1.2-3.2-2.3-.4-.6-.6-1.3-.3-1.9.4-1 1-2 3.6-1.5 8.2 1.5 10 7.1 10 7.1s-7.9-.4-10.1-1.4z" fill="#4a49ca"/><path d="m156 115.1c3.3-.3 6.7-1.9 8.8-4.5.8-1 1.5-2.1 1.8-3.3s0-2.6-1-3.5c-1.2-1-3-.8-4.3 0s-2.1 2.2-2.8 3.6c-.8 1.9-2.5 7.7-2.5 7.7z" fill="#4a49ca"/><path d="m96.9 235.8c-8-7.1-16-14.1-24-21.2-4.3-3.8-8.6-7.6-11.3-12.6-5.8-10.8-2.5-24.8 5.4-34.1 7.9-9.4 19.4-14.9 30.9-19 11.6-4 23.6-6.9 34.6-12.2 6.9-3.3 13.9-8.3 15.7-15.8 1.1-4.5.2-9.4-2.5-13.2-2.7-3.7-7.2-6.1-11.8-6.4" fill="none" stroke="#0b43a4" stroke-linecap="round" stroke-linejoin="round" stroke-miterlimit="10"/><path d="m161.6 107.5c-2.2 6.7-10.7 10.8-14.6 16.6" fill="none" stroke="#0b43a4" stroke-linecap="round" stroke-linejoin="round" stroke-miterlimit="10"/><path d="m131 115.2c1.7 1.8 3.7 3.2 5.2 5.2 3.1 4.1 3.4 10.8-1.2 15" fill="none" stroke="#0b43a4" stroke-linecap="round" stroke-linejoin="round" stroke-miterlimit="10"/><path d="m87.8 152.8c7.1 5.4 16.4 9.1 25.3 9.4" fill="none" stroke="#0b43a4" stroke-linecap="round" stroke-linejoin="round" stroke-miterlimit="10"/><path d="m71.6 162.7c-3.3-9.6.3-21.1 8.4-27.2" fill="none" stroke="#0b43a4" stroke-linecap="round" stroke-linejoin="round" stroke-miterlimit="10"/><path d="m330 122.2c-.4-1.2-.4-2.6.5-3.5.7-.7 1.9-1 2.8-.6 7 3.1 6.3 14.1 6.3 14.1s-6.7-1.1-9.6-10z" fill="#4a49ca"/><path d="m329.9 142.7c-4.5 8.2 11.6 7.6 17.4 2.8 0 0-13.5-9.8-17.4-2.8z" fill="#4a49ca"/><path d="m350.3 122.8c-1.1-1.5-1.5-3.7-.3-5.2.9-1.1 2.4-1.4 3.8-1.1s3.4 1.5 4.3 2.6c5.3 6.6 2.8 13.1 2.8 13.1s-8.8-6.9-10.6-9.4z" fill="#4a49ca"/><path d="m414.5 143.2c-.4-1.3-.3-2.8.7-3.7.6-.6 1.5-.8 2.4-.7.8.1 1.6.4 2.4.7 1.6.8 2.9 2.1 3.7 3.7 2 4.1.6 9.2.6 9.2s-8.8-6-9.8-9.2z" fill="#4a49ca"/><path d="m394.3 158.2c-2.9-2.5-7.2-3.3-10.7-1.7-.9.4-1.7.9-2.3 1.7-1.3 1.8-.8 4.3.5 6.1 1.3 1.7 3.3 2.8 5.3 3.7 3.6 1.6 9.2 2 13 2.9 0 0 0-7.6-5.8-12.7z" fill="#4a49ca"/><path d="m335.1 124c2.4 7.8 9.1 13.7 16.6 16.8 7.5 3.2 15.7 4 23.9 4.5 8.1.5 16.3.8 24.2 2.9 7.7 2.1 15.3 6.4 18.6 13.6 4 8.8.5 19.3-5.2 27.1-5.6 7.9-13.2 14.2-18.6 22.2-2.5 3.7-4.6 8-4.1 12.4.7 5.9 5.6 10.2 10.2 13.9" fill="none" stroke="#0b43a4" stroke-linecap="round" stroke-linejoin="round" stroke-miterlimit="10"/><path d="m353.8 121.1c5.4 6 9.7 15.3 10.7 23.2" fill="none" stroke="#0b43a4" stroke-linecap="round" stroke-linejoin="round" stroke-miterlimit="10"/><path d="m335.7 144.1c3.1.8 6.2 1.6 9.4 1.6s6.9-1.8 9.2-4" fill="none" stroke="#0b43a4" stroke-linecap="round" stroke-linejoin="round" stroke-miterlimit="10"/><path d="m419.8 143.6c2.9 2.8 4.6 6.7 4.8 10.7.1 4-2.1 8.9-4.7 11.9" fill="none" stroke="#0b43a4" stroke-linecap="round" stroke-linejoin="round" stroke-miterlimit="10"/><path d="m389.6 161.8c5.8 5.3 10.8 9.6 17.2 14.1 2.9 2.1 8.7 4.7 11.3 4" fill="none" stroke="#0b43a4" stroke-linecap="round" stroke-linejoin="round" stroke-miterlimit="10"/><path d="m456.5 282.3c-1.5.9-3.1 1.6-4.7 2.3-6.3 2.6-13 4.1-19.8 4.4-9.9.4-20-1.8-29.5 1-4.4 1.3-8.4 3.6-11.6 6.8-.3.2-.7.3-1 .5-.8-6.7 15.9-15.4 21-17.7 9.1-4.1 19.4-5.9 29.4-5.1 4.4.4 8.9 1.2 12.5 3.7 1.4 1 2.8 2.4 3.7 4.1z" fill="#5275a0" opacity=".2"/><path d="m440.2 278.4c4.4.3 8.9 1.2 12.5 3.7s6.2 6.9 5.3 11.3c-1 5-6.2 8.3-11.2 8.9s-10.2-.8-15.2-1.8c-11.1-2.3-22.5-2.8-33.8-1.5-2.8.3-5.5.9-7.9 2.3-.8-6.7 15.9-15.4 21-17.7 9.1-4.1 19.3-6 29.3-5.2z" fill="#52d2bc"/><path d="m394.2 297c8.3-7.3 29.5-12.2 44.6-10.6 4.5.5 9.1 1.8 12.6 4.8" fill="none" stroke="#00ad9f" stroke-linecap="round" stroke-linejoin="round" stroke-miterlimit="10"/><path d="m378.8 215.2 80.9-.2c9.5 0 17.2 7.7 17.2 17.2 0 9.5-7.7 17.2-17.2 17.2l-55.3.1" style="fill:none;stroke:#0b43a4;stroke-linecap:round;stroke-linejoin:round;stroke-miterlimit:10;stroke-dasharray:4"/><path d="m134 274.6-56.6.1c-5.4 0-9.7 4.4-9.7 9.7 0 5.4 4.4 9.7 9.7 9.7h16.5" style="fill:none;stroke:#0b43a4;stroke-linecap:round;stroke-linejoin:round;stroke-miterlimit:10;stroke-dasharray:4"/><path d="m43.7 318.4c-19.4 0-19.8 28.9 4.9 28.9 24.7-.1 348.1-.7 363.4-.7s16.9-23.8-2-23.8c-37.5.1-38.8-17.8-17.9-17.9" style="fill:none;stroke:#c8dbfb;stroke-linecap:round;stroke-linejoin:round;stroke-miterlimit:10;stroke-dasharray:4"/><path d="m48.3 317.6c.4 2.6-1.3 5.1-3.9 5.5s-5.1-1.3-5.5-3.9 1.3-5.1 3.9-5.5c2.5-.4 5 1.3 5.5 3.9z" fill="#5193f4"/><path d="m401.3 305c.4 2.6-1.3 5.1-3.9 5.5s-5.1-1.3-5.5-3.9 1.3-5.1 3.9-5.5 5.1 1.3 5.5 3.9z" fill="#0b43a4"/><path d="m209.7 95.8-2.3-5.7 22.6-8.6z" fill="#0b43a4"/><path d="m210.9 92.3 19.1-10.8-13.3 13.5z" fill="#5193f4"/><path d="m202.2 87.8 27.8-6.3-22.6 8.6z" fill="#5193f4"/><path d="m210.9 92.3-1.2 3.5 3.5-2.4z" fill="#0056ec"/><path d="m406.6 388.6-300.9.6c-4 0-7.3-3.2-7.3-7.3l-.4-199.3c0-4 3.2-7.3 7.3-7.3l300.9-.6c4 0 7.3 3.2 7.3 7.3l.4 199.3c-.1 4-3.3 7.3-7.3 7.3z" fill="#5275a0" opacity=".2"/><path d="m400.7 384.8-300.9.6c-4 0-7.3-3.2-7.3-7.3l-.4-199.3c0-4 3.2-7.3 7.3-7.3l300.9-.6c4 0 7.3 3.2 7.3 7.3l.4 199.3c-.1 4-3.3 7.3-7.3 7.3z" fill="#fff"/><path d="m399.7 170.9-299.6.6c-4.4 0-7.9 3.6-7.9 7.9v6.9l315.4-.7v-6.9c.1-4.2-3.5-7.8-7.9-7.8z" fill="#002139"/><path d="m100.5 385.4 45.3-.1-.4-199.1-53.2.1.4 191.2c0 4.4 3.5 7.9 7.9 7.9z" fill="#002139"/><path d="m400.3 172.9c2.9 0 5.3 2.4 5.3 5.3l.4 199.3c0 1.4-.5 2.7-1.5 3.7s-2.3 1.5-3.7 1.6l-300.9.6c-2.9 0-5.3-2.4-5.3-5.3l-.4-199.3c0-1.4.5-2.7 1.5-3.7s2.3-1.5 3.7-1.6zm0-2-300.9.6c-4 0-7.3 3.3-7.3 7.3l.4 199.3c0 4 3.3 7.3 7.3 7.3l300.9-.6c4 0 7.3-3.3 7.3-7.3l-.4-199.3c0-4-3.3-7.3-7.3-7.3z" fill="#002139"/><path d="m138.1 370.2-34.9.1c-1.5 0-2.8-1.2-2.8-2.8v-.3c0-1.5 1.2-2.8 2.8-2.8l34.9-.1c1.5 0 2.8 1.2 2.8 2.8v.3c0 1.6-1.2 2.8-2.8 2.8z" fill="#fff"/><path d="m133.9 235.1-29.7.1c-2.8 0-5.1-2.3-5.1-5.1l-.1-29.7c0-2.8 2.3-5.1 5.1-5.1l29.7-.1c2.8 0 5.1 2.3 5.1 5.1l.1 29.7c0 2.9-2.2 5.1-5.1 5.1z" fill="#fff"/><g fill="#c8dbfb"><path d="m261.1 324.1-103.5.2c-2 0-3.6-1.6-3.6-3.6v-.5c0-2 1.6-3.6 3.6-3.6l103.5-.2c2 0 3.6 1.6 3.6 3.6v.5c0 2-1.6 3.6-3.6 3.6z"/><path d="m255.1 206.2-81.8.2c-2 0-3.6-1.6-3.6-3.6v-.5c0-2 1.6-3.6 3.6-3.6l81.8-.2c2 0 3.6 1.6 3.6 3.6v.5c0 2-1.6 3.6-3.6 3.6z"/><path d="m384.4 288.9-109 .2c-2 0-3.6-1.6-3.6-3.6v-.5c0-2 1.6-3.6 3.6-3.6l109-.2c2 0 3.6 1.6 3.6 3.6v.5c0 2-1.6 3.6-3.6 3.6z"/><path d="m261.1 340.1-103.5.2c-2 0-3.6-1.6-3.6-3.6v-.5c0-2 1.6-3.6 3.6-3.6l103.5-.2c2 0 3.6 1.6 3.6 3.6v.5c.1 2-1.6 3.6-3.6 3.6z"/><path d="m261.1 356.1-103.5.2c-2 0-3.6-1.6-3.6-3.6v-.5c0-2 1.6-3.6 3.6-3.6l103.5-.2c2 0 3.6 1.6 3.6 3.6v.5c.1 1.9-1.5 3.6-3.6 3.6z"/><path d="m382.2 366.5-104.3.2c-3.3 0-6-2.7-6-6l-.1-44.8c0-3.3 2.7-6 6-6l104.3-.2c3.3 0 6 2.7 6 6l.1 44.8c0 3.3-2.7 6-6 6z"/><path d="m109.5 178.8c0 1.4-1.1 2.6-2.5 2.6s-2.6-1.1-2.6-2.5 1.1-2.6 2.5-2.6 2.6 1.1 2.6 2.5z"/><circle cx="117.8" cy="178.8" r="2.5"/><path d="m131.1 178.8c0 1.4-1.1 2.6-2.5 2.6s-2.6-1.1-2.6-2.5 1.1-2.6 2.5-2.6c1.5-.1 2.6 1 2.6 2.5z"/><ellipse cx="158.3" cy="202.6" rx="7.4" ry="7.4" transform="matrix(.09966175 -.995 .995 .09966175 -58.9822 339.9264)"/></g><path d="m136 241.4-32.6.1c-.8 0-1.4-.6-1.4-1.4v-.2c0-.8.6-1.4 1.4-1.4l32.6-.1c.8 0 1.4.6 1.4 1.4v.2c0 .8-.6 1.4-1.4 1.4z" fill="#fff"/><path d="m136 247.6-32.6.1c-.8 0-1.4-.6-1.4-1.4v-.2c0-.8.6-1.4 1.4-1.4l32.6-.1c.8 0 1.4.6 1.4 1.4v.2c0 .8-.6 1.4-1.4 1.4z" fill="#fff"/><path d="m173.4 260.8-9.2.1.1 38.7h-8c-2.8 0-5.1-2.3-5.1-5.1l-.2-71.5c0-2.8 2.3-5.1 5.1-5.2h17.1z" fill="#c8dbfb"/><path d="m233.3 217.7v1c2.8 0 5 2.2 5 5l.1 69.7c0 1.3-.5 2.6-1.5 3.5-.9.9-2.2 1.5-3.5 1.5l-76.3.2c-2.8 0-5-2.2-5-5l-.1-69.7c0-1.3.5-2.6 1.5-3.5.9-.9 2.2-1.5 3.5-1.5l76.3-.2zm0 0-76.3.2c-3.3 0-6 2.7-6 6l.1 69.7c0 3.3 2.7 6 6 6l76.3-.2c3.3 0 6-2.7 6-6l-.1-69.7c0-3.4-2.7-6-6-6z" fill="#c8dbfb"/><path d="m360.6 275.1-101.7-23c-3.2-.7-5.3-4-4.5-7.2l11.4-50.6c.7-3.2 4-5.3 7.2-4.5l101.7 23c3.2.7 5.3 4 4.5 7.2l-11.4 50.6c-.7 3.2-3.9 5.2-7.2 4.5z" fill="#002139"/><path d="m163.8 412.8h-14.3l-3.5-18.1 21.2-.1z" fill="#002139"/><path d="m150 394.6c0 1.5-.3 4 .7 4s.6-2.4 1.7-2.3c.7 0-.3 7.9 2.4 8.1 1.9.1 1.5-3.8 1.7-6.3.1-1.7 2.3-1.4 2.3-.2s-.1 2.1 0 3.5c.1 2.4 3.7 1.7 3.6-1.4s0-5.3 0-5.3z" fill="#c8dbfb"/><path d="m146.6 405.6c-.3 0-.6 0-.8-.1-1-.2-1.8-.8-2.2-1.6-1.5-3.1 2.4-8.8 2.5-9.1l.2 1c0 .1-3.4 5-2.1 7.8.3.7.9 1.1 1.7 1.2.2 0 .5.1.7.1 5.1 0 13.9-9.6 14-9.7.4-.4 1 0 .8.3-.4.5-9.3 10.1-14.8 10.1z" fill="#0c2340"/><path d="m296.1 157.6c-20.2-.8-48.1 14.2-38.2 50.8-.2 3.1 1.6 5.3 3.6 4.7s.2-6.5.2-6.5c3.4-27.2 9.7-31.9 20.4-31.8l25.1-.1c6.2.9 17.5 5.3 19.2 27l6.2 1.2c.5-15.7-3.3-44-36.5-45.3z" fill="#5275a0" opacity=".2"/><path d="m296.1 154.4c-20.2-.8-48.1 14.2-38.2 50.8l3.8-1.8c3.4-27.2 9.7-31.9 20.4-31.8l25.1-.1c6.2.9 17.8 6.4 19.5 28.2h5.9c.5-15.7-3.3-44-36.5-45.3z" fill="#ef832b"/><path d="m292 155-3 6.6s.4 3.7 4 3.6 4.1-1.8 4.1-1.8l.5-7.6z" fill="#ffb9a3"/><path d="m307.5 149.5c-3.4 6.1-4.9 7.9-9.4 8.8-5.8 1.2-12.3-2.7-9.3-12.4 2.5-7.9 6.2-6.7 9.9-6.4 3.6.4 12.5 3.5 8.8 10z" fill="#ffb9a3"/><path d="m293.8 144.7c-.9-.5-2.1-.1-2.8.7s-1.1 1.9-.8 2.9c-1.4 0-2.6 1.4-2.5 2.8-1-2.2-.4-4.6-.6-6.8-.2-2.3.1-4.8 1.5-6.5.6-.7 1.4-1.3 2.2-1.7 3.2-1.7 7.1-1.7 10.3-.1.7.3 2.3 1.4 4.6.8 4.4-1.1 7 1.9 4.3 4.7.9.3 1.8.7 2.2 1.5.1.2.1.5 0 .7-.1.1-.3.2-.4.3-.7.3-1.6.3-2.3.2.3.3 1.9.4 2.4 1.3 1.3 2.5-3.9 1.3-4.7 1 .9.2 3.3 2.1 2.5 3.4-.2.3-3.4 2.1-6.8-1.8-.8-.9-1.8-1.8-2.9-2.1-.9-.2-1.9.1-2.8.4-.6.2-2.3 1.2-2.8.6-.2-.7.5-1.7-.6-2.3z" fill="#0c2340"/><path d="m327.3 199.8c-.9 3.1-1.8 3.4-.7 3.9s2-1.2 2-1.2l5 1s-1.1-3.3-1.9-3.7-4.4 0-4.4 0z" fill="#ffb9a3"/><path d="m261.8 203.4c.7 1.6.8 1.6 1.7 3.6 1.7 3.7-2.3 9.7-4.9 3.2-.7-1.8-.7-5-.7-5z" fill="#ffb9a3"/><path d="m301 136.4c3.4.2 7.7-2.2 10.3.9.2.3.7-.1.5-.4-2.6-3.7-7.3-.9-10.9-1-.3 0-.3.5.1.5z" fill="#0c2340"/><path d="m302.4 134.5c-2.3.4-4.6-.7-7-.3-1.9.3-3.6 1.3-5.1 2.5-.4.3.1 1 .5.7 2-1.3 4-2.5 6.5-2.3 1.8.1 3.4.7 5.2.1.5-.1.3-.7-.1-.7z" fill="#0c2340"/><path d="m289 137.7c-1.7 1-2.6 2.4-2.8 4.4-.1 1.4-.2 4.7 1.2 5.5.3.2.7-.3.4-.5-.9-.9-1-3.4-.9-4.6.1-1.8.9-3.2 2.3-4.3.3-.2.1-.6-.2-.5z" fill="#0c2340"/><path d="m314.4 143.4c-.8-1.5-3-2.8-4.7-1.8-.3.1-.1.5.1.6.7 0 1.4-.1 2.1.1.8.2 1.5.7 2 1.4.2.2.7 0 .5-.3z" fill="#0c2340"/><path d="m203.1 295.9c10.6 3.9 19.8 16.1 17.7 24.9-2.4 10-9.3 14.3-9.3 14.3l-2.2-4s5.5-8.6 5-12.7c-.8-6.5-9-10.9-9-10.9z" fill="#002139"/><path d="m177 408.6s-6.5 2.6-8.1 4.1h12.9v-4.1z" fill="#0c2340"/><path d="m205.5 408.4s1.8 2.1 2.2 4.3h-8.8c.2-1.5.8-2.9 1.6-4.3z" fill="#0c2340"/><path d="m206.1 408.6h-6c.1-7.1-1.3-31.2-2.8-49.2-.8-10.6-1.6-19.1-2.1-20.8l3.2-.7 12.1-2.7c2.1 9.4-2.7 53-4.4 73.4z" fill="#047f76"/><path d="m184 338.2c-4.7 7.4-5.9 60.7-7.9 70.6l5.7.3s6.5-33.6 20.5-71.5z" fill="#009790"/><path d="m204.7 337.6c-2.8 7.5-5.2 14.8-7.4 21.7-.8-10.6-1.6-19.1-2.1-20.8l3.2-.7z" fill="#5275a0" opacity=".2"/><path d="m184 338.2c-4.7 7.4-5.9 60.7-7.9 70.6l5.7.3s6.5-33.6 20.5-71.5z" fill="#009790"/><path d="m187.5 278.6s-3.6 13.9 5.5 13.9l-.5 3.6 6.9.8-1.5-5s1.4-8.7 1.5-10.3c.1-3-8.1-8.2-11.9-3z" fill="#ffb9a3"/><path d="m162.3 263h2.7v11.3h-2.7z" fill="#0c2340" transform="matrix(1 -.00197326 .00197326 1 -.5299 .3235)"/><path d="m171.4 263h-15.4c-1.1 0-2-.9-2-1.9v-.4c0-1.1.9-2 2-2h15.4c1.1 0 2 .9 2 1.9v.4c-.1 1.1-1 2-2 2z" fill="#0056ec"/><path d="m161.6 277.3c-.1-2.6-2.2-1.9-1-6.1.7-2.6 6.1.4 5.4 2.2s-1.4 4.6-1.4 4.6z" fill="#ffb9a3"/><path d="m193.1 295.2c-13.6.9-14.5 5.5-20.6 4.8-9-1.1-7.4-17.8-6.3-23.8h-5.4s-9.7 38.2 21 31.1c-1.2 6.7 6.5 17.6-.9 30.9 11.7 3.2 22.5 3.9 31.8-.1-1.6-2.2 3.3-24.4-6.4-40.4-2-3.1-12.2-2.6-13.2-2.5z" fill="#0056ec"/><path d="m193.1 295.2c-13.6.9-14.5 5.5-20.6 4.8-9-1.1-7.4-17.8-6.3-23.8h-5.4s-9.7 38.2 21 31.1c-1.2 6.7 6.5 17.6-.9 30.9 11.7 3.2 22.5 3.9 31.8-.1-1.6-2.2 3.3-24.4-6.4-40.4-2-3.1-12.2-2.6-13.2-2.5z" fill="#002139"/><path d="m191.2 281.3c.9.2 1.9.4 2.4 1.2.3.5.3 1.1.3 1.7.2-.6.8-1 1.5-1 .6.1 1.2.6 1.2 1.3 0 .3-.1.6-.2.8-.3.7-.6 1.3-1 1.9 1.1.4 2 3.7 2.6 4.7 1.9-.5 6-2.1 6.4-8.7.2-3.1-.8-6.8-4.1-8.8-2.4-1.5-6.3-1.5-9-.8-2.2.6-5.7 2.8-4.1 5.3.7 1.2 2.5 2 4 2.4z" fill="#ef832b"/><path d="m202.9 277c1.3-.4 2.9-.2 3.6.9.6.8.5 1.9.7 2.9.1.5.3 1 .6 1.3.4.4 1.1.5 1.7.5 1.5.1 3-.1 4.4.1s2.9 1.1 3.3 2.4c.2.7.1 1.6.4 2.3.4 1.1 1.6 1.7 2.6 2.4 2.2 1.4 4 3.2 5.4 5.3.8 1.3 1.5 2.8 1.6 4.4s1.2 3.6.9 5.2c-.3 1.7-2 3.9-5.2 5-5.6 1.8-7.4 2.6-12.7-.6-.6-.4-1.9-1.7-2.5-2.2-.5-.4-.8-.9-.9-1.5-.4-1.5.1-3.2.9-4.6s1.9-2.6 2.7-4c.5-.8.9-1.8.8-2.7 0-.4-.1-.7-.4-1-.2-.2-.6-.3-.9-.4-1.2-.2-2.5 0-3.5-.5s-1.6-1.8-1.3-2.8c.2-.7.8-1.3.9-2.1.2-1.1-.4-2.1-1.4-2.8s-2.1-.9-3.2-1c-.5-.1-1.1-.2-1.6-.5-.5-.4-.8-1.1-.8-1.7.2-2.1 1.9-3.6 3.9-4.3z" fill="#ef832b"/><path d="m201.9 282.6c6.7 1.5-1.8 7.8 1.8 10.9 1 .9 2.2.6 3.4.8 4.6.6 2.1 3.7 1.8 6.2 0 .4.6.4.6.1.4-1.7 1.9-3.7 1.1-5.5-.7-1.6-2.4-1.4-3.9-1.4-1.8-.1-3.8 0-3.1-3.6.1-.8.8-1.6 1.1-2.3.4-.9.6-1.7.4-2.6-.3-1.6-1.7-2.5-3.2-2.8-.2-.2-.3.2 0 .2z" fill="#ef832b"/><path d="m188 274.4c5.2-2.6 10.4-2.1 14.8 1.8.3.3.7-.1.4-.4-3.9-4.3-10.7-5.1-15.4-1.6-.1 0 0 .3.2.2z" fill="#ef832b"/><path d="m362.6 290.7-2.2 4.5 5.5 2.3.6-5.3z" fill="#ffb9a3"/><path d="m366 275.9c-12.5 5.4-7.4 18.6.2 17.1 3.7-.8 5.6-12.7 5.6-12.7z" fill="#ffb9a3"/><path d="m370.1 274.1c-.4-.8-.8-1.6-1.5-2.1s-1.7-.7-2.4-.1c-.8.8-.3 2.2.5 3-.7.1-1.6-.4-2.1.1-.4.4-.3 1.1 0 1.6.6 1.2 1.5 2.2 2.6 2.9-.6.4-1.4 1.1-1 1.7.1.2.3.3.4.5.2.4 0 .9-.2 1.3-.4.7-.8 1.3-1.3 1.9.4-.6 1.5-.3 1.8.3.3.7 0 1.5-.4 2-.3.3-.6.6-1 .6-.3.1-1.9 4.8-.7 5.7 1.5 1.1 6.4.1 7.1-1.1.7.8 1.8 1.4 2.8 1.2s1.8-1.5 1.3-2.4c1.1.4 2.5 0 3.3-.9s.9-2.3.3-3.4c.6-.2.7-1 .6-1.6-.3-1.3-1.3-2.3-2.6-2.7.6 0 1.1-.6 1.2-1.3 0-.6-.3-1.2-.7-1.7-1.2-1.4-2.6-1.8-4.3-2.1-2-.2-2.9-2-3.7-3.4z" fill="#4a49ca"/><path d="m358.4 407.8s-7.3 3.5-8.3 4.6c0 0 14.4.6 15.5 0 1.1-.7-2.3-4.6-2.3-4.6z" fill="#0c2340"/><path d="m385.6 403.8s-6.4 4.9-7.2 6.2c0 0 15.2-2.3 15.2-3.2 0-1-3.2-4-3.2-4z" fill="#0c2340"/><path d="m365.5 340c-.3 1.5-10.3 41 18.4 64.7l8.3-1.9s-9.7-9.1-14.2-25.3c-4.3-15.4-.9-16.9 1.7-25.4 2.9-9.4.7-16.2.7-16.2z" fill="#d8742a"/><path d="m351.8 339.9c-4.5 10.8-12.3 47.8 4.7 68.6h8.5s-6.7-7.3-7.4-24.3 3.6-24.4 6.6-30.1c3-5.6 5.9-15.1 5.9-15.1z" fill="#ef832b"/><path d="m345.8 272.6c-2.3 7.9-3 22.6 8.3 28.5l7.6-1.8s-13.6-7.1-10.7-25.2z" fill="#002139"/><path d="m325 268.6 5.9-.7s-.7 24.6 27.7 26.7c21.7 1.6 23.4 42.3 23.4 42.3-7 4.7-18.7 6.1-33.8 5.1 0 0 1-29.1-1.4-37 0-.1-23.7-7.5-21.8-36.4z" fill="#002139"/><path d="m317.8 264.1c-1 1.2 3.2 2.6 7.2 4.5l5.1-.6s.1-1 0-2.1-.6-1.7-1.2-.8-3.2 1.2-4.4.4c-1.2-.9-5.7-2.5-6.7-1.4z" fill="#ffb9a3"/><path d="m345.8 272.6c-1.9-1.9-1.4-1.7-1.4-1.7l5.8 1.3s1.3-2.8 2.3-2.9c1.1-.1-.8 1.9-.4 2.7.4.7-1.2 2.2-1.2 2.2z" fill="#ffb9a3"/><path d="m373.3 276.8c1.2.3 2.4.4 3.4 1.2s1.4 2.2.7 3.3c-.3.5.5.9.8.5.9-1.2.7-2.8-.2-3.9-1-1.3-3-1.8-4.6-1.6-.3 0-.4.4-.1.5z" fill="#4a49ca"/><path d="m378.5 287.4c.8.5 1.4 1.2 1.1 2.2-.3.9-1.2 1.4-1.9 1.9-.4.2 0 .8.3.6 1.1-.6 2.2-1.4 2.4-2.7.1-1.1-.6-2-1.6-2.5-.3-.2-.6.3-.3.5z" fill="#4a49ca"/><path d="m365.4 293.4c2.7 1.6 6.4 1.4 8.6-.9.3-.3-.1-.8-.4-.6-2.4 1.8-5.1 2.3-7.9 1.1-.3-.1-.5.2-.3.4z" fill="#4a49ca"/><path d="m378.9 278.5c1.5 1.4 0 3.4-1 4.7-.2.3.1.6.4.4.9-.8 1.7-1.7 1.9-3 .1-.9-.3-1.8-1.1-2.3-.2 0-.3.1-.2.2z" fill="#4a49ca"/><path d="m207.1 95.1c-5.9-1-13.9 5-10.5 11.2 1.2 2.1 7.2 1.2 6.8-1.1-.2-1.1-1.6-1.6-2.7-1.5-6.6.8-6.9 6.3-6.6 7.7 1.5 7.3 12.7 4.8 16.4 3.8" style="fill:none;stroke:#c8dbfb;stroke-linecap:round;stroke-linejoin:round;stroke-miterlimit:10;stroke-dasharray:4"/></svg>