<?xml version="1.0" encoding="utf-8"?>
<!-- Generator: Adobe Illustrator 22.1.0, SVG Export Plug-In . SVG Version: 6.00 Build 0)  -->
<svg version="1.1" id="Calque_1" xmlns="http://www.w3.org/2000/svg" xmlns:xlink="http://www.w3.org/1999/xlink" x="0px" y="0px"
	 viewBox="0 0 100 100" style="enable-background:new 0 0 100 100;" xml:space="preserve">
<style type="text/css">
	.st0{fill:#002139;}
	.st1{fill:#002139;stroke:#FFFFFF;stroke-miterlimit:10;}
	.st2{fill:none;stroke:#FFFFFF;stroke-miterlimit:10;}
	.st3{fill:#FAF7ED;}
	.st4{fill:#FFFFFF;}
</style>
<g>
	<circle class="st0" cx="50" cy="50.2" r="50.2"/>
</g>
<path class="st1" d="M83.1,70.5H17.9c-2.4,0-4.4-2-4.4-4.4V24.9c0-2.4,2-4.4,4.4-4.4h65.2c2.4,0,4.4,2,4.4,4.4v41.2
	C87.5,68.5,85.5,70.5,83.1,70.5z"/>
<path class="st2" d="M82.7,69H18.3c-1.8,0-3.3-1.5-3.3-3.3V25.3c0-1.8,1.5-3.3,3.3-3.3h64.3c1.8,0,3.3,1.5,3.3,3.3v40.3
	C86,67.5,84.5,69,82.7,69z"/>
<rect x="39" y="71" class="st3" width="25" height="14"/>
<path class="st4" d="M66,87H36c-0.5,0-1-0.4-1-1l0,0c0-0.6,0.5-1,1-1h30c0.6,0,1,0.4,1,1l0,0C67,86.6,66.6,87,66,87z"/>
<rect x="18.9" y="25.2" class="st4" width="64.6" height="2.1"/>
<rect x="18.9" y="31.1" class="st4" width="32.1" height="19.9"/>
<rect x="53.6" y="31.1" class="st4" width="29.9" height="19.9"/>
<rect x="18.9" y="52.4" class="st4" width="64.6" height="10.4"/>
<path class="st0" d="M47.1,35.5H22.5c-0.8,0-1.4-0.6-1.4-1.4l0,0c0-0.8,0.6-1.4,1.4-1.4h24.6c0.8,0,1.4,0.6,1.4,1.4l0,0
	C48.5,34.9,47.9,35.5,47.1,35.5z"/>
<path class="st0" d="M26.2,41.1h-2.7c-0.7,0-1.3-0.6-1.3-1.3l0,0c0-0.7,0.6-1.3,1.3-1.3h2.7c0.7,0,1.3,0.6,1.3,1.3l0,0
	C27.5,40.5,26.9,41.1,26.2,41.1z"/>
<path class="st0" d="M37.5,41.1h-3.9c-0.7,0-1.3-0.6-1.3-1.3l0,0c0-0.7,0.6-1.3,1.3-1.3h3.9c0.7,0,1.3,0.6,1.3,1.3l0,0
	C38.9,40.5,38.3,41.1,37.5,41.1z"/>
<path class="st0" d="M47.2,41.1h-3.3c-0.7,0-1.3-0.6-1.3-1.3l0,0c0-0.7,0.6-1.3,1.3-1.3h3.3c0.7,0,1.3,0.6,1.3,1.3l0,0
	C48.5,40.5,47.9,41.1,47.2,41.1z"/>
<path class="st0" d="M38.6,44.1h8.8c0.7,0,1.2,0.5,1.2,1.2l0,0c0,0.7-0.5,1.2-1.2,1.2h-8.8c-0.7,0-1.2-0.5-1.2-1.2l0,0
	C37.4,44.7,37.9,44.1,38.6,44.1z"/>
<path class="st0" d="M28.2,46.5h-4.4c-0.7,0-1.2-0.5-1.2-1.2l0,0c0-0.7,0.5-1.2,1.2-1.2h4.4c0.7,0,1.2,0.5,1.2,1.2l0,0
	C29.4,46,28.8,46.5,28.2,46.5z"/>
<path class="st0" d="M74.1,48.8H63.4c-4.4,0-8-3.6-8-8v0c0-4.4,3.6-8,8-8h10.8c4.4,0,8,3.6,8,8v0C82.1,45.2,78.5,48.8,74.1,48.8z"/>
<circle class="st0" cx="27.9" cy="57.5" r="3.1"/>
<circle class="st0" cx="49.4" cy="57.4" r="3"/>
<circle class="st0" cx="68.8" cy="57.4" r="3"/>
</svg>
