<?xml version="1.0" encoding="utf-8"?>
<!-- Generator: Adobe Illustrator 22.1.0, SVG Export Plug-In . SVG Version: 6.00 Build 0)  -->
<svg version="1.1" id="Calque_1" xmlns="http://www.w3.org/2000/svg" xmlns:xlink="http://www.w3.org/1999/xlink" x="0px" y="0px"
	 viewBox="0 0 100 100" style="enable-background:new 0 0 100 100;" xml:space="preserve">
<style type="text/css">
	.st0{fill:#002139;}
	.st1{fill:#002139;stroke:#FFFFFF;stroke-miterlimit:10;}
	.st2{fill:none;stroke:#FFFFFF;stroke-miterlimit:10;}
	.st3{fill:#FAF7ED;}
	.st4{fill:#FFFFFF;}
</style>
<g>
	<circle class="st0" cx="50" cy="50.2" r="50.2"/>
</g>
<path class="st1" d="M83.1,70.5H17.9c-2.4,0-4.4-2-4.4-4.4V24.9c0-2.4,2-4.4,4.4-4.4h65.2c2.4,0,4.4,2,4.4,4.4v41.2
	C87.5,68.5,85.5,70.5,83.1,70.5z"/>
<path class="st2" d="M82.7,69H18.3c-1.8,0-3.3-1.5-3.3-3.3V25.3c0-1.8,1.5-3.3,3.3-3.3h64.3c1.8,0,3.3,1.5,3.3,3.3v40.3
	C86,67.5,84.5,69,82.7,69z"/>
<rect x="39" y="71" class="st3" width="25" height="14"/>
<path class="st4" d="M66,87H36c-0.5,0-1-0.4-1-1l0,0c0-0.6,0.5-1,1-1h30c0.6,0,1,0.4,1,1l0,0C67,86.6,66.6,87,66,87z"/>
<path class="st4" d="M39.2,59.3H22.1c-1.6,0-3-1.3-3-3V31.8c0-1.6,1.3-3,3-3h17.1c1.6,0,3,1.3,3,3v24.6C42.2,58,40.8,59.3,39.2,59.3
	z"/>
<path class="st0" d="M38.9,57.8H22.4c-0.7,0-1.3-0.6-1.3-1.3V32.1c0-0.7,0.6-1.3,1.3-1.3h16.5c0.7,0,1.3,0.6,1.3,1.3v24.5
	C40.2,57.3,39.6,57.8,38.9,57.8z"/>
<path class="st4" d="M73.3,59.3h-8.5c-1.5,0-2.7-1.2-2.7-2.7V40.2c0-1.5,1.2-2.7,2.7-2.7h8.5c1.5,0,2.7,1.2,2.7,2.7v16.5
	C76,58.1,74.8,59.3,73.3,59.3z"/>
<path class="st0" d="M73.2,58.6h-8.5c-0.9,0-1.6-0.7-1.6-1.6V39.9c0-0.9,0.7-1.6,1.6-1.6h8.5c0.9,0,1.6,0.7,1.6,1.6v17.2
	C74.8,57.9,74.1,58.6,73.2,58.6z"/>
<rect x="67.3" y="38.7" class="st4" width="3.2" height="0.2"/>
<circle class="st4" cx="68.9" cy="57.7" r="0.4"/>
<circle class="st4" cx="30.8" cy="56.1" r="0.5"/>
<rect x="27.5" y="31.6" class="st4" width="6.5" height="0.7"/>
</svg>
