<?xml version="1.0" encoding="utf-8"?>
<!-- Generator: Adobe Illustrator 22.1.0, SVG Export Plug-In . SVG Version: 6.00 Build 0)  -->
<svg version="1.1" id="Calque_1" xmlns="http://www.w3.org/2000/svg" xmlns:xlink="http://www.w3.org/1999/xlink" x="0px" y="0px"
	 viewBox="0 0 100 100" style="enable-background:new 0 0 100 100;" xml:space="preserve">
<style type="text/css">
	.st0{fill:#002139;}
	.st1{fill:#002139;stroke:#FFFFFF;stroke-miterlimit:10;}
	.st2{fill:none;stroke:#FFFFFF;stroke-miterlimit:10;}
	.st3{fill:#FAF7ED;}
	.st4{fill:#FFFFFF;}
</style>
<g>
	<circle class="st0" cx="50" cy="50.2" r="50.2"/>
</g>
<path class="st1" d="M83.1,70.5H17.9c-2.4,0-4.4-2-4.4-4.4V24.9c0-2.4,2-4.4,4.4-4.4h65.2c2.4,0,4.4,2,4.4,4.4v41.2
	C87.5,68.5,85.5,70.5,83.1,70.5z"/>
<path class="st2" d="M82.7,69H18.3c-1.8,0-3.3-1.5-3.3-3.3V25.3c0-1.8,1.5-3.3,3.3-3.3h64.3c1.8,0,3.3,1.5,3.3,3.3v40.3
	C86,67.5,84.5,69,82.7,69z"/>
<rect x="39" y="71" class="st3" width="25" height="14"/>
<path class="st4" d="M66,87H36c-0.5,0-1-0.4-1-1l0,0c0-0.6,0.5-1,1-1h30c0.6,0,1,0.4,1,1l0,0C67,86.6,66.6,87,66,87z"/>
<rect x="19" y="25.9" class="st4" width="63" height="38.5"/>
<rect x="23" y="29.7" class="st0" width="24.2" height="31.3"/>
<rect x="31.2" y="36.7" class="st4" width="6" height="1"/>
<rect x="33.6" y="34.2" class="st4" width="1" height="6"/>
<rect x="31.2" y="52.7" class="st4" width="6" height="1"/>
<rect x="54.1" y="37.2" class="st0" width="25.5" height="16"/>
<rect x="57.7" y="45.2" class="st4" width="1" height="5"/>
<rect x="56" y="50.6" class="st4" width="22.1" height="0.2"/>
<rect x="60.5" y="43.5" class="st4" width="1" height="6.7"/>
<rect x="62.6" y="41.4" class="st4" width="1" height="8.8"/>
<rect x="65" y="42.2" class="st4" width="1" height="7.9"/>
<rect x="67.1" y="46.8" class="st4" width="1" height="3.3"/>
<rect x="69.2" y="44.8" class="st4" width="1" height="5.2"/>
<rect x="71.7" y="43" class="st4" width="1" height="7"/>
<rect x="74.5" y="41.1" class="st4" width="1" height="8.9"/>
<circle class="st0" cx="76.3" cy="28.9" r="1.3"/>
</svg>
