<?xml version="1.0" encoding="utf-8"?>
<!-- Generator: Adobe Illustrator 22.1.0, SVG Export Plug-In . SVG Version: 6.00 Build 0)  -->
<svg version="1.1" id="Layer_1" xmlns="http://www.w3.org/2000/svg" xmlns:xlink="http://www.w3.org/1999/xlink" x="0px" y="0px"
	 viewBox="0 0 500 500" style="enable-background:new 0 0 500 500;" xml:space="preserve">
<style type="text/css">
	.st0{fill:#002139;}
	.st1{fill:#002139;stroke:#FFFFFF;stroke-miterlimit:10;}
	.st2{fill:#FFFFFF;}
</style>
<title></title>
<circle class="st0" cx="250" cy="250" r="250"/>
<circle class="st1" cx="250" cy="250" r="203.6"/>
<path class="st2" d="M388.8,177.1c-24.3-44.7-61.6-72.8-112-81.5c-49.6-8.6-93.8,4.5-131.4,37.8c-26,23-42.4,52-49.1,86.2
	c-1.3,6.6-1.8,13.3-2.7,20c-0.1,1-0.3,2-0.5,3v16.6c0.8,5.9,1.4,11.9,2.4,17.8c8.1,44,30.9,78.5,67.8,103.6
	c21,14.3,45.3,23.1,70.7,25.4c32.4,3.2,63-2.9,91.5-18.7c30.4-16.9,52.9-41.3,67.4-72.9c6.7-14.7,11-30.3,12.8-46.4
	C409.5,236,404.1,205.4,388.8,177.1z M378.9,185.1l3,6.4l-3.8,0.3v-6.5L378.9,185.1z M350,160.9c4.3-1.3,6.1-4,4.7-8.7h0.9l6.2,7
	c-1.1,3-2.6,5.2-6.4,4.5c-1.6-0.3-3.2,0-4.9-0.1c-0.6-0.1-1.2-0.5-1.5-1.1C349.1,161.7,349.4,161.2,350,160.9z M165.9,140.9l7.9-1.5
	c0.5,4.4-0.7,5-7.9,4.3c-0.1-0.4-0.2-0.9-0.3-1.3C165.7,141.8,165.7,141.3,165.9,140.9L165.9,140.9z M174.3,148.1
	c-0.3,0.8-0.6,2.3-0.9,2.3c-2.4,0.2-4.8,0.1-7.1,0.1l-0.1-1.3l7.5-1.9L174.3,148.1z M372.8,207.9c-4.7-3.7-5.4-3.7-11.4-2.2
	l-0.3,4.3l-17.5-5.3v-8.1c-7,1.4-14-0.1-20.5,3.5c-2.2,1.2-5.7-0.1-8.3,0.6c-3.3,0.9-6.4,2.3-9.1,4.2c-0.9,0.6-0.5,3.4-0.4,5.2
	c0.2,2.6-1.1,3.9-4.2,5.4c-3.2,1.5-6,3.6-8.4,6.2c-1.3,1.4-3.7,1.8-2.8,4.5s0.7,2.6,3.8,3.2c-0.2,1.9,0.5,4.1-2.1,5.1
	c-0.2,0.1-0.3,0.2-0.4,0.4c-1,1.6-0.1,12.4,1.2,13.9c3.3,3.8,6.8,7.4,9.8,11.3c2.4,3.2,5.5,2.6,8.8,2.4s6.4-0.6,9.6-1.1
	c0.6-0.1,1.2-0.3,1.8-0.6c4.2-3,6.8-2.9,10.9,0.5c0.7,0.5,1.6,0.8,2.5,0.9c2.3,0.4,4.6,0.6,7.3,0.9c-0.3,3.4-0.7,6.6-0.8,9.8
	c-0.1,1.5,0.2,3,0.9,4.3c2.5,4.7,5.3,9.2,7.7,13.9c0.5,1.2,0.5,2.6,0.1,3.8c-1,2.2-2.1,4.4-3.3,6.5c-1.6,2.7-1.1,6.2,1.3,8.3
	c1.7,1.3,2.6,3.5,2.3,5.6c-0.7,5.4,0.4,10.2,4.4,14.3c0.7,1,1,2.2,1,3.4c0.1,2.4,0,4.9,0,7.4l4.2,0.3
	c-38.7,50.2-118.7,73.2-185.7,31.8c-70.2-43.4-81.2-125.6-57.3-178.1c0,0.7,0,1.5,0,2.2c-0.6,3.6,0.4,6,4.2,7.1
	c0.8,0.2,1.3,1.7,1.8,2.7c0.2,0.6,0.2,1.2,0,1.8c-1.1,6.2,1.5,11.4,5.1,16.1c1,1.3,3.1,1.6,4.8,2.3l1.1-0.8c-0.5-1.7-0.6-3.7-1.6-5
	c-3-4.3-5.2-8.7-4.7-14.4l2.3-0.2c0.3,0.3,0.5,0.4,0.5,0.6c0.2,6.9,4,12.2,7.9,17.5c1,1.3,1.4,2.4,0.4,4.1c-0.4,1.1-0.4,2.4,0.1,3.4
	c2.4,7.3,9.2,7.4,15.1,8.7c1.3,0.3,2.9-0.8,4.4-1.1c0.6,0,1.3,0.2,1.9,0.4l-0.3,3.1c0.4,0.2,0.6,0.5,0.9,0.5
	c6.1,0.3,11.7,3.6,14.8,8.8c1.7,2.7,4.1,3.5,7.2,3.6c6.9,0.3,7,0.4,7.4,7.2c0,1.3-0.6,2.6-1.6,3.4c-4.2,2.3-5.4,5.6-6.1,10.4
	c-0.8,5.7,1,9.4,4.4,13.3c2.6,3.1,6.1,5.9,6.4,10.5c0,0.5,1,1,1.6,1.4c3.5,2.1,7.2,4.1,10.6,6.4c0.7,0.5,1,1.9,1,2.9
	c0.1,6.5,0.1,13.1,0,19.6c0,2,0.4,3.4,3,3.5c-0.5,3.2-1.2,6.2-1.4,9.2c-0.1,1.4,0.1,3.2,0.9,4.1c3,3,4.2,7.4,3,11.5
	c-0.7,3.1,0.2,5.9,1.7,8.7c2.7,5.2,6.5,9.9,11.1,13.6c3.2,2.6,6.6,1.4,9.9,1.5c0.2,0,1-2.5,0.6-3.1c-4.2-5.7-4.2-5.6-3.9-12.2
	c0-0.4,0-0.8,0-0.8l-6.2-3l4.3-5.9c-0.3-0.4-0.5-0.7-0.9-1c-1.1-0.7-2.1-1.4-3.2-2.1c1.2-0.6,2.5-1.2,3.7-1.8
	c5.1-1.8,10.4-3,13.1-8.8c1.6-3.3,4.3-6.2,6.8-9c2-2.3,2.8-4.4,1.6-7.4c-0.9-2.5-1.9-5.4,0.5-7.8c0.9-0.9,2.1-1.5,3.4-1.8
	c2.5-0.6,5.2-0.4,7.5-1.3c3.1-1.3,4.5-3.9,4.5-7.6c0-3.6,0.4-7.1,1.1-10.6c0.4-1.7,1.1-3.2,2.1-4.5c2.2-3.1,5.3-5.8,4.9-10.5
	c-4.1-0.4-6.6-3-8.4-6.6c-0.4-0.7-2.1-1.1-3.1-1.1c-6.2,0.3-12.1-0.4-17.8-3.1c-1.4-0.5-2.4-1.8-2.5-3.3c-0.6-2.8-1.3-5.6-2.3-8.4
	c-0.3-1.7-2-2.8-3.7-2.5c-0.1,0-0.2,0-0.3,0.1c-0.4,0.1-0.8-0.1-1.2,0c-4,0.8-6.5-0.9-8.1-4.6c-1.1-2.8-3.5-4.9-6.4-5.6
	c-2.1,3.2-8.9,3.5-10.9,0.1c-1.7-2.7-4.4-2.1-6.7-3c-2.9-1.1-4.9-0.1-6.3,2.4c-2.7,4.8-6.6,5.5-11.8,4.2c-3.4-0.8-4.9-1.8-4.6-5.4
	c0.2-2.7-0.4-5.5-0.6-8.4l-7.9-1.5c0.4-3.3,4.6-5.8,1.7-9.7c-2.9,2-5.9,3.9-8.8,5.9c-1.8,1.2-7.7,1.4-8.7,0
	c-1.5-2.2-3.2-4.6-1.9-7.6s2.2-7,4.5-9.2c2.8-2.6,6.3-4.4,10.1-5.1c4.9-0.9,10.1-0.2,15.8-0.2c-1.1,4.7,1.4,6.7,5.9,7.6
	c0.1-1.1,0.1-2.1,0-3.2c-1.1-4.9,1.6-7.8,5.2-10.3c1.4-1,2.9-2,4.3-2.9c2.1-1.3,4.2-2.5,4-5.6c0-0.6,0.6-1.3,1-1.8
	c4.3-4.6,8.5-9.2,14.4-12.1c2.4-1.2,4.2-3.8,6.1-6s3.7-2.7,5.9-0.3l2.2-2.7c-1-0.2-2-0.5-3-0.9c-0.7-0.4-1.6-1.4-1.6-2
	s1.1-2.1,1.7-2c1.5,0,3.3,0.3,4.4,1.2c1.9,1.6,5.8,1.9,7.7,0.1c0.6-0.5,1.6-0.6,2.4-0.8c-0.1,1,0.1,2.2-0.4,2.9
	c-2,2.5-1.8,3.4,1.3,4.4c2.3,0.7,4.6,1.4,6.9,2c1.3-2.9,0.4-4.3-2.1-5.1c-0.5-0.1-1-0.4-1.4-0.7c-0.8-0.6-1.5-1.2-2.2-1.9
	c0.8-0.6,1.7-1.2,2.6-1.7c2.5-1,3.8-5.4,1.5-6.3c-4.7-1.9-5-5.6-4.7-9.7c0-0.3,0-0.6-0.1-0.9c0-0.1-0.1-0.1-0.4-0.5
	c-1.4,0.7-2.9,1.5-4.5,2.1s-3.1,1.1-5.2,1.8l0.6-6.9c-3.2-0.8-6.2-1.6-9.3-2.2c-1.8-0.3-4.9,2.5-5,4.4c-0.1,1.7-0.1,3.5,0,5.2
	c0.2,2.3-0.4,3.7-2.9,4.1c-3.5,0.5-5.9,2.3-6.9,5.9c-0.6,1.9-1.9,2.8-4.2,2.1v-7.4c-1.7-0.2-3.5-0.5-5.2-0.9
	c-1.8-0.4-3.4-1.2-4.9-2.2c-1.9-1.5-2.3-4.2-0.8-6.1c0.4-0.5,0.8-0.9,1.4-1.2c5.1-2.8,10.3-5.6,15.8-8.5l1.5,5.4l6.6-3.6l-1.1-2
	c2.6-1.8,4.7-3.7,7.2-4.6c3-1.1,6.2-1.7,9.4-1.8c1.5,0,3,1.8,5.1,3.1l-10.9,6.1l13.5,3.2c0.4-0.6,0.7-1.3,1-2c0.5-2.2,1.8-3,3.9-2.7
	c3.1,0.6,4.4-1.1,4.9-4l-4-1.2c1.6-4.9-1.9-5.9-5.2-7.5c-5-2.4-9.9-4.4-15.5-2.6c-2.2,0.7-4.4,1.6-6.4,2.6c-0.5,0.2-0.7,1.4-0.8,2.1
	c0,1.5,0.1,3,0.2,5.4c-2.2-0.9-4.8-1.1-5.5-2.3c-2.2-3.7,2.5-4.6,4-7.6c-3.3-0.2-6.6-0.1-9.9,0.1c-1.2,0.1-2.2,1.8-3.8,3.3l3.8,1.1
	c0.5,2.5-0.3,3.7-3,3.7c-1.6,0-3.5-0.3-4.3,2c-0.2,0.5-1.8,0.6-2.8,0.6c-1.9,0.1-3.8,0-6,0l-0.6-4.9c5,0.7,9.1-0.7,11.6-5.3
	c-1.4-1.5-2.6-1.4-4.1,0.2c-3.2,3.3-7.6,2.8-10.3-0.8c-1.9-2.7-8-3.9-10.8-2.1c-2.4,1.6-4.7,3.5-6.6,5.7h3.8c3.6,0,4.1,0.8,2.5,3.9
	c2.6,1.7,7-1.8,8.7,3.4H183l0.3-0.9c-5-3-10.4-4.9-16.8-4.6c45.4-35.1,122.4-40.8,178.7,9c-1.6,1.2-3,2.5-4.6,3.5
	c-1.9,1.3-4.2,2.1-5.8,3.6c-1.9,1.7-0.8,3.8,1.5,5c1.6,0.9,2.6,3,4.2,4.9l5.2-1.8l1,6.4c-3,0-5.9,0.1-8.8,0
	c-2.2-0.1-4.2,1.2-5.1,3.2c-1.5,3.4-4.9,5.7-8.6,5.6c-0.9,0-2,1.4-2.4,2.3c-0.4,1.3-0.6,2.6-0.7,4l3,1.2l-0.8,3.3c-4,0-7.8,0-11.5,0
	c-3.4,0-3.9,2.6-3.9,5.1c0,2,0,4.3,1,6c0.8,1.4,2.9,2.1,4.4,3c0.5,0.3,1.2,0.1,1.8,0.1c4.7,0,9.7,0.9,11.5-5.5
	c0.5-1.7,2.4-3,3.4-4.7c1.4-2.2,3-3.5,5.7-2.4c0.9,0.1,1.7-0.2,2.4-0.7c1.1-0.8,2.1-1.7,3.1-2.7c2.3,5.6,8.3,6.6,12,10.5
	c-0.7,3.2-3.5,1-5.3,2c0.5,2.5,2.5,3.1,4.6,2.8s3.9-1.2,3.4-4c-0.1-0.9,0.6-1.9,0.9-3.1c-3.2-3.3-10-3.4-9.6-10.5
	c1.9,0.1,4.3-0.4,5.8,0.4c2.6,1.5,4.6,3.9,6.9,6c0.3,0.3,0.3,1,0.3,1.5c0.7,5.3,1.3,6.2,5.7,9.7c1.9-3.1,0.3-8.2,5.9-9.3
	c0.1,1.1,0.3,2.3,0.5,3.4c0.4,4.6,3.1,7.2,7.6,6.8c2.6-0.2,4.9,1.5,5.4,4c0.7,2.8,1.6,5.5,2.7,8.2
	C382.6,209.2,377.5,211.7,372.8,207.9L372.8,207.9z M178.7,164l7.1-1.3c-0.1,3.9-0.9,6.2-4.7,6.2L178.7,164z M198.1,183.6v-4.1h4.2
	C203.1,182.5,202,183.5,198.1,183.6L198.1,183.6z M195.2,189.7c0.6-3.8,3.6-3.9,6.1-4.7C202.2,189.2,200.8,190.3,195.2,189.7
	L195.2,189.7z M198.5,178.4l-11.3-0.6c1.1-3.4,4.9-5.1,9-4.2C198.1,173.9,199.3,175.5,198.5,178.4L198.5,178.4z M194.8,179.7
	l-5.6,7.8c-2.6-0.2-2.9-1.6-2.3-3.6C187.8,180.7,190.4,179.1,194.8,179.7L194.8,179.7z M204.5,182.6c6.2,1.4,5.7,1.7,5,4
	C205.4,187.8,203.1,185.9,204.5,182.6L204.5,182.6z"/>
<path class="st2" d="M250.4,413.2c-5.6,0-11.3-0.3-17-0.9c-26.4-2.5-51.7-11.6-73.6-26.5c-38.4-26.1-62.1-62.4-70.4-107.6
	c-0.8-4.1-1.3-8.3-1.8-12.5c-0.2-1.9-0.4-3.7-0.7-5.6l-0.1-0.8l0.3-18.6c0.1-0.6,0.2-1.2,0.3-1.8c0.3-2.1,0.5-4.2,0.8-6.3
	c0.5-4.6,1-9.3,2-14.1c7-35.7,24.2-65.9,51.1-89.7c39.4-34.9,85.4-48.1,136.6-39.3c51.5,8.9,90.7,37.4,116.4,84.7l0,0
	C410,203,416,234.8,412,268.8c-1.9,16.7-6.4,33-13.3,48.3c-15.2,32.9-38.7,58.4-70,75.8C304.8,406.2,277.8,413.2,250.4,413.2z
	 M99.4,258.8c0.2,1.8,0.4,3.6,0.7,5.4c0.5,3.9,1,7.9,1.7,11.7c7.7,41.9,29.6,75.4,65.2,99.6c20.2,13.7,43.5,22.1,67.8,24.4
	c31.3,3.1,60.8-3,87.9-18c29-16,50.7-39.6,64.8-70.1c6.4-14.1,10.5-29.1,12.3-44.5c2.9-24.8,0.1-48.3-8.4-70.2l-0.9,0.1
	c0.5,1,0.9,2.1,1.2,3.2c0.4,1.5,0.8,3,1.4,4.4c0.4,1,0.7,2,1.1,3.1l3.2,9.6l-10-1.4c-1.4-0.1-2.8-0.1-4.2,0
	c-3.9,0.2-9.1,0.6-14.1-3.4c-0.6-0.5-1.2-0.9-1.6-1.2l-0.4,6.6l-29.5-8.9v-5.8h-1c-4,0.2-7.4,0.4-10.3,2s-5.8,1.4-8,1.2
	c-0.6-0.1-1.2-0.1-1.9-0.1c-1.7,0.5-3.4,1.1-4.9,2l0,0l0.1,1.1c0.5,7.6-5.6,10.4-7.8,11.4c-1.6,0.7-3,1.7-4.4,2.9l1.3,0.2l-0.8,6
	c0,1.9-0.1,5.6-2.9,8.2c0,2.3,0.3,4.6,0.8,6.9c0.8,0.9,1.6,1.8,2.4,2.7c2.4,2.6,4.8,5.3,7,8.3c0.8,0.1,1.6,0.1,2.5,0l0.8-0.1
	c3-0.3,6-0.5,9-1c6.1-4,11.5-3.8,17.4,0.8c1.6,0.2,3,0.4,4.6,0.6l8.5,1l-0.8,9c-0.2,2.2-0.4,4.3-0.5,6.4c0,0.4,0,0.8,0.2,1.2
	c1.1,2.1,2.4,4.3,3.6,6.4c1.4,2.5,2.8,5,4.1,7.5c1.3,2.8,1.5,6,0.4,8.9c-0.7,1.8-1.6,3.5-2.5,5.2c-0.4,0.6-0.7,1.3-1,1.9
	c-0.1,0.2-0.2,0.4-0.2,0.7c3.6,3.3,5,7,4.5,11.2c-0.5,3.9,0.3,6.7,2.6,9c1.7,1.7,2.6,4.1,2.8,7.3c0,0.7,0.1,1.4,0.1,2l9.9,0.8
	l-7,9.1c-39.3,51-122.6,77.4-193.9,33.3c-70.6-43.6-85.8-128.8-59.7-186l9.4-20.7c-9.3,15.3-15.9,32.2-19.2,49.8
	c-0.8,4.2-1.3,8.5-1.8,13c-0.2,2.2-0.5,4.4-0.8,6.6c-0.1,0.8-0.2,1.6-0.4,2.3l-0.1,0.4L99.4,258.8z M240.5,387.3
	c43.2,3,84.4-15.4,109.9-43.9V338c0-1.6,0-3.2,0-4.7c0-0.1,0-0.1,0-0.1c-4.5-5-6.3-11.3-5.4-18.6l-0.3-0.3c-4.5-4-5.6-10.5-2.7-15.7
	c0.4-0.8,0.8-1.5,1.2-2.3c0.6-1,1.1-2.1,1.6-3.2c-1.1-2.1-2.3-4.2-3.5-6.3c-1.3-2.3-2.6-4.5-3.8-6.8c-1.1-2.3-1.7-4.8-1.6-7.4
	c0-1.4,0.1-2.7,0.2-4.1l-1.5-0.2c-2-0.3-3.9-1-5.4-2.3c-0.6-0.5-1.2-0.9-1.8-1.2c0,0-0.5,0.3-1.6,1c-1.3,0.9-2.9,1.5-4.5,1.7
	c-3.3,0.5-6.6,0.8-10,1.1l-0.7,0.1c-3.5,0.3-9.3,0.8-13.6-4.9c-1.9-2.5-4.1-4.9-6.3-7.4c-1.1-1.2-2.1-2.4-3.2-3.6
	c-3-3.5-4.2-16.5-2-20.9c-0.7-1-1.2-2.1-1.5-3.3c-1.1-3.4-1.2-7.6,3.9-11c3-3.2,6.5-5.8,10.5-7.8l0.6-0.3c-0.2-2.9-0.5-7.2,3.1-9.8
	c0.6-0.4,1.3-0.9,1.9-1.2c-0.2-0.3-0.4-0.5-0.5-0.8c-1.6-2.9-1.8-6.3-1.8-9.1c0.2-10.6,8.4-11.2,10.1-11.2c1.1,0,2.2,0,3.3,0v-0.1
	c0.1-1.6,0.4-3.3,1.1-4.8c1.2-2.7,4-5.9,7.9-6c1.7-0.1,2.4-0.5,3.2-2.1c1-2.2,2.7-4,4.8-5.2c-2.4-1.5-4-4-4.4-6.7
	c-0.3-2.9,0.8-5.7,3-7.6c1.3-1.2,2.8-2.1,4.4-2.9c-43.4-34.3-96.9-35.9-137.1-19.3c0.6,0.6,1.2,1.2,1.7,1.9c0.1,0.2,0.3,0.3,0.5,0.5
	c2.4-2.5,4.8-3.5,7.2-3.5c1.4,0,2.7,0.4,3.9,1.1c0.7-0.3,1.4-0.5,2.1-0.6c2.6-0.3,5.2-0.3,7.8-0.2c0.9,0,1.9,0,2.9,0h7.3
	c7.5-2.1,13.9,0.6,19.4,3.2l0.9,0.4c2,0.9,6.8,3.1,8,8.1l4.7,1.5l-1,5.4c-0.4,3-1.9,5.7-4.4,7.6c-1.6,1.1-3.5,1.7-5.4,1.7l-0.3,0.5
	l0.5,1.5c0.2,0.8,0.3,1.6,0.2,2.5c-0.1,2.3,0,3,0.1,3.1l0,0c0.2,0.2,0.5,0.3,0.7,0.4c3.1,1.3,5.1,4.5,5,7.9c0,1.8-0.5,3.6-1.4,5.2
	c0.7,0.7,1.2,1.5,1.6,2.3c1.2,2.6,1.1,5.4-0.3,8.6l-2.2,5l-7.4-2.2c-1.6-0.5-3.2-0.9-4.8-1.4c-1.3-0.4-4.5-1.4-6.1-4.3l-6.5,7.7
	l-2.9-3.1c-1.7,2.3-4,4.3-6.5,5.6c-4.6,2.2-8.2,6-12,10.1c-0.6,5.3-4.8,7.8-7,9.1c-1.1,0.6-2.1,1.3-3.1,2l-0.9,0.6
	c-3,2.1-2.9,2.8-2.6,3.8c0.3,1.3,0.3,2.6,0.2,3.9v8.2l-7.4-1.4c-4.4-0.8-7.5-2.6-9.4-5.5c-0.4-0.7-0.8-1.4-1.1-2.1
	c-3-0.2-6-0.1-8.9,0.3c-2.5,0.5-4.9,1.7-6.8,3.4c-0.8,1.2-1.4,2.5-1.8,3.8c-0.4,1.1-0.8,2.1-1.2,3.1l0,0c0.6,0,1.2-0.1,1.8-0.2
	l13.3-8.9l3.5,4.9c1.9,2.5,2.6,5.6,1.9,8.7l5.1,1l0.4,4.8c0.1,0.8,0.2,1.7,0.3,2.5c0.3,1.9,0.4,3.8,0.4,5.8c3.5,0.8,3.9,0.1,4.7-1.3
	c3-5.3,8.4-7.3,14-5.2c0.3,0.1,0.7,0.2,1.1,0.2c3.3,0.3,6.3,2.1,8.3,4.7c0.3,0,0.7,0,1-0.1l2.1-3.2l4.3,1c4.9,1.1,9,4.5,10.8,9.2
	c0.1,0.4,0.3,0.7,0.6,1c0.1,0,0.3,0,0.6-0.1l0.8-0.2h1.1c4.7-0.7,9.2,2.2,10.4,6.8l0.4,1.4c0.8,2.3,1.4,4.6,1.9,6.9
	c4,1.7,8.4,2.3,14,2.1c3.1-0.1,7.2,1,9,4.5c1.6,3.1,2.8,3.2,3.5,3.3l5.2,0.5l0.4,5.2c0.5,6.2-2.7,10.3-4.8,13
	c-0.4,0.5-0.8,1-1.2,1.6c-0.5,0.6-0.9,1.3-1.1,2.1c-0.6,3.1-1,6.3-1,9.5c0.1,6.3-3,11.2-8.3,13.4c-2,0.7-4.1,1.2-6.2,1.3
	c-0.7,0.1-1.5,0.2-2.2,0.3c0.1,0.5,0.4,1.1,0.5,1.3c1.8,4.9,0.9,9.5-2.8,13.7l-1.1,1.3c-1.8,1.9-3.4,4-4.7,6.3
	c-2.6,5.7-7,8.4-11.1,10.1l0.6,0.8l-2.7,3.7l0.1,0.1c2.1,1.4,3.3,3.9,2.9,6.4c-0.2,4.2-0.2,4.2,2.4,7.8c3.2,4.4,0.2,10,0.2,10.1
	L240.5,387.3z M117.5,213.7c-14.4,51,2.9,117.6,61,153.5c12.6,7.8,26.3,13.6,40.8,17c-4.1-3.8-7.5-8.3-10.1-13.2
	c-1.8-3.3-3.6-7.7-2.3-13.1c0.7-2.1,0.1-4.4-1.6-5.8c-2.8-3-2.7-7.2-2.6-8.9s0.4-3.5,0.7-5.2c-1.7-1.9-2.5-4.5-2.3-7
	c0.1-6.1,0.1-12.2,0-18.3c-1.6-1-3.3-2-5-3l-3.6-2.1c-1.4-0.9-4.5-2.6-4.7-6.5c-0.1-1.5-1.2-2.8-3.2-4.9c-0.6-0.6-1.1-1.2-1.6-1.8
	c-3.6-4.2-7.1-9.6-5.8-18.2c0.7-4.8,2.1-10.1,7.5-13.9h-1.1c-5.6-0.2-9.6-2.3-12.2-6.5c-2.1-3.6-5.9-5.8-10-5.9l-1.9-0.1l-3.7-2.7
	c-0.7,0-1.4,0-2.1-0.2c-0.9-0.2-1.7-0.3-2.5-0.5c-5.6-1-13.9-2.6-17.2-12.3v-0.1l-2.8-1.3c-0.3-0.1-0.7-0.3-1-0.4
	c-2.4-0.6-4.5-2-6.1-3.9C121.3,224.7,118.2,219.8,117.5,213.7L117.5,213.7z M222.9,369.5c1,1.3,2,2.6,3.1,3.8
	c-0.1-0.7-0.1-1.5-0.1-2.4L222.9,369.5z M219.5,358c-0.1,0.9-0.3,1.8-0.5,2.7c-0.1,0.7-0.1,1.4,0.2,2.1l2.4-3.4L219.5,358z
	 M215.2,344.3c1.8,2.1,3.1,4.5,3.9,7.2l5.5-2.7c1.1-0.6,2.2-1.1,3.4-1.5l1.6-0.6c4.4-1.5,6.6-2.4,7.9-5c1.8-3.4,4-6.5,6.6-9.3l1-1.2
	c0.3-0.3,0.5-0.6,0.6-0.9c-1.1-2.8-3.5-9.4,1.9-14.6c1.8-1.7,4-2.9,6.3-3.4c1.3-0.3,2.5-0.5,3.8-0.6c0.9-0.1,1.8-0.2,2.7-0.5
	c0.3-0.1,0.6-0.2,0.6-1.7c0-4,0.4-7.9,1.2-11.8c0.5-2.6,1.6-5,3.2-7.1c0.5-0.7,1-1.4,1.6-2.1l0.8-1.1c-2-1.4-3.7-3.1-5-5.2
	c-7.5,0.2-13.8-1-19.5-3.7c-3.3-1.4-5.5-4.4-5.9-8c-0.3-1.8-0.8-3.6-1.4-5.4c-6.2,0.7-11.1-2.3-13.7-8.4c-0.1-0.2-0.2-0.4-0.3-0.6
	c-1.9,0.9-4,1.4-6.1,1.3c-4,0.1-7.8-1.7-10.2-4.8l-0.6-0.1c-0.8-0.1-1.6-0.3-2.3-0.5c-1.4,2.4-3.5,4.4-6,5.7
	c0.3,1.6,0.5,3.2,0.6,4.9c0.2,3-1.5,7.3-4.9,9.2c-1.6,0.9-2.4,1.7-3,5.8c-0.5,3.2,0.2,5.1,2.9,8.3c0.4,0.5,0.9,1,1.4,1.5
	c2.1,2.3,4.9,5.3,6,9.7l2.6,1.5c2.5,1.5,5,2.9,7.4,4.5c3.4,2.2,3.8,6.4,3.8,8c0.1,5.8,0.1,11.5,0,17.2l3.6,0.3l-1.2,9.5
	c-0.4,2-0.7,3.9-0.9,5.8C215.1,344.2,215.2,344.3,215.2,344.3L215.2,344.3z M351.1,333.9L351.1,333.9z M200.4,300.3L200.4,300.3z
	 M261.6,280.1L261.6,280.1z M184.9,263.4c0,0,0,0.1,0,0.1C184.9,263.5,184.9,263.4,184.9,263.4z M235.4,263.3L235.4,263.3z
	 M337.2,256.3L337.2,256.3z M318.8,255.6L318.8,255.6L318.8,255.6z M145.9,230.1c0.6,1.5,1.4,2.3,3.7,2.9c-1.4-3.1-1.4-6.6,0-9.6
	c0.4-0.8,0.7-1.7,1-2.6c1-2.7,2.2-6,4.8-8.5c3.7-3.5,8.3-5.9,13.4-6.8c4-0.6,8-0.7,12-0.4c1.6,0.1,3.2,0.1,4.8,0.1h2.2
	c1.5-1.9,3.3-3.5,5.4-4.8l0.9-0.6c1.2-0.9,2.5-1.7,3.8-2.5c0.2-0.1,0.6-0.4,0.9-0.6c0-0.2,0-0.4,0.1-0.6c-1.4,0.1-2.7,0-4.1-0.2
	l-6.6-0.7l0.2-1.5c-2.5-0.2-4.9-1.5-6.4-3.6c-1.3-1.9-1.7-4.3-1.3-6.5l-1.8-0.1l2.5-7.7c0.1-0.2,0.1-0.4,0.2-0.6h-0.2l-3.9,0.1
	l-8-16l22.2-4c0-0.5,0-1,0-1.5c0.2-3.6,2.3-6.8,5.5-8.6l0.3-0.2h-17.2l0.6,0.6l-0.7,4.5l0,0c-1.2,4.2-3.2,6.2-6.3,6.4
	c-1.9,0.2-3.9,0.1-5.9,0.1h-7.3l-1.3-12.2l0.4-0.1c-0.2-0.6-0.2-1.3-0.3-1.9c0-0.8,0.1-1.5,0.2-2.3l0.1-0.4l-12.7,0.6l15.7-12.1
	c45.6-35.2,126.5-43.9,186.7,9.2l5.7,5l-4.5,3.5l6.9-0.3l2.8,2.2l8.4,9.5c-23.1-30.3-54.2-49-93-55.7c-47.3-8.2-89.8,4.1-126.2,36.3
	c-9.7,8.5-18.2,18.3-25.4,29v28.1c0,0.8,0,1.6-0.1,2.4v0.1c1.3,0.5,2.5,1.4,3.4,2.4l6-0.5l2.1,2.3c1.3,1.2,2,2.8,2.1,4.5
	c0.1,4.9,2.9,8.9,6.7,14C147.1,224.2,146.9,227.6,145.9,230.1z M145.2,231.5L145.2,231.5z M288.9,228.8l0.3-0.1
	C289.1,228.7,289,228.7,288.9,228.8L288.9,228.8z M211.1,196.6L211.1,196.6C211.1,196.6,211.1,196.6,211.1,196.6L211.1,196.6z
	 M385,183.4l4.4,9.4C388.1,189.7,386.6,186.5,385,183.4z M316.3,192.1L316.3,192.1z M315.1,191.4h1.6c1.2,0.1,2.4,0,3.6-0.2
	c0,0,0.1-0.3,0.3-0.8c0.1-0.2,0.1-0.4,0.2-0.7h-6.7c0,0.4,0,0.9,0.1,1.3l0.7,0.4C315,191.5,315,191.4,315.1,191.4z M340.1,190.4
	c-0.3,0.1-0.7,0.3-1,0.4l1.4-0.1L340.1,190.4z M378.9,185.4v-0.2V185.4z M208.4,183.7l0.1,0.1c0.5-0.4,0.9-0.8,1.4-1.2
	c-0.1-0.1-0.1-0.2-0.2-0.3c-0.2-0.4-0.6-0.7-0.9-0.9C208.7,182.1,208.6,182.9,208.4,183.7z M350.4,172.9c2-0.1,4,0.4,5.8,1.4
	c2.4,1.5,4.6,3.3,6.5,5.4l1.5,1.5c0.7,0.6,1.2,1.4,1.6,2.3c1.5-1,3.1-1.7,4.9-2l1.2-0.2v-0.8l9.8-2.2l2.7,4.1
	c-0.4-0.7-0.7-1.4-1.1-2.1l0,0c-4.2-7.8-9-15.3-14.4-22.3l-1.2,3.4c-3.2,9-9.8,9.2-13.4,8.5c-0.1,0-0.2,0-0.3,0l0,0.4h-10
	c-1.9,0-3.8,0-5.7,0c-1.5,3.1-4,5.6-7.1,7.2l-0.4,1.7c1.5-0.5,3-0.6,4.5-0.4l0.7-0.6l5.3-4.9v-0.5h0.5l1.8-1.6l0.7,1.7l3.2,0.2
	c0.4,0,0.8,0,1.2,0C349.3,172.9,349.8,172.9,350.4,172.9L350.4,172.9z M208.1,177c2.1,0.4,4.1,1.3,5.7,2.6c1.2-0.8,2.5-1.5,3.8-2.1
	c1-0.8,1.9-1.7,2.7-2.8c0.5-0.6,0.9-1.1,1.4-1.7c0.6-0.7,1.3-1.3,2-1.9c0-0.2,0-0.3,0-0.5c0.3-2.9,2.8-7,6.7-7.6l0.7-9.1l-1.5-0.4
	c0,0.8,0,1.5,0.1,2.3c0.6,5.9-2.6,10.2-8.2,10.9c-1.4,0.2-1.5,0.5-1.7,1.3c-0.6,2.5-2.2,4.6-4.4,5.8c-2.3,1.2-5.1,1.4-7.6,0.5
	l-0.2-0.1L208.1,177z M194,167c1.2,0,2.4,0.1,3.5,0.4c2.3,0.5,4.4,1.8,5.7,3.8v-4.8l-0.7-0.2c-2.5-0.7-4.8-1.7-6.9-3.2
	c-1.6-1.2-2.8-2.9-3.5-4.8l-0.1,4.6c0,1.5-0.2,3-0.6,4.4C192.3,167.1,193.1,167,194,167z M239.4,166L239.4,166z M240,165.7l0.1,0.1
	C240.1,165.7,240.1,165.6,240,165.7C240,165.6,240,165.6,240,165.7L240,165.7z M235.2,163.4c1.7,0.3,3.3,1.1,4.6,2.1
	c1-0.8,2.2-1.4,3.5-1.6c-0.5-0.9-1-1.8-1.3-2.8l-1,0.3L235.2,163.4z M217.2,154.8l-1.5,0.8c0.5-0.2,1-0.4,1.5-0.5
	C217.2,155,217.2,154.9,217.2,154.8L217.2,154.8z M206.5,154.4c0.7,0.2,1.4,0.3,2.2,0.4l4.3,0.7l-1.1-3.9L206.5,154.4z M227.3,153.2
	L227.3,153.2z M342.7,151.8L342.7,151.8l4.8-1.7l-0.4-1.5c-1,0.8-2,1.6-3.1,2.3C343.7,151.3,343.2,151.5,342.7,151.8L342.7,151.8z
	 M229.7,151.8L229.7,151.8z"/>
<path class="st2" d="M319.5,161.4c1,0.9,2,1.9,3.4,3.3c-4.7,1.6-4.7,1.6-4.3,6c7.4,0.9,9.9,0.1,11.7-3.8c-5.6-2.3-6.8-7.6-8-12.6
	c-0.6,0-1,0-1.2,0.1c-2.1,0.2-4.1,0.5-4.7,3.1S318.2,160.3,319.5,161.4z"/>
<path class="st2" d="M323,177.3c-1.7,0-3.4-0.1-5.1-0.4l-5.1-0.6l-0.4-5.1c-0.3-2.3-0.1-4.6,0.6-6.8c-2.4-2-3.4-5.2-2.7-8.3
	c1.5-6.9,7.9-7.7,10-8l1.1-0.1l5.3-0.4l1.8,5.1c1.3,5.3,2,7.4,4.3,8.3l6,2.5l-2.8,6C333.1,175.8,328.1,177.3,323,177.3z"/>
<path class="st2" d="M316.6,165.6c1-0.9,1.4-2.2,1.3-3.5c-0.2-0.7-2.1-1.4-3.3-1.4c-3.7,0.2-6.3,4-5.6,8.1
	C312.5,169.8,314.4,167.3,316.6,165.6z"/>
<path class="st2" d="M310.5,175.3c-1.1,0-2.2-0.2-3.2-0.5l-3.9-1.1l-0.6-3.9c-0.6-3.8,0.4-7.8,2.8-10.8c2.1-2.7,5.3-4.3,8.7-4.5
	c2.6-0.1,8.5,1.2,9.7,6.2c0.7,3.7-0.7,7.6-3.6,10c-0.3,0.2-0.6,0.5-0.9,0.8C317.8,172.8,314.8,175.3,310.5,175.3z M312.9,160.6
	L312.9,160.6z"/>
<path class="st2" d="M238.4,178.4c-1.7,0.9-3.4,1.9-5,2.9c0,1.2,1.1,2.1,2.3,2.1c0.4,0,0.8-0.1,1.2-0.4c1.9-1,3.3-2.8,4.9-4.3
	C240.7,178.2,239.5,178.1,238.4,178.4z"/>
<path class="st2" d="M235.4,189.6c-1.4,0-2.8-0.3-4-1c-2.5-1.4-4.1-3.9-4.4-6.7l-0.4-3.9l5.1-3c1.3-0.8,2.6-1.6,4-2.2l0,0
	c2.6-1,5.5-0.9,8,0.2l9.4,3.6l-7.5,6.8c-0.4,0.4-0.8,0.8-1.2,1.2c-1.4,1.6-3.1,2.9-5,4C238.3,189.3,236.9,189.6,235.4,189.6z
	 M240.9,184.1L240.9,184.1z"/>
</svg>
