<?xml version="1.0" encoding="utf-8"?>
<!-- Generator: Adobe Illustrator 22.1.0, SVG Export Plug-In . SVG Version: 6.00 Build 0)  -->
<svg version="1.1" xmlns="http://www.w3.org/2000/svg" xmlns:xlink="http://www.w3.org/1999/xlink" x="0px" y="0px"
	 viewBox="0 0 500 500" style="enable-background:new 0 0 500 500;" xml:space="preserve">
<style type="text/css">
	.st0{fill:#FFFFFF;}
	.st1{fill:#ECF3FF;}
	.st2{fill:#C8DBFB;}
	.st3{fill:none;stroke:#C8DBFB;stroke-linecap:round;stroke-linejoin:round;}
	.st4{fill:none;stroke:#C8DBFB;stroke-linecap:round;stroke-linejoin:round;stroke-dasharray:3.9929,3.9929;}
	.st5{fill:#5193F4;}
	.st6{fill:#002139;}
	.st7{fill:none;stroke:#0B43A4;stroke-linecap:round;stroke-linejoin:round;stroke-miterlimit:10;}
	.st8{fill:#00AD9F;}
	.st9{fill:none;stroke:#00AD9F;stroke-linecap:round;stroke-linejoin:round;stroke-miterlimit:10;}
	.st10{fill:#52D2BC;}
	.st11{opacity:0.2;fill:#5275A0;}
	.st12{fill:#7EE8D4;}
	.st13{fill:#4A49CA;}
	.st14{fill:none;stroke:#0B43A4;stroke-linecap:round;stroke-linejoin:round;stroke-miterlimit:10;stroke-dasharray:4;}
	.st15{fill:none;stroke:#C8DBFB;stroke-linecap:round;stroke-linejoin:round;stroke-miterlimit:10;stroke-dasharray:4;}
	.st16{fill:#0B43A4;}
	.st17{fill:#0056EC;}
	.st18{fill:#0C2340;}
	.st19{fill:#EF832B;}
	.st20{fill:#FFB9A3;}
	.st21{fill:#047F76;}
	.st22{fill:#009790;}
	.st23{fill:#D8742A;}
</style>
<g id="BACKGROUND">
	<rect class="st0" width="500" height="500"/>
	<g>
		<path class="st1" d="M112.4,94.7c15.6,1,22.2-9.6,29.5-23.3c20.1-37.5,64.8-33.9,79.8-10.8c10.6,16.4,33.6,13,52.1,6.6
			c18.3-6.3,49.4-12.4,74.1-4.8c21.6,6.6,30.5,30.3,50.2,28.8c43-3.2,64.7,39.3,56.9,57.8c-5.1,12.1-7.6,25.6-3.5,38.1
			c4.6,13.7,15,24.6,23.4,36.3c8.4,11.8,15.2,26.5,11,40.3c-3.6,11.8-14.2,20-20.9,30.5c-20.6,32.5-0.2,82.2-27.6,109.3
			c-19.6,19.4-51.6,14.9-79.1,18.6c-22.9,3.1-44.4,12.7-67.2,16.5c-46.1,7.6-92.8-9.2-139.5-9.6c-16.5-0.2-33.3,1.7-49.2-2.4
			c-21.3-5.4-39.4-21.8-46.8-42.3c-10.2-28.3-0.5-61.1-12.1-88.9c-9.4-22.6-32.3-41.1-30.9-65.5c0.9-15.2,11.3-27.9,18.4-41.4
			C41.8,168.4,27.8,89.1,112.4,94.7z M248.6,58c-4.1,0-7.4,2.5-7.4,5.7c0,3.1,3.3,5.4,7.4,5.7c13.3,0.9,13.3-4.5,13.3-7.7
			C261.9,56.7,252.7,58,248.6,58z M384.2,82.3c3.6,2.9,8.1,4.7,12.8,5c1.2,0.1,2.6,0,3.5-0.8c1.2-1,1.3-3,0.3-4.1
			c-0.7-0.7-1.6-1-2.5-1.4c-1.5-0.6-3-1.5-3.9-2.9c-0.3-0.4-0.5-0.9-0.9-1.1C390.9,75.5,379.5,78.4,384.2,82.3z M406.9,87.3
			c1.2,0.4,2.5,0,3.6-0.4c0.8-0.2,1.7-0.8,1.5-1.6c-0.1-0.4-0.4-0.6-0.8-0.8c-1.6-0.8-3.6-1.4-5.1-0.4
			C404.5,85.3,405.7,86.9,406.9,87.3z M461.2,194.6c0.2,1.8,1.3,3.3,2.4,4.7c2,2.8,4.1,5.6,6.8,7.8c1.1,0.9,2.5,1.7,3.9,1.8
			c1.3,0,2.6-0.6,3.7-1.3c2.6-1.9,4.4-4.9,4.8-8.1c0.5-4.4-1.5-8.7-3.9-12.4c-1.5-2.3-3.2-4.6-5.7-5.9c-4.1-2.1-6.9-0.3-8,3.4
			C464.1,187.9,460.8,190.8,461.2,194.6z M20.8,297.1c-2.2,1.9-0.2,7.5,0.4,11.2c0.2,1.1,0.5,2.3,1.2,3.2c1,1.2,2.6,1.7,4.1,2.1
			c2.7,0.8,5.9,1.4,7.9-0.4c1.5-1.4,1.7-3.6,1.7-5.7c0-1.9-0.1-3.7-0.3-5.6c-0.1-0.9-0.2-1.8-0.7-2.6c-0.6-1-1.7-1.5-2.7-2
			C28.5,295.8,23,295.2,20.8,297.1z M154,437.8c-1.3,0.3-2.8,0.8-3,2.1c-0.2,1.1,0.7,2,1.6,2.6c7.1,5.3,16.7,5.6,25.6,5.8
			c1,0,2.1,0,3.1-0.4c1.9-0.8,2.8-3.3,1.9-5.2c-0.3-0.7-0.8-1.2-1.4-1.8C174.7,434.1,162.9,436.1,154,437.8z M331.7,434.3
			c-8,5.9,0.1,11.1,10.2,7.2c5.5-2.1,10.7-4.2,16.3-5.6c1.8-0.5,12.7-2.8,12.7-5.3c0-6.5-12.3-5-20.1-3.9
			C344.7,427.6,338.3,429.4,331.7,434.3z"/>
	</g>
</g>
<g id="OBJECTS">
	<g>
		<ellipse class="st2" cx="180.8" cy="413.7" rx="38.6" ry="3.6"/>
		<ellipse class="st2" cx="379.4" cy="413.7" rx="38.6" ry="3.6"/>
		<g>
			<g>
				<g>
					<path class="st3" d="M461,159.5c-0.1-0.7-0.2-1.3-0.4-2"/>
					<path class="st4" d="M459.7,153.6c-6.9-23.5-28.9-21.2-48.7-21.2c-21.4,0-352.5,0.7-352.5,0.7c-33.3,0.1-30.1,48.1-4,48.1
						c15,0,20.7,28.1-5.2,28.2c-15.5,0-16,19.7-5.6,23.7"/>
					<path class="st3" d="M45.6,233.6c0.6,0.1,1.3,0.2,2,0.2"/>
				</g>
			</g>
			<path class="st5" d="M51.6,232.8c0.4,2.6-1.3,5.1-3.9,5.5c-2.6,0.4-5.1-1.3-5.5-3.9c-0.4-2.6,1.3-5.1,3.9-5.5
				C48.7,228.5,51.2,230.2,51.6,232.8z"/>
			<path class="st5" d="M465.7,161.6c-0.5,2.6-3,4.3-5.6,3.9c-2.6-0.5-4.3-3-3.9-5.6c0.5-2.6,3-4.3,5.6-3.9
				C464.5,156.5,466.2,159,465.7,161.6z"/>
		</g>
		<g>
			<g>
				<path class="st6" d="M100.4,197.8c-0.7,3.9-1.7,7.7-2.9,11.4c-2.6,8.1-6.3,15.9-10,23.6c-1.9,4-9.8,13.3-14,15.1
					c0.5-10.5,0.5-22.7-0.7-33.3c-1.2-10.2,2.5-17.9-1.5-27.4c-0.5-1.2-1-2.4-1.6-3.6c-2-4.5-4-9-4.6-13.9
					c-0.8-6.1,1.1-13.2,6.4-16.4c3.8-2.3,8.8-2.2,12.9-0.4c4.1,1.8,7.4,5.1,9.9,8.8C101.4,172.2,102.6,185.6,100.4,197.8z"/>
				<path class="st7" d="M81.8,163.9c7.8,11.1,8.5,23.9,9.2,37.5c0.7,13.5-2.6,27.2-9.3,39"/>
			</g>
			<g>
				<path class="st8" d="M81.5,367.8c-5.5-4.8-11-9.8-15.1-15.9c-3.5-5.3-5.8-11.3-8.9-16.9c-2-3.6-4.3-7.1-5.5-11.1
					c-1.2-4-0.9-8.7,1.9-11.7c2.9-3.1,8-3.6,12-2c4,1.6,7,5,9.4,8.6c3.1,4.8,5.2,10.3,6,15.9c0.8,5.1,0.6,10.4,1.4,15.5
					c0.7,4.8,2.3,9.4,4.4,13.7c1.8,4,6.5,11,7.7,15.1C91.5,380.8,83.9,369.9,81.5,367.8z"/>
				<path class="st9" d="M62.3,317.6c5.2,2.3,7.3,8.5,8.4,14.1c1.2,6.4,1,13.3,3.9,19c5.5,10.9,12.7,23.3,18,27"/>
			</g>
			<g>
				<path class="st6" d="M54.5,352.9c-4.6-1.8-10.6-2.5-13.6,1.4c-2.4,3.3-1.2,8,0.5,11.7c1.4,3.2,3.2,6.4,6.2,8.1
					c2.1,1.2,4.5,1.5,6.8,1.8c6.5,0.8,13.1,1.2,19.7,1.1c7.6,0,16.9,3.1,23.2,7.9C89.4,369.8,69.8,359,54.5,352.9z"/>
				<path class="st7" d="M46.5,362.7c5.8,0.2,11.6,0.7,17.2,2.3c5.7,1.7,27.6,11.7,31,16"/>
			</g>
			<g>
				<path class="st10" d="M104.2,322c-5.9-9.3-16.1-15.8-27-17.2c-8.1-1.1-16.4,0.4-24.3-1.3c-8.4-1.8-15.9-7.1-20.3-14.5
					c-4.4-7.3-5.5-16.5-3-24.7c1.9-6.2,6.1-12.1,12.3-14.1c3.4-1.1,7.1-0.9,10.5-0.1c3.2,0.8,6.1,2.1,8.8,3.8
					c6.2,3.9,11.2,10,15,16.4c3.4,5.9,11.9,15,17.7,20.9c3.4,3.5,5.8,5.8,5.8,5.8C103.7,302,101.9,316.1,104.2,322z"/>
				<path class="st9" d="M40.1,268.2c19.4,8.7,40.5,20.2,54.2,36.4"/>
			</g>
			<g>
				<path class="st11" d="M96.2,302.4c0,0-28.9-23.4-34.9-48.5c6.2,3.9,11.2,10,15,16.4c3.4,5.9,11.9,15,17.7,20.9
					C94.6,294.4,95.4,298,96.2,302.4z"/>
				<path class="st11" d="M97.5,209.3c-2.6,8.1-6.3,15.9-10,23.6c-1.9,4-9.8,13.3-14,15.1c0.5-10.5,0.5-22.7-0.7-33.3
					c-1.2-10.2,2.5-17.9-1.5-27.4c-0.5-1.2-1-2.4-1.6-3.6c0.4,0.1,0.7,0.2,1.1,0.4c6.6,2.8,9.6,9.8,10.2,16.5
					c0.5,5.6-0.5,11.2-1.3,16.7c-0.3,2.6-0.6,5.2-0.1,7.7c0,0,0,0.1,0,0.1c0.7,3,5.1,2.8,5.6-0.2l1.8-9.3c0.5-2.8,1.1-5.7,3.4-7.6
					c0.9-0.8,2.1-1.2,3.2-1.2C95.6,206.8,96.7,207.9,97.5,209.3z"/>
				<path class="st12" d="M96.2,296.5c-4.6-23.8-7-27.5-5-33.4c2.6-7.6,1.1-15.3,3.5-22.9c2.4-7.7,4.1-15.9,2.1-23.7
					c-0.6-2.5-1.9-5.1-4.8-5.2c-1.2,0-2.3,0.4-3.2,1.2c-2.3,1.9-2.9,4.9-3.4,7.6l-1.7,9.3c-0.6,3-4.9,3.2-5.6,0.2c0,0,0-0.1,0-0.1
					c-0.6-2.5-0.3-5.1,0.1-7.7c0.7-5.6,1.8-11.1,1.3-16.7c-0.6-6.8-3.6-13.7-10.2-16.5c-2.3-1-5-1.2-7.4-0.6
					c-6.9,1.8-8.7,8.5-7.6,14.2c0.7,4,2.6,7.7,4.3,11.5c4.2,9.1,1.1,17.4,1.7,27.4C61.8,268.7,96.2,296.5,96.2,296.5z"/>
				<path class="st9" d="M65.5,195.2c3.4,16.9,6.8,34,13.4,50c1.9,4.7,2.9,10.8,14,23.6"/>
			</g>
			<g>
				<path class="st6" d="M197.8,199.5c-3.5-4-6.8-8.1-10.2-12c-2.2-2.5-4.5-5-7-7.4c-1.2-1.2-2.5-2.3-3.8-3.4
					c-7.9-6.5-16.8-12-26.2-16c-5.7-2.4-11.7-4.4-16.6-8.3c-4.8-3.9-8.3-10.3-6.7-16.2c1.2-4.3,4.8-7.7,9.1-9.2
					c4.2-1.5,8.9-1.4,13.2-0.5c12.2,2.6,22.4,11.4,29.3,21.8c0.1,0.2,0.2,0.4,0.4,0.6c5.1,7.8,8.6,16.4,11.7,25.1
					c1,2.8,1.9,5.7,2.9,8.5C195.3,186.6,199.6,195.3,197.8,199.5z"/>
				<path class="st7" d="M142,136.6c13.3,2.5,22.7,11.4,32.6,20.6s17,21.4,20.4,34.5"/>
			</g>
			<g>
				<path class="st11" d="M187.6,187.5c-0.1,1.4-0.1,2.8,0.2,4.2c-3.3-0.8-5.6-5.9-7.2-11.6c-1.5-5.5-2.2-11.4-2.5-14.1
					c-0.4-5.8-0.1-11.6,1.1-17.3c5.1,7.8,8.6,16.4,11.7,25.1c-1.1,3.2-2,6.3-2.7,9.6C188,184.8,187.7,186.1,187.6,187.5z"/>
				<path class="st10" d="M210.7,139.5c-1.1,5-4.1,9.3-6.8,13.7c-1.4,2.3-2.7,4.7-3.9,7.1c-3.9,7.7-6.9,15.8-8.9,24.2
					c-0.6,2.8-1,5.4-0.5,8.2c-6.6-1.5-9.2-20.1-9.6-25.7c-0.8-10,0.9-20.2,5-29.4c1.8-4,4.1-8,7.7-10.5c3.6-2.6,8.6-3.5,12.4-1.2
					c2.3,1.3,3.7,3.6,4.4,6.1C211.2,134.4,211.3,137,210.7,139.5z"/>
				<path class="st9" d="M188.1,187.2c-4.1-10.2-1.6-31.9,4.9-45.6c2-4.1,4.8-8,8.7-10.3"/>
			</g>
			<g>
				<path class="st11" d="M210.7,139.5c-1.1,5-4.1,9.3-6.8,13.7c-1.4,2.3-2.7,4.7-3.9,7.1c-1.8-3-3-6.4-3.4-9.8
					c-0.6-5.8,1.7-12,6.4-15.5c2.2-1.6,4.8-2.5,7.5-2.9C211.2,134.4,211.3,137,210.7,139.5z"/>
				<path class="st8" d="M248.6,182.9c-0.3,1.9-0.9,3.7-1.7,5.5c-2.9,6.3-9,11.7-18.2,16.1c0,0-0.5-10-0.6-12.6
					c-0.4-11.4-12.8-17.7-20.7-26.1c-4-4.2-7-9.6-7.6-15.4c-0.6-5.8,1.7-12,6.4-15.5c4-2.9,9.1-3.5,14-3.1
					c7.9,0.6,15.8,3.9,20.7,10.1c0.2,0.2,0.4,0.5,0.6,0.7c3,4.1,4.5,9.1,5.7,14C249.1,165.2,250,174.2,248.6,182.9z"/>
				<path class="st9" d="M209.6,141.1c8.6,4.4,17.2,9.8,22.2,18.1c7,11.5,5.4,26.5,0.1,38.9"/>
			</g>
			<g>
				<path class="st10" d="M392.1,256.5c5.5-9,2.7-20.6,4.6-30.9c1.5-8,5.9-15.3,12.2-20.4c4-3.2,9.6-5.4,14.1-3
					c1,0.5,2.1,1.2,3.1,0.7c0.6-0.3,0.8-1,0.9-1.7c1.1-5.6-1.5-11.7,0.6-17c1.2-2.8,3.6-5,6.2-6.6c5-3.2,10.8-5,16.8-5.3
					c1.6-0.1,3.2,0,4.6,0.7c2.5,1.3,3.7,4.4,3.4,7.3c-0.3,2.8-1.9,5.3-3.6,7.6c-5.7,7.5-14.2,14-15.3,23.4c-0.1,1.2-0.1,2.4,0.4,3.5
					c0.5,1,1.5,1.8,2.1,2.8c1.8,3.2-1.6,6.9-5,8.5c-3,1.5-6.4,2.4-9.7,2.7c-2.3,0.2-4.9,0.3-6.5,2c-2.9,3.2,0.4,8.2-0.2,12.5
					c-0.4,2.7-2.3,4.8-4.2,6.6c-3.6,3.4-7.5,6.5-11.7,9.2c-3.4,2.2-7,4.1-10,6.8c-3,2.7-5.4,6.3-5.6,10.3"/>
				<path class="st9" d="M399.3,247.8c0.9-4.4,2.9-8.4,4.9-12.4c3.1-6.2,6.3-12.5,11.1-17.6c3.6-3.9,8-6.9,11.7-10.7
					c2.6-2.7,4.8-5.8,6.6-9.1c0.9-1.8,1.8-3.7,3-5.3c1.5-1.9,3.6-3.2,5.4-4.9c2.4-2.2,4.4-4.9,5.7-7.9"/>
			</g>
			<g>
				<path class="st6" d="M470.6,262.8c-1.2,4.7-3.1,9.4-6.2,13.2c-2.2,2.6-4.9,4.6-7.8,6.3c-1.5,0.9-3.1,1.6-4.7,2.3
					c-6.3,2.6-13,4.1-19.8,4.4c-9.9,0.4-20-1.8-29.5,1c-4.4,1.3-8.4,3.6-11.6,6.8c-2.1,1.9-3.8,4.2-5.2,6.6l1.3-8.2
					c2.4-8.8,4.8-17.8,9.7-25.5c3.1-5,7.2-9.4,11.6-13.4c7-6.4,14.7-12.1,23.2-16.2c6.9-3.3,14.5-5.7,22.1-4.8
					c7.6,0.9,15,5.7,17.4,13C472.5,252.9,471.8,258,470.6,262.8z"/>
				<path class="st7" d="M393.4,288.9c7.3-10.7,18.1-19,30.4-23.1c7.7-2.6,15.8-3.5,23.5-5.8c7.8-2.2,15.5-6,20.1-12.7"/>
			</g>
			<g>
				<path class="st10" d="M398.2,367.6c0.4-11,6.1-21.2,13.1-29.8c5.8-7.2,12.7-13.7,21.3-17c2.7-1,5.7-1.7,8.5-1
					c2.8,0.7,5.3,3.1,5.4,6c0,2.4-1.6,4.6-3.3,6.3c-5.7,5.7-13,9.3-19.8,13.4c-11.8,7.1-23,16.6-27.7,29.6"/>
				<path class="st9" d="M402.5,358c7.2-16.1,25.8-30.4,38.1-32.2"/>
			</g>
			<g>
				<path class="st8" d="M393.7,376.4c-0.1-1.8,5.9-6.7,7.3-7.9c7.5-6.8,16.5-11.8,25.9-14.8c3.8-1.2,7.9-2.1,11.7-1.1
					c3.8,0.9,7.3,4.1,7.7,8.2c0.4,4-2.3,7.9-5.7,9.9c-3.4,1.9-7.4,2.2-11.3,2c-5.9-0.3-11.7-1.8-17.6-1.8S397.4,371.5,393.7,376.4z"
					/>
				<path class="st9" d="M399.8,370.8c12.1-6.6,30.4-10.8,43.7-9.2"/>
			</g>
			<g>
				<path class="st11" d="M248.6,182.9c-0.3,1.9-0.9,3.7-1.7,5.5c-4.2-9-8-20.8-8.9-35.2c-0.2-3.9,0.8-7.9,2.9-11.3
					c0.2,0.2,0.4,0.5,0.6,0.7c3,4.1,4.5,9.1,5.7,14C249.1,165.2,250,174.2,248.6,182.9z"/>
				<path class="st12" d="M290.5,182.4c9-3.2,18.4-5.8,26.7-10.7c2.5-1.5,4.9-3.2,6.6-5.5c1.8-2.3,2.8-5.2,2.5-8.1
					c-0.4-2.9-2.3-5.7-1.6-8.6c0.4-1.9,1.8-3.4,2.9-5c2.6-3.8,3.4-8.8,2-13.3c-1.4-4.8-5-8.6-7-13.1c-1.7-3.7-2.3-7.9-1.7-11.9
					c-7.6,0.1-14.5,4.2-22,5.6c-5.7,1.1-11.6,0.5-17.3,1.8c-10.3,2.4-18.7,11.4-20.3,21.9c-4.8-0.8-9.9,0.9-13.3,4.4
					c-3.5,3.8-5.5,9.1-5.2,14.3c2.3,37.4,23.8,57,23.8,57S287,183.6,290.5,182.4z"/>
				<g>
					<path class="st9" d="M270.2,182.1c-0.9-9.2,2.3-18.4,6-26.9c3.6-8.3,7.8-16.4,13.3-23.5c5.6-7.1,12.7-13.2,21-16.7"/>
					<path class="st9" d="M278.3,120.7c-0.9,8.2-0.3,18.1,1.9,26.2"/>
					<path class="st9" d="M281.7,143.9c9.4-6,23.9-9.7,35-9.1"/>
					<path class="st9" d="M258.7,145.4c11.3,4.8,11.8,21.4,12.1,26.1"/>
					<path class="st9" d="M273.9,161c8.7-6.2,21.2-8.1,30.4-5.8"/>
					<path class="st9" d="M297.5,116.4c-2.6,3.2-3.3,7-3,9.7"/>
					<path class="st9" d="M297,123.8c4-2,9.3-2.5,15-1.1"/>
				</g>
			</g>
			<g>
				<path class="st13" d="M74.3,141.9c1.1-0.1,8.3-5.4,11.1-7.2c0.8-0.5,1.6-1,2.1-1.8c0.5-0.8,0.8-1.8,0.4-2.6
					c-0.5-1.1-1.3-2.1-3.4-2.1c-3.6,0-4.9,1.2-6.6,3C72.1,137.1,74.3,141.9,74.3,141.9z"/>
				<path class="st13" d="M106.8,163.5c3.2,1.4,6.5,2.8,10,2.4c1.3-0.2,2.8-0.8,3.2-2c0.4-1.1-0.1-2.3-1-3.1c-0.9-0.8-2-1.1-3.1-1.4
					c-4.2-1-10.1-0.5-14.3,0.7C101.6,160.1,104.9,162.7,106.8,163.5z"/>
				<path class="st13" d="M127.6,116.9c-1.4-0.9-3-2.1-3-3.7c0-1.7,1.7-2.9,3.4-3c1.7,0,3.2,0.9,4.5,2c5.3,4.7,4.7,10,4.7,10
					S129.2,117.9,127.6,116.9z"/>
				<path class="st13" d="M131.8,102.6c-1.2-0.5-2.5-1.2-3.2-2.3c-0.4-0.6-0.6-1.3-0.3-1.9c0.4-1,1-2,3.6-1.5c8.2,1.5,10,7.1,10,7.1
					S134,103.6,131.8,102.6z"/>
				<path class="st13" d="M156,115.1c3.3-0.3,6.7-1.9,8.8-4.5c0.8-1,1.5-2.1,1.8-3.3c0.3-1.2,0-2.6-1-3.5c-1.2-1-3-0.8-4.3,0
					c-1.3,0.8-2.1,2.2-2.8,3.6C157.7,109.3,156,115.1,156,115.1z"/>
				<path class="st7" d="M96.9,235.8c-8-7.1-16-14.1-24-21.2c-4.3-3.8-8.6-7.6-11.3-12.6c-5.8-10.8-2.5-24.8,5.4-34.1
					c7.9-9.4,19.4-14.9,30.9-19c11.6-4,23.6-6.9,34.6-12.2c6.9-3.3,13.9-8.3,15.7-15.8c1.1-4.5,0.2-9.4-2.5-13.2
					c-2.7-3.7-7.2-6.1-11.8-6.4"/>
				<path class="st7" d="M161.6,107.5c-2.2,6.7-10.7,10.8-14.6,16.6"/>
				<path class="st7" d="M131,115.2c1.7,1.8,3.7,3.2,5.2,5.2c3.1,4.1,3.4,10.8-1.2,15"/>
				<path class="st7" d="M87.8,152.8c7.1,5.4,16.4,9.1,25.3,9.4"/>
				<path class="st7" d="M71.6,162.7c-3.3-9.6,0.3-21.1,8.4-27.2"/>
			</g>
			<g>
				<path class="st13" d="M330,122.2c-0.4-1.2-0.4-2.6,0.5-3.5c0.7-0.7,1.9-1,2.8-0.6c7,3.1,6.3,14.1,6.3,14.1
					S332.9,131.1,330,122.2z"/>
				<path class="st13" d="M329.9,142.7c-4.5,8.2,11.6,7.6,17.4,2.8C347.3,145.5,333.8,135.7,329.9,142.7z"/>
				<path class="st13" d="M350.3,122.8c-1.1-1.5-1.5-3.7-0.3-5.2c0.9-1.1,2.4-1.4,3.8-1.1c1.4,0.3,3.4,1.5,4.3,2.6
					c5.3,6.6,2.8,13.1,2.8,13.1S352.1,125.3,350.3,122.8z"/>
				<path class="st13" d="M414.5,143.2c-0.4-1.3-0.3-2.8,0.7-3.7c0.6-0.6,1.5-0.8,2.4-0.7c0.8,0.1,1.6,0.4,2.4,0.7
					c1.6,0.8,2.9,2.1,3.7,3.7c2,4.1,0.6,9.2,0.6,9.2S415.5,146.4,414.5,143.2z"/>
				<path class="st13" d="M394.3,158.2c-2.9-2.5-7.2-3.3-10.7-1.7c-0.9,0.4-1.7,0.9-2.3,1.7c-1.3,1.8-0.8,4.3,0.5,6.1
					c1.3,1.7,3.3,2.8,5.3,3.7c3.6,1.6,9.2,2,13,2.9C400.1,170.9,400.1,163.3,394.3,158.2z"/>
				<path class="st7" d="M335.1,124c2.4,7.8,9.1,13.7,16.6,16.8c7.5,3.2,15.7,4,23.9,4.5c8.1,0.5,16.3,0.8,24.2,2.9
					c7.7,2.1,15.3,6.4,18.6,13.6c4,8.8,0.5,19.3-5.2,27.1c-5.6,7.9-13.2,14.2-18.6,22.2c-2.5,3.7-4.6,8-4.1,12.4
					c0.7,5.9,5.6,10.2,10.2,13.9"/>
				<path class="st7" d="M353.8,121.1c5.4,6,9.7,15.3,10.7,23.2"/>
				<path class="st7" d="M335.7,144.1c3.1,0.8,6.2,1.6,9.4,1.6c3.2,0,6.9-1.8,9.2-4"/>
				<path class="st7" d="M419.8,143.6c2.9,2.8,4.6,6.7,4.8,10.7c0.1,4-2.1,8.9-4.7,11.9"/>
				<path class="st7" d="M389.6,161.8c5.8,5.3,10.8,9.6,17.2,14.1c2.9,2.1,8.7,4.7,11.3,4"/>
			</g>
			<g>
				<path class="st11" d="M456.5,282.3c-1.5,0.9-3.1,1.6-4.7,2.3c-6.3,2.6-13,4.1-19.8,4.4c-9.9,0.4-20-1.8-29.5,1
					c-4.4,1.3-8.4,3.6-11.6,6.8c-0.3,0.2-0.7,0.3-1,0.5c-0.8-6.7,15.9-15.4,21-17.7c9.1-4.1,19.4-5.9,29.4-5.1
					c4.4,0.4,8.9,1.2,12.5,3.7C454.2,279.2,455.6,280.6,456.5,282.3z"/>
				<path class="st10" d="M440.2,278.4c4.4,0.3,8.9,1.2,12.5,3.7c3.6,2.5,6.2,6.9,5.3,11.3c-1,5-6.2,8.3-11.2,8.9
					s-10.2-0.8-15.2-1.8c-11.1-2.3-22.5-2.8-33.8-1.5c-2.8,0.3-5.5,0.9-7.9,2.3c-0.8-6.7,15.9-15.4,21-17.7
					C420,279.5,430.2,277.6,440.2,278.4z"/>
				<path class="st9" d="M394.2,297c8.3-7.3,29.5-12.2,44.6-10.6c4.5,0.5,9.1,1.8,12.6,4.8"/>
			</g>
		</g>
		<path class="st14" d="M378.8,215.2l80.9-0.2c9.5,0,17.2,7.7,17.2,17.2v0c0,9.5-7.7,17.2-17.2,17.2l-55.3,0.1"/>
		<path class="st14" d="M134,274.6l-56.6,0.1c-5.4,0-9.7,4.4-9.7,9.7l0,0c0,5.4,4.4,9.7,9.7,9.7l16.5,0"/>
		<g>
			<path class="st15" d="M43.7,318.4c-19.4,0-19.8,28.9,4.9,28.9c24.7-0.1,348.1-0.7,363.4-0.7c15.3,0,16.9-23.8-2-23.8
				c-37.5,0.1-38.8-17.8-17.9-17.9"/>
			<path class="st5" d="M48.3,317.6c0.4,2.6-1.3,5.1-3.9,5.5c-2.6,0.4-5.1-1.3-5.5-3.9c-0.4-2.6,1.3-5.1,3.9-5.5
				C45.3,313.3,47.8,315,48.3,317.6z"/>
			<path class="st16" d="M401.3,305c0.4,2.6-1.3,5.1-3.9,5.5c-2.6,0.4-5.1-1.3-5.5-3.9c-0.4-2.6,1.3-5.1,3.9-5.5
				C398.4,300.7,400.9,302.4,401.3,305z"/>
		</g>
		<g>
			<polygon class="st16" points="209.7,95.8 207.4,90.1 230,81.5 			"/>
			<polygon class="st5" points="210.9,92.3 230,81.5 216.7,95 			"/>
			<polygon class="st5" points="202.2,87.8 230,81.5 207.4,90.1 			"/>
			<polygon class="st17" points="210.9,92.3 209.7,95.8 213.2,93.4 			"/>
			<g>
				<path class="st11" d="M406.6,388.6l-300.9,0.6c-4,0-7.3-3.2-7.3-7.3L98,182.6c0-4,3.2-7.3,7.3-7.3l300.9-0.6
					c4,0,7.3,3.2,7.3,7.3l0.4,199.3C413.8,385.3,410.6,388.6,406.6,388.6z"/>
				<g>
					<path class="st0" d="M400.7,384.8l-300.9,0.6c-4,0-7.3-3.2-7.3-7.3l-0.4-199.3c0-4,3.2-7.3,7.3-7.3l300.9-0.6
						c4,0,7.3,3.2,7.3,7.3l0.4,199.3C407.9,381.5,404.7,384.8,400.7,384.8z"/>
					<path class="st6" d="M399.7,170.9l-299.6,0.6c-4.4,0-7.9,3.6-7.9,7.9l0,6.9l315.4-0.7l0-6.9
						C407.7,174.5,404.1,170.9,399.7,170.9z"/>
					<path class="st6" d="M100.5,385.4l45.3-0.1l-0.4-199.1l-53.2,0.1l0.4,191.2C92.6,381.9,96.1,385.4,100.5,385.4z"/>
					<g>
						<path class="st6" d="M400.3,172.9c2.9,0,5.3,2.4,5.3,5.3l0.4,199.3c0,1.4-0.5,2.7-1.5,3.7c-1,1-2.3,1.5-3.7,1.6l-300.9,0.6
							c-2.9,0-5.3-2.4-5.3-5.3l-0.4-199.3c0-1.4,0.5-2.7,1.5-3.7c1-1,2.3-1.5,3.7-1.6L400.3,172.9L400.3,172.9 M400.3,170.9
							C400.3,170.9,400.3,170.9,400.3,170.9l-300.9,0.6c-4,0-7.3,3.3-7.3,7.3l0.4,199.3c0,4,3.3,7.3,7.3,7.3c0,0,0,0,0,0l300.9-0.6
							c4,0,7.3-3.3,7.3-7.3l-0.4-199.3C407.6,174.2,404.3,170.9,400.3,170.9L400.3,170.9z"/>
					</g>
					<path class="st0" d="M138.1,370.2l-34.9,0.1c-1.5,0-2.8-1.2-2.8-2.8l0-0.3c0-1.5,1.2-2.8,2.8-2.8l34.9-0.1
						c1.5,0,2.8,1.2,2.8,2.8l0,0.3C140.9,369,139.7,370.2,138.1,370.2z"/>
					<path class="st0" d="M133.9,235.1l-29.7,0.1c-2.8,0-5.1-2.3-5.1-5.1l-0.1-29.7c0-2.8,2.3-5.1,5.1-5.1l29.7-0.1
						c2.8,0,5.1,2.3,5.1,5.1L139,230C139,232.9,136.8,235.1,133.9,235.1z"/>
					<path class="st2" d="M261.1,324.1l-103.5,0.2c-2,0-3.6-1.6-3.6-3.6l0-0.5c0-2,1.6-3.6,3.6-3.6l103.5-0.2c2,0,3.6,1.6,3.6,3.6
						l0,0.5C264.7,322.5,263.1,324.1,261.1,324.1z"/>
					<path class="st2" d="M255.1,206.2l-81.8,0.2c-2,0-3.6-1.6-3.6-3.6l0-0.5c0-2,1.6-3.6,3.6-3.6l81.8-0.2c2,0,3.6,1.6,3.6,3.6
						l0,0.5C258.7,204.6,257.1,206.2,255.1,206.2z"/>
					<path class="st2" d="M384.4,288.9l-109,0.2c-2,0-3.6-1.6-3.6-3.6l0-0.5c0-2,1.6-3.6,3.6-3.6l109-0.2c2,0,3.6,1.6,3.6,3.6l0,0.5
						C388,287.3,386.4,288.9,384.4,288.9z"/>
					<path class="st2" d="M261.1,340.1l-103.5,0.2c-2,0-3.6-1.6-3.6-3.6l0-0.5c0-2,1.6-3.6,3.6-3.6l103.5-0.2c2,0,3.6,1.6,3.6,3.6
						l0,0.5C264.8,338.5,263.1,340.1,261.1,340.1z"/>
					<path class="st2" d="M261.1,356.1l-103.5,0.2c-2,0-3.6-1.6-3.6-3.6l0-0.5c0-2,1.6-3.6,3.6-3.6l103.5-0.2c2,0,3.6,1.6,3.6,3.6
						l0,0.5C264.8,354.4,263.2,356.1,261.1,356.1z"/>
					<path class="st2" d="M382.2,366.5l-104.3,0.2c-3.3,0-6-2.7-6-6l-0.1-44.8c0-3.3,2.7-6,6-6l104.3-0.2c3.3,0,6,2.7,6,6l0.1,44.8
						C388.2,363.8,385.5,366.5,382.2,366.5z"/>
					<path class="st2" d="M109.5,178.8c0,1.4-1.1,2.6-2.5,2.6s-2.6-1.1-2.6-2.5c0-1.4,1.1-2.6,2.5-2.6S109.5,177.4,109.5,178.8z"/>
					<circle class="st2" cx="117.8" cy="178.8" r="2.5"/>
					<path class="st2" d="M131.1,178.8c0,1.4-1.1,2.6-2.5,2.6c-1.4,0-2.6-1.1-2.6-2.5c0-1.4,1.1-2.6,2.5-2.6
						C130,176.2,131.1,177.3,131.1,178.8z"/>
					
						<ellipse transform="matrix(9.966175e-02 -0.995 0.995 9.966175e-02 -58.9822 339.9264)" class="st2" cx="158.3" cy="202.6" rx="7.4" ry="7.4"/>
					<path class="st0" d="M136,241.4l-32.6,0.1c-0.8,0-1.4-0.6-1.4-1.4l0-0.2c0-0.8,0.6-1.4,1.4-1.4l32.6-0.1c0.8,0,1.4,0.6,1.4,1.4
						l0,0.2C137.4,240.8,136.8,241.4,136,241.4z"/>
					<path class="st0" d="M136,247.6l-32.6,0.1c-0.8,0-1.4-0.6-1.4-1.4l0-0.2c0-0.8,0.6-1.4,1.4-1.4l32.6-0.1c0.8,0,1.4,0.6,1.4,1.4
						l0,0.2C137.4,247,136.8,247.6,136,247.6z"/>
					<path class="st2" d="M173.4,260.8l-9.2,0.1l0.1,38.7l-8,0c-2.8,0-5.1-2.3-5.1-5.1L151,223c0-2.8,2.3-5.1,5.1-5.2l17.1,0
						L173.4,260.8z"/>
					<g>
						<path class="st2" d="M233.3,217.7v1c2.8,0,5,2.2,5,5l0.1,69.7c0,1.3-0.5,2.6-1.5,3.5c-0.9,0.9-2.2,1.5-3.5,1.5l-76.3,0.2
							c-2.8,0-5-2.2-5-5l-0.1-69.7c0-1.3,0.5-2.6,1.5-3.5c0.9-0.9,2.2-1.5,3.5-1.5l76.3-0.2L233.3,217.7 M233.3,217.7
							C233.3,217.7,233.3,217.7,233.3,217.7l-76.3,0.2c-3.3,0-6,2.7-6,6l0.1,69.7c0,3.3,2.7,6,6,6c0,0,0,0,0,0l76.3-0.2
							c3.3,0,6-2.7,6-6l-0.1-69.7C239.3,220.3,236.6,217.7,233.3,217.7L233.3,217.7z"/>
					</g>
				</g>
				<path class="st6" d="M360.6,275.1l-101.7-23c-3.2-0.7-5.3-4-4.5-7.2l11.4-50.6c0.7-3.2,4-5.3,7.2-4.5l101.7,23
					c3.2,0.7,5.3,4,4.5,7.2l-11.4,50.6C367.1,273.8,363.9,275.8,360.6,275.1z"/>
				<g>
					<polygon class="st6" points="163.8,412.8 149.5,412.8 146,394.7 167.2,394.6 					"/>
					<path class="st2" d="M150,394.6c0,1.5-0.3,4,0.7,4c1,0,0.6-2.4,1.7-2.3c0.7,0-0.3,7.9,2.4,8.1c1.9,0.1,1.5-3.8,1.7-6.3
						c0.1-1.7,2.3-1.4,2.3-0.2c0,1.2-0.1,2.1,0,3.5c0.1,2.4,3.7,1.7,3.6-1.4s0-5.3,0-5.3L150,394.6z"/>
					<g>
						<path class="st18" d="M146.6,405.6c-0.3,0-0.6,0-0.8-0.1c-1-0.2-1.8-0.8-2.2-1.6c-1.5-3.1,2.4-8.8,2.5-9.1l0.2,1
							c0,0.1-3.4,5-2.1,7.8c0.3,0.7,0.9,1.1,1.7,1.2c0.2,0,0.5,0.1,0.7,0.1c5.1,0,13.9-9.6,14-9.7c0.4-0.4,1,0,0.8,0.3
							C161,396,152.1,405.6,146.6,405.6z"/>
					</g>
				</g>
				<g>
					<path class="st11" d="M296.1,157.6c-20.2-0.8-48.1,14.2-38.2,50.8c-0.2,3.1,1.6,5.3,3.6,4.7c2-0.6,0.2-6.5,0.2-6.5
						c3.4-27.2,9.7-31.9,20.4-31.8l25.1-0.1c6.2,0.9,17.5,5.3,19.2,27l6.2,1.2C333.1,187.2,329.3,158.9,296.1,157.6z"/>
					<path class="st19" d="M296.1,154.4c-20.2-0.8-48.1,14.2-38.2,50.8l3.8-1.8c3.4-27.2,9.7-31.9,20.4-31.8l25.1-0.1
						c6.2,0.9,17.8,6.4,19.5,28.2l5.9,0C333.1,184,329.3,155.7,296.1,154.4z"/>
					<path class="st20" d="M292,155l-3,6.6c0,0,0.4,3.7,4,3.6c3.6-0.1,4.1-1.8,4.1-1.8l0.5-7.6L292,155z"/>
					<path class="st20" d="M307.5,149.5c-3.4,6.1-4.9,7.9-9.4,8.8c-5.8,1.2-12.3-2.7-9.3-12.4c2.5-7.9,6.2-6.7,9.9-6.4
						C302.3,139.9,311.2,143,307.5,149.5z"/>
					<path class="st18" d="M293.8,144.7c-0.9-0.5-2.1-0.1-2.8,0.7c-0.7,0.8-1.1,1.9-0.8,2.9c-1.4,0-2.6,1.4-2.5,2.8
						c-1-2.2-0.4-4.6-0.6-6.8c-0.2-2.3,0.1-4.8,1.5-6.5c0.6-0.7,1.4-1.3,2.2-1.7c3.2-1.7,7.1-1.7,10.3-0.1c0.7,0.3,2.3,1.4,4.6,0.8
						c4.4-1.1,7,1.9,4.3,4.7c0.9,0.3,1.8,0.7,2.2,1.5c0.1,0.2,0.1,0.5,0,0.7c-0.1,0.1-0.3,0.2-0.4,0.3c-0.7,0.3-1.6,0.3-2.3,0.2
						c0.3,0.3,1.9,0.4,2.4,1.3c1.3,2.5-3.9,1.3-4.7,1c0.9,0.2,3.3,2.1,2.5,3.4c-0.2,0.3-3.4,2.1-6.8-1.8c-0.8-0.9-1.8-1.8-2.9-2.1
						c-0.9-0.2-1.9,0.1-2.8,0.4c-0.6,0.2-2.3,1.2-2.8,0.6C294.2,146.3,294.9,145.3,293.8,144.7z"/>
					<path class="st20" d="M327.3,199.8c-0.9,3.1-1.8,3.4-0.7,3.9c1.1,0.5,2-1.2,2-1.2l5,1c0,0-1.1-3.3-1.9-3.7
						C330.9,199.4,327.3,199.8,327.3,199.8z"/>
					<path class="st20" d="M261.8,203.4c0.7,1.6,0.8,1.6,1.7,3.6c1.7,3.7-2.3,9.7-4.9,3.2c-0.7-1.8-0.7-5-0.7-5L261.8,203.4z"/>
				</g>
				<g>
					<g>
						<path class="st18" d="M301,136.4c3.4,0.2,7.7-2.2,10.3,0.9c0.2,0.3,0.7-0.1,0.5-0.4c-2.6-3.7-7.3-0.9-10.9-1
							C300.6,135.9,300.6,136.4,301,136.4L301,136.4z"/>
						<path class="st18" d="M302.4,134.5c-2.3,0.4-4.6-0.7-7-0.3c-1.9,0.3-3.6,1.3-5.1,2.5c-0.4,0.3,0.1,1,0.5,0.7
							c2-1.3,4-2.5,6.5-2.3c1.8,0.1,3.4,0.7,5.2,0.1C303,135.1,302.8,134.5,302.4,134.5L302.4,134.5z"/>
						<path class="st18" d="M289,137.7c-1.7,1-2.6,2.4-2.8,4.4c-0.1,1.4-0.2,4.7,1.2,5.5c0.3,0.2,0.7-0.3,0.4-0.5
							c-0.9-0.9-1-3.4-0.9-4.6c0.1-1.8,0.9-3.2,2.3-4.3C289.5,138,289.3,137.6,289,137.7L289,137.7z"/>
						<path class="st18" d="M314.4,143.4c-0.8-1.5-3-2.8-4.7-1.8c-0.3,0.1-0.1,0.5,0.1,0.6c0.7,0,1.4-0.1,2.1,0.1
							c0.8,0.2,1.5,0.7,2,1.4C314.1,143.9,314.6,143.7,314.4,143.4L314.4,143.4z"/>
					</g>
				</g>
				<g>
					<path class="st6" d="M203.1,295.9c10.6,3.9,19.8,16.1,17.7,24.9c-2.4,10-9.3,14.3-9.3,14.3l-2.2-4c0,0,5.5-8.6,5-12.7
						c-0.8-6.5-9-10.9-9-10.9L203.1,295.9z"/>
					<path class="st18" d="M177,408.6c0,0-6.5,2.6-8.1,4.1l12.9,0l0-4.1L177,408.6z"/>
					<path class="st18" d="M205.5,408.4c0,0,1.8,2.1,2.2,4.3l-8.8,0c0.2-1.5,0.8-2.9,1.6-4.3L205.5,408.4z"/>
					<path class="st21" d="M206.1,408.6l-6,0c0.1-7.1-1.3-31.2-2.8-49.2c-0.8-10.6-1.6-19.1-2.1-20.8l3.2-0.7l12.1-2.7
						C212.6,344.6,207.8,388.2,206.1,408.6z"/>
					<path class="st22" d="M184,338.2c-4.7,7.4-5.9,60.7-7.9,70.6l5.7,0.3c0,0,6.5-33.6,20.5-71.5L184,338.2z"/>
					<path class="st11" d="M204.7,337.6c-2.8,7.5-5.2,14.8-7.4,21.7c-0.8-10.6-1.6-19.1-2.1-20.8l3.2-0.7L204.7,337.6z"/>
					<path class="st22" d="M184,338.2c-4.7,7.4-5.9,60.7-7.9,70.6l5.7,0.3c0,0,6.5-33.6,20.5-71.5L184,338.2z"/>
					<path class="st20" d="M187.5,278.6c0,0-3.6,13.9,5.5,13.9l-0.5,3.6l6.9,0.8l-1.5-5c0,0,1.4-8.7,1.5-10.3
						C199.5,278.6,191.3,273.4,187.5,278.6z"/>
					<g>
						
							<rect x="162.3" y="263" transform="matrix(1 -1.973264e-03 1.973264e-03 1 -0.5299 0.3235)" class="st18" width="2.7" height="11.3"/>
						<path class="st17" d="M171.4,263l-15.4,0c-1.1,0-2-0.9-2-1.9l0-0.4c0-1.1,0.9-2,2-2l15.4,0c1.1,0,2,0.9,2,1.9l0,0.4
							C173.3,262.1,172.4,263,171.4,263z"/>
					</g>
					<path class="st20" d="M161.6,277.3c-0.1-2.6-2.2-1.9-1-6.1c0.7-2.6,6.1,0.4,5.4,2.2c-0.7,1.8-1.4,4.6-1.4,4.6L161.6,277.3z"/>
					<path class="st17" d="M193.1,295.2c-13.6,0.9-14.5,5.5-20.6,4.8c-9-1.1-7.4-17.8-6.3-23.8l-5.4,0c0,0-9.7,38.2,21,31.1
						c-1.2,6.7,6.5,17.6-0.9,30.9c11.7,3.2,22.5,3.9,31.8-0.1c-1.6-2.2,3.3-24.4-6.4-40.4C204.3,294.6,194.1,295.1,193.1,295.2z"/>
					<path class="st6" d="M193.1,295.2c-13.6,0.9-14.5,5.5-20.6,4.8c-9-1.1-7.4-17.8-6.3-23.8l-5.4,0c0,0-9.7,38.2,21,31.1
						c-1.2,6.7,6.5,17.6-0.9,30.9c11.7,3.2,22.5,3.9,31.8-0.1c-1.6-2.2,3.3-24.4-6.4-40.4C204.3,294.6,194.1,295.1,193.1,295.2z"/>
					<path class="st19" d="M191.2,281.3c0.9,0.2,1.9,0.4,2.4,1.2c0.3,0.5,0.3,1.1,0.3,1.7c0.2-0.6,0.8-1,1.5-1
						c0.6,0.1,1.2,0.6,1.2,1.3c0,0.3-0.1,0.6-0.2,0.8c-0.3,0.7-0.6,1.3-1,1.9c1.1,0.4,2,3.7,2.6,4.7c1.9-0.5,6-2.1,6.4-8.7
						c0.2-3.1-0.8-6.8-4.1-8.8c-2.4-1.5-6.3-1.5-9-0.8c-2.2,0.6-5.7,2.8-4.1,5.3C187.9,280.1,189.7,280.9,191.2,281.3z"/>
					<path class="st19" d="M202.9,277c1.3-0.4,2.9-0.2,3.6,0.9c0.6,0.8,0.5,1.9,0.7,2.9c0.1,0.5,0.3,1,0.6,1.3
						c0.4,0.4,1.1,0.5,1.7,0.5c1.5,0.1,3-0.1,4.4,0.1c1.4,0.2,2.9,1.1,3.3,2.4c0.2,0.7,0.1,1.6,0.4,2.3c0.4,1.1,1.6,1.7,2.6,2.4
						c2.2,1.4,4,3.2,5.4,5.3c0.8,1.3,1.5,2.8,1.6,4.4c0.1,1.6,1.2,3.6,0.9,5.2c-0.3,1.7-2,3.9-5.2,5c-5.6,1.8-7.4,2.6-12.7-0.6
						c-0.6-0.4-1.9-1.7-2.5-2.2c-0.5-0.4-0.8-0.9-0.9-1.5c-0.4-1.5,0.1-3.2,0.9-4.6c0.8-1.4,1.9-2.6,2.7-4c0.5-0.8,0.9-1.8,0.8-2.7
						c0-0.4-0.1-0.7-0.4-1c-0.2-0.2-0.6-0.3-0.9-0.4c-1.2-0.2-2.5,0-3.5-0.5c-1-0.5-1.6-1.8-1.3-2.8c0.2-0.7,0.8-1.3,0.9-2.1
						c0.2-1.1-0.4-2.1-1.4-2.8s-2.1-0.9-3.2-1c-0.5-0.1-1.1-0.2-1.6-0.5c-0.5-0.4-0.8-1.1-0.8-1.7
						C199.2,279.2,200.9,277.7,202.9,277z"/>
				</g>
				<g>
					<g>
						<path class="st19" d="M201.9,282.6c6.7,1.5-1.8,7.8,1.8,10.9c1,0.9,2.2,0.6,3.4,0.8c4.6,0.6,2.1,3.7,1.8,6.2
							c0,0.4,0.6,0.4,0.6,0.1c0.4-1.7,1.9-3.7,1.1-5.5c-0.7-1.6-2.4-1.4-3.9-1.4c-1.8-0.1-3.8,0-3.1-3.6c0.1-0.8,0.8-1.6,1.1-2.3
							c0.4-0.9,0.6-1.7,0.4-2.6c-0.3-1.6-1.7-2.5-3.2-2.8C201.7,282.2,201.6,282.6,201.9,282.6L201.9,282.6z"/>
					</g>
				</g>
				<g>
					<g>
						<path class="st19" d="M188,274.4c5.2-2.6,10.4-2.1,14.8,1.8c0.3,0.3,0.7-0.1,0.4-0.4c-3.9-4.3-10.7-5.1-15.4-1.6
							C187.7,274.2,187.8,274.5,188,274.4L188,274.4z"/>
					</g>
				</g>
				<g>
					<polygon class="st20" points="362.6,290.7 360.4,295.2 365.9,297.5 366.5,292.2 					"/>
					<path class="st20" d="M366,275.9c-12.5,5.4-7.4,18.6,0.2,17.1c3.7-0.8,5.6-12.7,5.6-12.7L366,275.9z"/>
					<path class="st13" d="M370.1,274.1c-0.4-0.8-0.8-1.6-1.5-2.1c-0.7-0.5-1.7-0.7-2.4-0.1c-0.8,0.8-0.3,2.2,0.5,3
						c-0.7,0.1-1.6-0.4-2.1,0.1c-0.4,0.4-0.3,1.1,0,1.6c0.6,1.2,1.5,2.2,2.6,2.9c-0.6,0.4-1.4,1.1-1,1.7c0.1,0.2,0.3,0.3,0.4,0.5
						c0.2,0.4,0,0.9-0.2,1.3c-0.4,0.7-0.8,1.3-1.3,1.9c0.4-0.6,1.5-0.3,1.8,0.3c0.3,0.7,0,1.5-0.4,2c-0.3,0.3-0.6,0.6-1,0.6
						c-0.3,0.1-1.9,4.8-0.7,5.7c1.5,1.1,6.4,0.1,7.1-1.1c0.7,0.8,1.8,1.4,2.8,1.2c1-0.2,1.8-1.5,1.3-2.4c1.1,0.4,2.5,0,3.3-0.9
						c0.8-0.9,0.9-2.3,0.3-3.4c0.6-0.2,0.7-1,0.6-1.6c-0.3-1.3-1.3-2.3-2.6-2.7c0.6,0,1.1-0.6,1.2-1.3c0-0.6-0.3-1.2-0.7-1.7
						c-1.2-1.4-2.6-1.8-4.3-2.1C371.8,277.3,370.9,275.5,370.1,274.1z"/>
					<path class="st18" d="M358.4,407.8c0,0-7.3,3.5-8.3,4.6c0,0,14.4,0.6,15.5,0c1.1-0.7-2.3-4.6-2.3-4.6L358.4,407.8z"/>
					<path class="st18" d="M385.6,403.8c0,0-6.4,4.9-7.2,6.2c0,0,15.2-2.3,15.2-3.2c0-1-3.2-4-3.2-4L385.6,403.8z"/>
					<path class="st23" d="M365.5,340c-0.3,1.5-10.3,41,18.4,64.7l8.3-1.9c0,0-9.7-9.1-14.2-25.3c-4.3-15.4-0.9-16.9,1.7-25.4
						c2.9-9.4,0.7-16.2,0.7-16.2L365.5,340z"/>
					<path class="st19" d="M351.8,339.9c-4.5,10.8-12.3,47.8,4.7,68.6l8.5,0c0,0-6.7-7.3-7.4-24.3c-0.7-17,3.6-24.4,6.6-30.1
						c3-5.6,5.9-15.1,5.9-15.1L351.8,339.9z"/>
					<path class="st6" d="M345.8,272.6c-2.3,7.9-3,22.6,8.3,28.5l7.6-1.8c0,0-13.6-7.1-10.7-25.2L345.8,272.6z"/>
					<path class="st6" d="M325,268.6l5.9-0.7c0,0-0.7,24.6,27.7,26.7c21.7,1.6,23.4,42.3,23.4,42.3c-7,4.7-18.7,6.1-33.8,5.1
						c0,0,1-29.1-1.4-37C346.8,304.9,323.1,297.5,325,268.6z"/>
					<path class="st20" d="M317.8,264.1c-1,1.2,3.2,2.6,7.2,4.5l5.1-0.6c0,0,0.1-1,0-2.1c-0.1-1.1-0.6-1.7-1.2-0.8
						c-0.6,0.9-3.2,1.2-4.4,0.4C323.3,264.6,318.8,263,317.8,264.1z"/>
					<path class="st20" d="M345.8,272.6c-1.9-1.9-1.4-1.7-1.4-1.7l5.8,1.3c0,0,1.3-2.8,2.3-2.9c1.1-0.1-0.8,1.9-0.4,2.7
						c0.4,0.7-1.2,2.2-1.2,2.2L345.8,272.6z"/>
				</g>
				<g>
					<g>
						<path class="st13" d="M373.3,276.8c1.2,0.3,2.4,0.4,3.4,1.2c1,0.8,1.4,2.2,0.7,3.3c-0.3,0.5,0.5,0.9,0.8,0.5
							c0.9-1.2,0.7-2.8-0.2-3.9c-1-1.3-3-1.8-4.6-1.6C373.1,276.3,373,276.7,373.3,276.8L373.3,276.8z"/>
					</g>
				</g>
				<g>
					<g>
						<path class="st13" d="M378.5,287.4c0.8,0.5,1.4,1.2,1.1,2.2c-0.3,0.9-1.2,1.4-1.9,1.9c-0.4,0.2,0,0.8,0.3,0.6
							c1.1-0.6,2.2-1.4,2.4-2.7c0.1-1.1-0.6-2-1.6-2.5C378.5,286.7,378.2,287.2,378.5,287.4L378.5,287.4z"/>
					</g>
				</g>
				<g>
					<g>
						<path class="st13" d="M365.4,293.4c2.7,1.6,6.4,1.4,8.6-0.9c0.3-0.3-0.1-0.8-0.4-0.6c-2.4,1.8-5.1,2.3-7.9,1.1
							C365.4,292.9,365.2,293.2,365.4,293.4L365.4,293.4z"/>
					</g>
				</g>
				<g>
					<g>
						<path class="st13" d="M378.9,278.5c1.5,1.4,0,3.4-1,4.7c-0.2,0.3,0.1,0.6,0.4,0.4c0.9-0.8,1.7-1.7,1.9-3
							c0.1-0.9-0.3-1.8-1.1-2.3C378.9,278.3,378.8,278.4,378.9,278.5L378.9,278.5z"/>
					</g>
				</g>
			</g>
		</g>
		<path class="st15" d="M207.1,95.1c-5.9-1-13.9,5-10.5,11.2c1.2,2.1,7.2,1.2,6.8-1.1c-0.2-1.1-1.6-1.6-2.7-1.5
			c-6.6,0.8-6.9,6.3-6.6,7.7c1.5,7.3,12.7,4.8,16.4,3.8"/>
	</g>
</g>
<g id="DESIGNED_BY_FREEPIK">
</g>
</svg>
