<?xml version="1.0" encoding="utf-8"?>
<!-- Generator: Adobe Illustrator 22.1.0, SVG Export Plug-In . SVG Version: 6.00 Build 0)  -->
<svg version="1.1" id="Calque_1" xmlns="http://www.w3.org/2000/svg" xmlns:xlink="http://www.w3.org/1999/xlink" x="0px" y="0px"
	 viewBox="0 0 1366 768" style="enable-background:new 0 0 1366 768;" xml:space="preserve">
<style type="text/css">
	.st0{fill:#002139;}
	.st1{fill:#FFFFFF;stroke:#FFFFFF;stroke-miterlimit:10;}
	.st2{fill:#FFFFFF;}
	.st3{fill:none;}
	.st4{fill:none;stroke:#FFFFFF;stroke-miterlimit:10;}
</style>
<g>
	<path class="st0" d="M1365.8,430c-0.1-0.3-0.1-0.6-0.2-1c-0.1,0-0.2,0-0.2,0c-0.1-0.5,0-1,0-1.6c0-1,0-1.9,0.1-2.9c0,0,0.1,0,0.3,0
		c0,0,0-0.1,0-0.1c-0.2,0-0.3,0-0.3,0c0-0.9,0.1-1.8,0.3-2.6c0,0,0,0,0,0c-0.4,3.1-0.8,6.2-1.4,9.3c0,0.1-1,0-1,0
		c0-3.2,0.2-6.5,0.6-9.7c-0.3-0.1-0.6-0.3-1-0.7c-1.6-1.6-1.2-5.5-1.2-7.5c0.1-2.3,0.1-4.8,0.9-7c0-0.1,0.9-0.1,1,0c0,0,0,0,0,0h0
		c0,0,0,0,0,0c0.4,0.2,0.4,0.4,0.7,0.8c0-0.1-0.7,0.1-0.9,0.1c-0.9,3.3-0.9,7.3-0.4,10.6c0.1,0.7,0.3,1.7,0.6,2.4
		c0.3-1.2,0.6-2.3,0.9-3.5c-0.1-0.5-0.1-1-0.2-1.5c0-0.1,0-0.1,0-0.2c-0.1-0.5-0.1-1.1-0.2-1.6c-0.2-1-0.3-2.1-0.5-3.1
		c0,0,1-0.1,1,0c0.1,0.6,0.2,1.2,0.3,1.8c0.1-0.3,0.2-0.6,0.4-0.8c0,0,0,0,0,0c-0.1-1.2-0.1-2.2,0.2-3.3c0,0,0.1,0,0.2,0
		c0-0.2,0-0.3,0-0.5c0,0,0.1,0,0.2,0v-4.6c-1.9,0.6-3.7,1.1-5.7,1.2c-0.3,0-1-0.1-0.3-0.1c2-0.1,4-0.7,6-1.4V336c0-112,0-224,0-336
		H0v768h1366c0-112.7,0-225.3,0-338C1365.9,430,1365.8,430,1365.8,430z"/>
</g>
<line class="st1" x1="569" y1="768" x2="1172" y2="0"/>
<g>
	<g>
		<path class="st2" d="M1360.1,403.2c-11.3,5.1-25,5-37.2,5.1c-11.8,0.2-23.6-0.2-35.3-1.2c-24.4-1.9-48.6-6.2-72.3-11.9
			c-46.2-11.1-91.3-27.1-135.7-44c-44.1-16.8-88.9-33.6-136.6-34.6c-47.6-1.1-94.1,10.7-140.8,18.1c-13.7,2.2-27.4,3.7-41.3,3.3
			c-14.3-0.4-28.4-2.5-42.3-5.3c-26.3-5.3-52.1-13-78.6-17.5c-1.9-0.3-2.7,2.6-0.8,2.9c47.5,8.1,93.9,26.7,142.8,22.3
			c23.7-2.2,47.1-7.3,70.5-11.4c24.5-4.4,49.1-8.3,73.9-9.1c24.7-0.9,49,1.8,73,7.7c23.4,5.8,46.1,14,68.6,22.6
			c45.7,17.3,91.7,34.2,139,46.2c25.5,6.5,51.5,11.4,77.7,13.7c13.3,1.1,26.7,1.6,40.1,1.4c12.1-0.2,25.5-0.5,36.8-5.5
			C1363.4,405,1361.9,402.4,1360.1,403.2L1360.1,403.2z"/>
	</g>
</g>
<g>
	<g>
		<path class="st2" d="M1361.8,430.8c-17.2,11-39,11.8-58.8,10.7c-20.2-1.1-40.1-4.6-60-7.8c-25.8-4.1-50.8-12.4-75.3-21.3
			c-12.6-4.6-25.1-9.3-37.7-13.7c-11.7-4.1-23.6-7.5-35.3-11.7c-24-8.5-47.2-19.2-71.3-27.5c-23.5-8.1-47-12.4-71.9-11.6
			c-53.3,1.7-105,18-158.2,22.2c-14.7,1.2-29.6,1.5-44.3,0.2c-14.8-1.3-28.9-5.1-43.4-7.8c-26.4-5-54.2-6.9-78.8-18.6
			c-1.7-0.8-3.3,1.8-1.5,2.6c21.3,10.2,45.1,13.1,68.2,17c12.3,2,24.3,5.1,36.5,7.4c12.9,2.4,26.1,3.4,39.3,3.4
			c54.3-0.1,106.6-16.1,160.3-21.7c26.5-2.8,52.3-2.1,78,5.3c25.1,7.1,49,18,73.4,27.4c24.4,9.4,49.5,16.8,74,25.8
			c24.8,9.1,49.7,18.2,75.6,23.6c22.5,4.6,45.9,8.2,68.8,9.8c21.4,1.5,45.3,1,64-10.9C1364.9,432.3,1363.4,429.8,1361.8,430.8
			L1361.8,430.8z"/>
	</g>
</g>
<path class="st1" d="M577.2,361.6l-62.7-29.9c-17.9-8.5-25.5-30-17-47.9l16.2-34c8.5-17.9,30-25.5,47.9-17l62.7,29.9
	c17.9,8.5,25.5,30,17,47.9l-16.2,34C616.6,362.6,595.1,370.2,577.2,361.6z"/>
<path class="st1" d="M496.8,283.8l-48.8-23.2c-2.5-1.2-3.5-4.2-2.4-6.7v0c1.2-2.5,4.2-3.5,6.7-2.4l48.8,23.2
	c2.5,1.2,3.5,4.2,2.4,6.7l0,0C502.3,283.9,499.3,285,496.8,283.8z"/>
<path class="st1" d="M511.8,255.8l-48.8-23.2c-2.5-1.2-3.5-4.2-2.4-6.7v0c1.2-2.5,4.2-3.5,6.7-2.4l48.8,23.2
	c2.5,1.2,3.5,4.2,2.4,6.7v0C517.3,255.9,514.3,257,511.8,255.8z"/>
<line class="st3" x1="0" y1="719" x2="0" y2="717"/>
<line class="st3" x1="1034" y1="0" x2="1033" y2="0"/>
<line class="st3" x1="1087" y1="6" x2="466" y2="768"/>
<line class="st4" x1="1250.5" y1="0.5" x2="665.5" y2="768.5"/>
<line class="st4" x1="0.5" y1="549.5" x2="739.5" y2="550.5"/>
<g>
	<g>
		<path class="st2" d="M632.4,334c2.1,10,12,14.7,21,17.2c12,3.4,24.5,5.2,36.9,6.7c24.8,3.1,49.9,4.7,74.9,5.8
			c25.8,1.1,51.1-0.3,76.6-4.6c24.7-4.2,49-9.1,74.1-10.4c25.2-1.4,50.6-0.3,75.5,3.9c24.5,4.1,48,11.7,71.4,19.9
			c46.6,16.4,92.2,35.7,139.4,50.3c6.7,2.1,13.3,4,20,5.9c1.5,0.4,3.1,0.9,4.6,1.3c0.9,0.3,1.9,0.5,2.8,0.8
			c-0.9-0.4-0.8-0.2,0.3,0.4c2.5,1.1,4.8,1.8,7.5,2.4c13.6,2.9,27.2,5.6,41,7.5c27.8,3.8,56.1,3.6,82.8-6.1
			c4.6-1.7,7.6-6.1,6.3-11.1c-1.2-4.4-6.5-8-11.1-6.3c-22.3,8.1-45.7,9.1-69.1,6.5c-12-1.3-23.9-3.6-35.7-6c-2.5-0.5-5-1-7.5-1.6
			c-2.7-0.6-5-1.1-5.9-1.6c-5.2-2.6-11.1-3.6-16.6-5.2c-46.1-13.3-90.3-31.5-135.2-48.1c-22.5-8.3-45.5-16.7-68.9-22.3
			c-23.9-5.7-48.6-8.6-73.1-9.1c-24.6-0.6-49.3,1.5-73.6,5.3c-24.2,3.8-48,9.7-72.6,10.5c-27.5,1-55-1.7-82.4-3.6
			c-13.2-0.9-26.4-2.4-39.5-4.7c-6.6-1.2-13.5-2.3-19.8-4.4c-2.4-0.8-6.1-1.7-6.6-4.1C647.4,317.9,630,322.7,632.4,334L632.4,334z"
			/>
	</g>
</g>
<g>
	<g>
		<path class="st2" d="M636,341.8c0.5-0.2,3.8-1,2.5-0.8c1.3-0.2,2.7-0.2,4-0.2c3.6,0,7.1,0.4,10.7,0.9c8.1,1.3,16.1,3.2,24,5.1
			c8.2,1.9,16.4,3.4,24.6,5.3c11.7,2.7,23.4,5.5,35.4,7.1c23.9,3,49.2,0.5,73-1.9c24.1-2.5,48-6.3,71.8-10.8
			c23.3-4.4,48.1-9.8,71.7-4.6c11.3,2.5,16.1-14.8,4.8-17.4c-22.5-5-45.6-1.9-67.9,2.1c-23.5,4.2-46.9,8.8-70.7,11.6
			c-24.4,2.9-49.7,5.2-74.3,3.8c-12-0.7-23.7-3.7-35.3-6.4c-8.6-2-17.4-3.5-26-5.6c-9.1-2.2-18.3-4.5-27.6-5.9
			c-8.1-1.2-17.6-2.7-25.5,0.3c-4.5,1.7-7.7,6.1-6.3,11.1C626.1,339.8,631.4,343.5,636,341.8L636,341.8z"/>
	</g>
</g>
<g>
	<g>
		<path class="st2" d="M621.6,331.9c-3,1.4,1.3,0.3-1.6,0.5c0.7,0,1.4-0.1,2.1-0.1c0.8,0,1.6,0.1,2.4,0.1c0.6,0,1.2,0.1,1.7,0.2
			c-0.7-0.1-0.7-0.1-0.1,0c5,0.7,9.9,1.9,14.8,3.1c9.7,2.4,19.3,5.3,28.9,7.8c12.5,3.3,25.1,6.4,37.6,9.5
			c15.5,3.9,31.4,7.3,47.5,7.1c11.6-0.1,11.6-18.1,0-18c-16.4,0.2-32.2-3.7-48-7.8c-12-3.1-24.2-5.9-36.2-9.2
			c-10.3-2.8-20.5-5.9-31-8.2c-8.6-1.9-19-4.7-27.4-0.6c-4.4,2.1-5.5,8.4-3.2,12.3C611.9,333.1,617.2,334,621.6,331.9L621.6,331.9z"
			/>
	</g>
</g>
<g>
	<g>
		<path class="st2" d="M621.7,331.2c-5.7,7.5,2.4,14.7,9.4,16.3c1.9,0.4,3.8,0.6,5.6,1c2.6,0.5,5,1.5,7.6,2.1c1.4,0.3,3.3,0.3,4.2,1
			c1.5-5.6,3-11.2,4.5-16.8c1.6,0.7,1.7,0.7,0.3,0c-0.7-0.3-1.4-0.6-2.1-0.9c-1.9-0.7-3.7-1.1-5.8-1.1c-11.6,0-11.6,18,0,18
			c-1.5-0.7-1.5-0.6-0.2,0c0.7,0.3,1.4,0.6,2.1,0.9c1.9,0.7,3.7,1.1,5.7,1c9.2-0.3,11.8-11.8,4.5-16.8c-2.5-1.7-5.1-2.1-8-2.7
			c-2.9-0.6-5.7-1.7-8.6-2.3c-1.5-0.3-2.9-0.4-4.4-0.7c-0.7-0.1-1.4-0.3-2.1-0.5c-2.3-0.5,0.2-0.2,0.9,0.8c0.8,1.3,1.5,2.6,2.3,4
			c0-0.1-0.1-0.2-0.1-0.4c0,1.6,0,3.2,0,4.8c-0.2,0.4-0.3,0.9-0.5,1.3c2.9-3.9,0.6-10.1-3.2-12.3
			C629.4,325.3,624.7,327.3,621.7,331.2L621.7,331.2z"/>
	</g>
</g>
<g>
	<g>
		<path class="st2" d="M646.6,348.4c3.5,8.7,12.3,8.6,20.4,9.2c9.5,0.7,19.9,2.7,29.8,3.9c4.8,0.6,9-4.6,9-9c0-5.4-4.2-8.4-9-9
			c-8.3-1-16.6-2.3-24.9-3.4c-2.5-0.3-4.8-0.5-7.3-0.7c-1.2-0.1-2.5-0.1-3.8-0.3c0.7,0,0.5,0-0.6-0.2c-1.7-0.6-1.1-0.2,1.6,1.1
			c0.8,1.3,1.5,2.6,2.3,4c-0.1-0.1-0.1-0.3-0.2-0.4c-1.8-4.5-6-7.7-11.1-6.3C648.6,338.5,644.7,343.9,646.6,348.4L646.6,348.4z"/>
	</g>
</g>
<g>
	<g>
		<path class="st2" d="M694.8,350.6c-2.1,5.4,2.2,10.6,7.1,12.2c1.3,0.4,2.7,0.7,4.1,0.9c0.5,0.1,3.9,0.6,2.9,0.4
			c-1.1-0.2,1.6,0.4,1.8,0.5c11.2,3,22.9,4.7,34.4,6.1c11.6,1.5,23.3,2.1,34.9,1c12.3-1.1,24.7-4.2,37.1-4.3
			c-0.8-5.9-1.6-11.8-2.4-17.7c-1.7,0.3-3.4,0.9-5.1,0.5c-11.3-2.4-16.1,15-4.8,17.4c5.1,1.1,9.6,0.4,14.7-0.5
			c10.1-1.9,7.6-17.8-2.4-17.7c-10.2,0.1-20.2,2.7-30.4,3.7c-10.7,1-20.8,1.4-31.5,0.6c-9.6-0.7-19-2.5-28.5-3.9
			c-4.5-0.7-8.8-2.1-13.3-3c-1.2-0.2-3.6-0.5-4-0.6c-0.3,0-3.4-1.5-1.5-0.2c1.1,1.1,2.2,2.2,3.2,3.2c-0.1-0.1-0.1-0.2-0.2-0.3
			c0.3,2.3,0.6,4.6,0.9,6.9c0.1-0.1,0.1-0.3,0.2-0.4c1.8-4.5-1.9-9.9-6.3-11.1C700.8,342.9,696.6,346.1,694.8,350.6L694.8,350.6z"/>
	</g>
</g>
<g>
	<g>
		<path class="st2" d="M789.2,365.5c0.2,0,0.3,0,0.5-0.1c-2.1-0.9-4.2-1.8-6.4-2.6c-2.4-2.8-0.9-0.3,0.1,1.5
			c0.4,0.7,0.7,1.2,1.2,1.8c2.2,3.1,5.2,5,8.9,5.7c5.2,1,10.6-1.1,15.7-1.9c12.7-2,25.9-3.7,38.4-7c11.2-2.9,6.5-20.3-4.8-17.4
			c-8.6,2.2-17.6,3.4-26.3,4.9c-4.3,0.8-8.7,1.5-13,2.2c-2.3,0.4-5.9,1.8-7.7,1.1c1.3,0.8,2.6,1.5,4,2.3c-1.5-1.2,1.1,2.3-0.6-0.7
			c-0.7-1.3-1.1-2.7-2-3.9c-1.8-2.5-4.8-4.3-8-4c-4.8,0.5-9,3.8-9,9C780.2,361,784.4,366,789.2,365.5L789.2,365.5z"/>
	</g>
</g>
<g>
	<g>
		<path class="st2" d="M665.5,336c1.4,0.7,0,1.2-4.4,1.6c1,0.2,2,0.4,3,0.7c2.1,0.5,4.3,1.1,6.4,1.6c5,1.2,10.2,1.9,15.2,2.9
			c9.8,2,18.9,6,28.5,8.5c9.3,2.4,18.6,4.7,28.1,6.1c5.3,0.8,10.5,1.4,15.8,1.9c5.1,0.5,10,0.1,15.1,0.1c11.6,0.1,11.6-17.9,0-18
			c-5.7-0.1-11.2,0.2-17-0.3c-5.6-0.6-11.1-1.3-16.6-2.4c-10.5-1.9-21-4.6-31-8.1c-10.7-3.6-21.4-5.5-32.4-8c-4.7-1-9.6-3-14.4-3
			c-5.5-0.1-8.8,3-11.8,7.2c-2.9,3.9-0.7,10,3.2,12.3C657.8,341.9,662.6,340,665.5,336L665.5,336z"/>
	</g>
</g>
<g>
	<g>
		<path class="st2" d="M736.5,345.5c-0.2,0.1-0.5,0.3-0.7,0.4c4.1,1.1,8.2,2.2,12.3,3.2c0.6,2.1,0.4,4-0.5,5.7
			c-1.6,0.5-1.8,0.8-0.6,0.8c0.7,0.8,6,1,7,1.1c4.4,0.5,8.9,0.7,13.3,1c9.2,0.5,17.6,0.6,26.6-1.5c11.3-2.7,6.5-20-4.8-17.4
			c-6.1,1.5-11.7,1.4-18,1.1c-6.5-0.3-13-0.5-19.4-1.6c-6.3-1.1-12-1.1-16.8,3.7c-4.3,4.2-6,11.1-2.4,16.2c2.8,3.9,7.8,5.9,12.3,3.2
			c0.2-0.1,0.5-0.3,0.7-0.4C755.5,355.1,746.5,339.5,736.5,345.5L736.5,345.5z"/>
	</g>
</g>
<g>
	<g>
		<path class="st2" d="M795.4,355.4c6.6-1.3,13.4-1.4,20.2-2c6-0.5,12.6,0,17.7-3.6c5.8-4.2,6-14.6-2.1-16.4c-4.6-1-8.4,0-12.8,1.2
			c-11.1,3.1-6.4,20.5,4.8,17.4c0.9-0.2,1.7-0.5,2.6-0.8c1.6-0.3,1.8-0.5,0.6-0.4c-0.7-5.5-1.4-11-2.1-16.4c-1.4,1-2.9,0.8-4.7,0.9
			c-3,0.2-6,0.5-9,0.7c-6.7,0.5-13.3,0.9-19.9,2.2C779.3,340.3,784.1,357.7,795.4,355.4L795.4,355.4z"/>
	</g>
</g>
<g>
	<g>
		<path class="st2" d="M828.1,351.9c2.7-1.1,5.7-2.7,8.7-3.1c4-0.5,8-0.7,12-1.2c7.5-1.1,15.2-2,22.7-3.5c8.6-1.7,8.5-15.6,0-17.4
			c-6.1-1.3-12.2,1.3-18.4,1.4c0.8,5.9,1.6,11.8,2.4,17.7c4.1-1,8-2.2,12.2-2.5c4.3-0.3,8.6-0.6,12.9-1.5
			c11.3-2.4,6.5-19.8-4.8-17.4c-3.8,0.8-7.7,0.7-11.6,1.2c-4.6,0.5-9,1.7-13.5,2.8c-9.8,2.4-7.8,18,2.4,17.7
			c3.3-0.1,6.6-0.4,9.8-0.9c1-0.2,2-0.4,2.9-0.6c1.4-0.3,4,0.1,0.8-0.5c0-5.8,0-11.6,0-17.4c-7.5,1.5-15.1,2.4-22.7,3.5
			c-3.6,0.5-7.2,0.3-10.8,1c-3.5,0.6-6.6,2-9.9,3.3c-4.5,1.9-7.7,6-6.3,11.1C818.2,349.9,823.6,353.8,828.1,351.9L828.1,351.9z"/>
	</g>
</g>
<g>
	<g>
		<path class="st2" d="M832.6,364.7c8.5-1.5,16.8,0.8,25.3-1.8c8.1-2.4,16.5-3.4,24.4-6.5c4.5-1.7,7.7-6.1,6.3-11.1
			c-1.2-4.3-6.5-8-11.1-6.3c-8,3.1-16.3,4.1-24.4,6.5c-8.1,2.4-17,0.2-25.3,1.8c-4.8,0.9-7.5,6.7-6.3,11.1
			C823,363.4,827.8,365.6,832.6,364.7L832.6,364.7z"/>
	</g>
</g>
<g>
	<g>
		<path class="st2" d="M882.2,322.8c-0.3,0-0.6,0-1,0c2.1,5.1,4.2,10.2,6.4,15.4c-2,1.8-0.4,0.6,1.1,0.5c1.8-0.2,3.7-0.3,5.5-0.4
			c4.2-0.2,8.3-0.1,12.5-0.3c9.5-0.2,18.9-1.3,28.4-1.5c18.7-0.3,37.5,3.5,55.8,7.2c18.5,3.7,36,10.8,53.9,16.3
			c8.5,2.6,16.9,4.9,25.2,8.4c8.4,3.6,16.7,7.6,25.6,10.1c11.2,3.1,15.9-14.2,4.8-17.4c-9.2-2.6-17.9-6.9-26.7-10.6
			c-9-3.8-18.3-6.1-27.6-9.1c-19.1-6.2-37.9-12.9-57.8-16.5c-20.2-3.6-40.2-7.3-60.8-6.1c-10,0.6-19.9,1-29.8,1.3
			c-7.8,0.2-16.6-0.1-22.8,5.3c-6.2,5.4-0.9,15.1,6.4,15.4c0.3,0,0.6,0,1,0C893.8,341.2,893.8,323.2,882.2,322.8L882.2,322.8z"/>
	</g>
</g>
<g>
	<g>
		<path class="st2" d="M860.9,357.7c7,1.7,15.8-0.9,22.8-2.1c8.6-1.4,17.4-1.9,26-3.2c4.8-0.7,7.5-6.8,6.3-11.1
			c-1.4-5.1-6.2-7-11.1-6.3c-7.4,1.1-14.8,1.4-22.2,2.5c-3.4,0.5-6.9,1.1-10.3,1.7c-1.9,0.3-5.1,1.4-6.7,1
			C854.4,337.6,849.6,354.9,860.9,357.7L860.9,357.7z"/>
	</g>
</g>
<g>
	<g>
		<path class="st2" d="M870.1,357.4c5.8-1.1,11.3-3.1,17.3-2.6c-2.1-5.1-4.2-10.2-6.4-15.4c-0.3,0.3-0.7,0.6-1,0.9
			c1.3-0.8,2.6-1.5,4-2.3c-0.1,0-0.1,0.1-0.2,0.1c0.8,5.9,1.6,11.8,2.4,17.7c6.4-2.6,14.2-2.9,21-3.9c6.8-1,14.3-2.8,21.2-2.7
			c-1.5-5.6-3-11.2-4.5-16.8c-0.5,0.3-2.3,0-2.9,0c-11.6,0-11.6,18,0,18c4.2,0,8.2-0.3,12-2.4c7.9-4.5,4.2-16.6-4.5-16.8
			c-3.9-0.1-7.7,0.9-11.6,1.5c-4.2,0.7-8.5,1-12.7,1.6c-7.3,1.1-15.9,1.3-22.7,4.1c-4.1,1.7-7.2,5.1-6.4,9.9
			c0.6,4.1,4.3,8.2,8.8,7.8c4-0.4,6.8-1.2,9.9-4c6.2-5.7,0.9-14.7-6.4-15.4c-7.6-0.6-14.7,1.9-22.1,3.2c-4.8,0.9-7.5,6.7-6.3,11.1
			C860.5,356.2,865.3,358.3,870.1,357.4L870.1,357.4z"/>
	</g>
</g>
<g>
	<g>
		<path class="st2" d="M878.4,352.6c4.7,4,9.1,3.6,14.6,1.8c5-1.6,11.3-3.1,16.5-3.3c2.6-0.1,5.2,0.5,7.8,0.3c2.5-0.1,5-0.5,7.5-0.8
			c6.4-0.6,12.9-0.7,19.3-0.7c11.6,0,11.6-18,0-18c-5.3,0-10.6,0.2-15.9,0.4c-5,0.3-9.9,1.3-14.9,1c-5.3-0.4-9.8,0.6-15,1.6
			c-2.4,0.5-4.9,0.8-7.3,1.4c-0.9,0.2-2.3,0.4-3.2,0.9c-1.2,0.6-2.9,0.2,0.1,0.8c1.3,0.8,2.6,1.5,4,2.3c-0.2-0.2-0.4-0.4-0.7-0.6
			c-3.7-3.2-9.1-3.6-12.7,0C875.2,343.1,874.7,349.4,878.4,352.6L878.4,352.6z"/>
	</g>
</g>
<g>
	<g>
		<path class="st2" d="M965.4,322.8c-0.2,0.1-0.4,0.2-0.6,0.2c2.3,0.3,4.6,0.6,6.9,0.9c-0.2-0.1-0.3-0.2-0.5-0.2
			c0,5.2,0,10.4,0,15.5c1.5-0.9,2.9-0.3,4.8,0c2.8,0.4,5.6,0.7,8.3,1.5c11.2,2.9,16-14.4,4.8-17.4c-8.5-2.2-19-4.3-27,0.4
			c-5.5,3.3-6.2,12.4,0,15.5c2.5,1.2,5.3,2,8,0.9c4.5-1.9,7.7-6,6.3-11.1C975.3,324.9,969.9,320.9,965.4,322.8L965.4,322.8z"/>
	</g>
</g>
<g>
	<g>
		<path class="st2" d="M1105.4,376.6c0.1-0.7,0.2-1.3,0.5-1.9c-1.4,1.8-2.8,3.6-4.1,5.4c0.2-0.1,0.5-0.2,0.7-0.3
			c-1.5,0.4-3,0.8-4.5,1.2c3.6,0,7.3-0.4,10.8,0.5c3.8,1,7.6,2.1,11.2,3.5c8,3.2,16.1,6.2,24.3,9.2c16.4,5.9,32.9,11.3,49.6,16.2
			c34.3,10.2,70.3,17.6,106.2,19.5c20.4,1.1,40.8-0.1,60.8-4.1c11.4-2.2,6.5-19.6-4.8-17.4c-36.3,7.1-73.7,3.4-109.6-3.8
			c-36.2-7.2-71.5-18.2-106-31.1c-8.9-3.3-17.6-7-26.8-9.5c-8.5-2.3-23.4-3.6-25.6,7.7c-0.9,4.8,1.3,9.7,6.3,11.1
			C1098.7,384.1,1104.5,381.4,1105.4,376.6L1105.4,376.6z"/>
	</g>
</g>
<g>
	<g>
		<path class="st2" d="M1287,427c12.3,0,24.5,0.4,36.8,0c12.1-0.4,23.9-2.5,35.9-3.7c4.8-0.5,9-3.8,9-9c0-4.5-4.1-9.5-9-9
			c-12,1.2-23.8,3.3-35.9,3.7c-12.3,0.4-24.5,0-36.8,0C1275.4,409,1275.4,427,1287,427L1287,427z"/>
	</g>
</g>
<g>
	<g>
		<path class="st2" d="M1019.8,355.9c2.1,8.8,16.8,10.7,23.9,13.2c7.5,2.6,14.8,5.6,22.4,7.9c8.3,2.5,16.7,5.7,25.3,7.4
			c11.3,2.3,16.1-15,4.8-17.4c-7.3-1.5-14.4-4.3-21.6-6.3c-7.6-2.2-15.1-4.8-22.6-7.7c-3.4-1.3-6.9-2.4-10.4-3.6
			c-2-0.6-3.9-1.3-5.8-2c-0.4-0.2-0.9-0.3-1.3-0.5c0.8,0.3,0.9,0.4,0.4,0.1c-0.3-0.1-0.6-0.3-0.8-0.4c1.1,1,1.4,1.3,0.9,0.7
			c0.8,1.3,1.5,2.6,2.3,4c0-0.1,0-0.1,0-0.2C1034.5,339.8,1017.1,344.6,1019.8,355.9L1019.8,355.9z"/>
	</g>
</g>
<g>
	<g>
		<path class="st2" d="M1064.1,368.4c1,5.6,6.8,9.5,11.1,12.4c5.9,4.1,12.8,5.7,19.5,8.1c14.8,5.3,29.6,10.6,44.2,16.2
			c14.8,5.6,30,9.9,44.9,15.3c7.4,2.6,14.8,5.4,22.3,7.8c7.6,2.4,15.6,3.5,23.3,5.4c11.2,2.9,16-14.5,4.8-17.4
			c-6.8-1.7-13.8-2.7-20.6-4.6c-7.2-2-14.2-4.8-21.3-7.3c-13.8-4.8-27.7-9.1-41.5-13.9c-13.6-4.8-27.4-9.6-40.9-14.8
			c-6.3-2.4-12.7-4.6-19.1-6.9c-2.6-0.9-4.9-2.3-7.1-3.9c-0.5-0.4-1.3-1.1-1.8-1.3c-1.1-0.6-0.7-1.3-0.5,0.1
			c-0.8-4.8-6.7-7.5-11.1-6.3C1065.3,358.7,1063.2,363.6,1064.1,368.4L1064.1,368.4z"/>
	</g>
</g>
<g>
	<g>
		<path class="st2" d="M1250.6,410.9C1250.3,410.8,1250.6,411,1250.6,410.9c-0.2-0.1,0.1,0.2,0.2,0.2c0.1,0.1,0.1,0.2,0.1,0.3
			c0,0.1,0,0.1,0,0c0,0,0,0.3,0,0.1c0.1-0.3-0.1,0.2,0-0.1c0-0.1,0.1-0.2,0.1-0.2c0.2-0.3-0.2,0.2,0.1-0.2c0.1-0.1,0.2-0.2,0.3-0.3
			c0.2-0.2,0.7-0.5,1-0.6c0.4-0.1,0.7-0.2,1,0c1.7,0.9,3.2-1.7,1.5-2.6c-2.1-1-4.5-0.4-6,1.3c-0.6,0.7-1.1,1.6-1.1,2.6
			c0,1.2,0.9,2,1.9,2.3C1251.6,414.3,1252.4,411.4,1250.6,410.9L1250.6,410.9z"/>
	</g>
</g>
<g>
	<g>
		<path class="st2" d="M1252.6,410.7c-0.2,0.1-0.3,0.2-0.5,0.3c0.7,0.2,1.4,0.4,2.1,0.5c-1.1-1.6,5-1.5,5.3-1.5
			c2.7,0.2,5.3,0.9,7.9,1.2c4.8,0.7,9.7,0.7,14.6,0.9c1.7,0.1,2.1-2.6,0.4-2.9c-5.6-1-11.3-0.9-16.9-1.6c-2.6-0.3-5.1-0.8-7.7-1.1
			c-2.9-0.3-6.1,0-8.8-1.3c-0.4,0.9-0.8,1.8-1.2,2.7c2.7,0.5,5.4,0.2,8.2,0.6c0.1-1,0.3-2,0.4-2.9c-1.9,0-3.6-0.6-5.4-0.6
			c-1.9,0-1.9,3,0,3c1.9,0,3.6,0.6,5.4,0.6c1.6,0,2.1-2.7,0.4-2.9c-2.7-0.5-5.5-0.1-8.2-0.6c-1.5-0.3-2.8,2-1.2,2.7
			c4.3,2,9.2,1.5,13.9,2.2c6.7,1,13.5,0.8,20.2,2c0.1-1,0.3-2,0.4-2.9c-5.3-0.2-10.5-0.2-15.8-1.1c-3.4-0.6-6.8-1.5-10.2-1
			c-3.3,0.4-6.9,2.4-4.4,6c0.4,0.7,1.3,1,2.1,0.5c0.2-0.1,0.3-0.2,0.5-0.3C1255.7,412.3,1254.2,409.7,1252.6,410.7L1252.6,410.7z"/>
	</g>
</g>
<g>
	<g>
		<path class="st2" d="M1361.3,404.9c1.4-1.9,4.5-2.6,6.4-4c-0.7-0.7-1.4-1.4-2.1-2.1c-1.7,1.9-3.5,3.5-5.1,5.5
			c-0.9,1.2,0.9,2.9,2.1,2.1c0.6-0.5,1.1-0.8,1.9-1c-0.6-0.7-1.1-1.5-1.7-2.2c-0.5,0.8-1,1.6-1.5,2.4c-1,1.5,1.1,2.8,2.4,1.8
			c0.5-0.4,1-0.8,1.5-1.2c-0.7-0.7-1.4-1.4-2.1-2.1c-0.3,0.4-0.6,0.8-0.9,1.2c-0.7,1,0.2,2.3,1.3,2.3c0.2,0,0.4,0,0.6,0
			c-0.5-0.6-1-1.3-1.4-1.9c-0.1,0.8-0.2,1.3-0.2,2.1c0,1.1,1.3,1.9,2.3,1.3c0.4-0.2,0.8-0.4,1.1-0.7c-0.8-0.4-1.5-0.9-2.3-1.3
			c0,1-0.4,2-0.7,3c-0.5,1.5,1.4,2.4,2.5,1.5c0.2-0.2,0.4-0.3,0.6-0.5c-0.9-0.4-1.7-0.7-2.6-1.1c-0.1,0.5-0.1,1-0.2,1.5
			c-0.2,1.9,2.8,1.9,3,0c0-0.5,0.1-1,0.2-1.5c0.2-1.4-1.7-1.8-2.6-1.1c-0.2,0.2-0.4,0.3-0.6,0.5c0.8,0.5,1.7,1,2.5,1.5
			c0.4-1.3,0.7-2.4,0.8-3.8c0-1.1-1.3-1.9-2.3-1.3c-0.4,0.3-0.8,0.4-1.1,0.7c0.8,0.4,1.5,0.9,2.3,1.3c0-0.4,0-0.9,0.1-1.3
			c0.1-0.9-0.4-1.9-1.4-1.9c-0.2,0-0.4,0-0.6,0c0.4,0.8,0.9,1.5,1.3,2.3c0.1-0.2,0.3-0.4,0.4-0.6c1.2-1.5-0.6-3.3-2.1-2.1
			c-0.5,0.4-1,0.8-1.5,1.2c0.8,0.6,1.6,1.2,2.4,1.8c0.5-0.8,1.1-1.6,1.5-2.4c0.7-1.1-0.4-2.5-1.7-2.2c-1,0.3-1.8,0.7-2.7,1.3
			c0.7,0.7,1.4,1.4,2.1,2.1c1.4-1.8,3.1-3.2,4.6-4.9c1.3-1.5-0.6-3.3-2.1-2.1c-2.2,1.7-5.1,2.2-6.8,4.6
			C1357.6,405,1360.2,406.5,1361.3,404.9L1361.3,404.9z"/>
	</g>
</g>
<g>
	<g>
		<path class="st2" d="M1365.9,405.3c-0.1-0.7-0.1-1.4-0.1-2.1c-1,0.1-2,0.3-2.9,0.4c1.3,3.2,0.3,7,0.3,10.4c0,1.9,3,1.9,3,0
			c0.1-3.7,1-7.7-0.4-11.2c-0.6-1.5-2.9-1.4-2.9,0.4c0,1,0.1,1.9,0.2,2.9C1363.4,408,1366.2,407.2,1365.9,405.3L1365.9,405.3z"/>
	</g>
</g>
<g>
	<g>
		<path class="st2" d="M1362.7,404c0.1,3,0.1,6-0.2,9c-0.2,1.9,2.8,1.9,3,0c0.3-3,0.2-6,0.2-9C1365.6,402.1,1362.6,402.1,1362.7,404
			L1362.7,404z"/>
	</g>
</g>
<g>
	<g>
		<path class="st2" d="M1361.2,411.6c-0.3-0.3-0.7-0.5-1.2-0.5c-0.6,0-1.3,0.5-1.4,1.1c0,0,0,0.1,0,0.1c-0.2,0.8,0.2,1.7,1,1.8
			c0.8,0.2,1.6-0.2,1.8-1c0,0,0-0.1,0-0.1c-0.5,0.4-1,0.7-1.4,1.1c0,0,0,0,0.1,0c-0.4-0.1-0.7-0.3-1.1-0.4c0,0,0.1,0.1,0.1,0.1
			c0.5,0.6,1.6,0.6,2.1,0C1361.8,413.1,1361.8,412.2,1361.2,411.6L1361.2,411.6z"/>
	</g>
</g>
<g>
	<g>
		<path class="st2" d="M1358.5,413.5c0,0.3,0,0.7,0,1c0,0.8,0.7,1.5,1.5,1.5c0.8,0,1.5-0.7,1.5-1.5c0-0.3,0-0.7,0-1
			c0-0.8-0.7-1.5-1.5-1.5C1359.2,412,1358.5,412.7,1358.5,413.5L1358.5,413.5z"/>
	</g>
</g>
<g>
	<g>
		<path class="st2" d="M1361.7,416.8c0.8,1.4,0.3,3.4,0.3,4.9c0,1.9,3,1.9,3,0c0-2.2,0.5-4.5-0.7-6.4
			C1363.3,413.6,1360.7,415.1,1361.7,416.8L1361.7,416.8z"/>
	</g>
</g>
</svg>
