<svg xmlns="http://www.w3.org/2000/svg" viewBox="0 0 512 512"><path d="m454.2 89.5h-75v22.2h10.8c7.2 0 13 5.8 13 13s-5.8 13-13 13h-47.5c-7.2 0-13-5.8-13-13s5.8-13 13-13h10.8v-22.2h-194.5v22.2h10.8c7.2 0 13 5.8 13 13s-5.8 13-13 13h-47.5c-7.2 0-13-5.8-13-13s5.8-13 13-13h10.8v-22.2h-75c-28.7 0-51.9 23.2-51.9 51.9v229.3c0 28.6 23.2 51.8 51.8 51.8h396.4c28.6 0 51.8-23.2 51.8-51.8v-229.3c0-28.7-23.2-51.9-51.8-51.9zm-305.6 96.9c24.4 0 44.2 19.8 44.2 44.2s-19.8 44.2-44.2 44.2-44.2-19.8-44.2-44.2 19.8-44.2 44.2-44.2zm-96.5 177.3c0-45.4 36.8-82.2 82.2-82.2h28.7c45.4 0 82.2 36.8 82.2 82.2zm396.8-15.9h-159.8c-6 0-10.9-4.9-10.9-10.9 0-6 4.9-10.9 10.9-10.9h159.9c6 0 10.9 4.9 10.9 10.9 0 6-4.9 10.9-11 10.9zm0-61.8h-159.8c-6 0-10.9-4.9-10.9-10.9 0-6 4.9-10.9 10.9-10.9h159.9c6 0 10.9 4.9 10.9 10.9 0 6-4.9 10.9-11 10.9zm0-61.8h-159.8c-6 0-10.9-4.9-10.9-10.9 0-6 4.9-10.9 10.9-10.9h159.9c6 0 10.9 4.9 10.9 10.9 0 6-4.9 10.9-11 10.9z" fill="#002139"/></svg>