<?xml version="1.0" encoding="utf-8"?>
<!-- Generator: Adobe Illustrator 22.1.0, SVG Export Plug-In . SVG Version: 6.00 Build 0)  -->
<svg version="1.1" xmlns="http://www.w3.org/2000/svg" xmlns:xlink="http://www.w3.org/1999/xlink" x="0px" y="0px"
	 viewBox="0 0 500 500" style="enable-background:new 0 0 500 500;" xml:space="preserve">
<g id="Floor">
	<ellipse id="Floor_18_" style="fill:#F5F5F5;" cx="249.05" cy="313.84" rx="211.54" ry="133.12"/>
</g>
<g id="Shadow">
	<ellipse id="XMLID_5454_" style="fill:#E0E0E0;" cx="322.65" cy="390.86" rx="46.65" ry="26.93"/>
</g>
<g id="Mesh">
	<g id="XMLID_5374_">
		<path id="XMLID_5965_" style="opacity:0.3;" d="M60.96,196.5l0.18,0.11c-0.08-0.05-0.16-0.09-0.23-0.13
			c-0.15-0.09-0.29-0.17-0.43-0.25L60.96,196.5z"/>
		<path id="XMLID_5948_" style="fill:#27DEBF;" d="M57.71,194.02c-0.04,0.12-0.04,0.25-0.01,0.36c-0.04-0.11-0.04-0.23,0-0.36
			l0.66-2.2L57.71,194.02z"/>
		<path id="XMLID_5939_" style="opacity:0.4;fill:#FFFFFF;" d="M57.71,194.02c-0.04,0.12-0.04,0.25-0.01,0.36
			c-0.04-0.11-0.04-0.23,0-0.36l0.66-2.2L57.71,194.02z"/>
		<g id="XMLID_5886_">
			<path id="XMLID_5887_" style="fill:#27DEBF;" d="M123.17,162.29l-12.29-7.12c-0.08-0.06-0.14-0.09-0.14-0.09
				c-0.07-0.03-0.15-0.04-0.23-0.04c-0.3-0.17-0.62-0.36-0.95-0.54c-0.42-0.24-0.86-0.5-1.31-0.76c-1.8-1.05-3.78-2.19-5.3-3.07
				c-0.29-0.17-0.57-0.33-0.82-0.48c-0.98-0.57-1.63-0.94-1.67-0.97c-0.15-0.09-0.36-0.14-0.61-0.11l-6.19,0.61
				c-0.37,0.04-0.76,0.23-1.03,0.49c-0.15,0.13-0.26,0.29-0.32,0.45l-3.36,9c-0.01,0.02-0.01,0.04-0.03,0.06
				c-0.03,0.06-0.06,0.11-0.09,0.17s-0.07,0.12-0.13,0.18c-0.07,0.09-0.15,0.18-0.23,0.26c-0.19,0.19-0.41,0.37-0.64,0.51
				c-0.08,0.05-0.15,0.09-0.23,0.13c-0.65,0.3-1.31,0.65-1.97,1.03l-6.49-3.76c-0.08-0.05-0.17-0.08-0.28-0.08
				c-0.23,0-0.49,0.13-0.72,0.38h-0.01l-4.06,4.29l-2.73,2.88c-0.23,0.24-0.39,0.55-0.48,0.85c-0.08,0.23-0.1,0.46-0.05,0.64
				l1.9,6.4c0.02,0.07,0.03,0.15,0.02,0.23c0.02,0.12,0.01,0.26-0.03,0.41c-0.01,0.08-0.03,0.17-0.06,0.26c0,0.03,0,0.05-0.01,0.06
				c-0.01,0.04-0.02,0.08-0.04,0.11c-0.02,0.07-0.04,0.14-0.08,0.2c-0.04,0.1-0.09,0.19-0.15,0.28c-1.16,1.75-2.21,3.58-3.12,5.43
				c-0.04,0.07-0.08,0.14-0.15,0.21c-0.05,0.07-0.12,0.14-0.19,0.21c-0.31,0.32-0.73,0.57-1.14,0.67l-5.81,1.4
				c-0.43,0.1-0.85,0.38-1.11,0.71c-0.1,0.13-0.17,0.26-0.21,0.39l-0.36,1.22l-1.91,6.43l-0.65,2.2c-0.04,0.12-0.04,0.25-0.01,0.36
				c0.02,0.07,0.04,0.13,0.08,0.19c0.04,0.06,0.09,0.12,0.15,0.16c0.01,0.01,0.04,0.03,0.1,0.07l0.98,0.57l0.27,0.15v0.01l0.78,0.45
				l0.42,0.25l0.48,0.27l0.18,0.11l0.51,0.29l2.83,1.63c0.02,0.01,0.03,0.02,0.03,0.02c-0.01,0.9,0.03,1.78,0.11,2.64
				c0.02,0.2-0.03,0.45-0.12,0.72c-0.1,0.3-0.26,0.61-0.45,0.84l-5.93,7.18c-0.18,0.21-0.31,0.48-0.37,0.74
				c-0.01,0.07-0.03,0.14-0.04,0.21c-0.03,0.2-0.02,0.38,0.05,0.52l2.82,6.23c0.02,0.04,0.04,0.08,0.08,0.12
				c0.02,0.03,0.06,0.06,0.1,0.08l0.02,0.02c0.23,0.13,2.04,1.17,4.21,2.44c0.36,0.2,0.73,0.42,1.11,0.64
				c1.4,0.81,2.87,1.65,4.1,2.37c0.16,0.09,0.32,0.19,0.48,0.28c1.35,0.78,2.35,1.36,2.55,1.47c-0.07-0.05-0.12-0.1-0.16-0.19
				l-2.81-6.22c-0.09-0.19-0.09-0.47-0.01-0.75c0.07-0.25,0.19-0.51,0.37-0.72l5.92-7.18c0.2-0.24,0.36-0.55,0.47-0.86
				c0.09-0.26,0.13-0.51,0.11-0.71c-0.15-1.62-0.15-3.34,0.01-5.11c0.04-0.45-0.35-0.84-0.89-0.87l-5.32-0.3
				c-0.16-0.01-0.3-0.05-0.42-0.12c-0.01,0-0.02-0.01-0.03-0.02c-0.25-0.16-0.36-0.44-0.27-0.74l2.57-8.65l0.36-1.21
				c0.04-0.14,0.13-0.28,0.24-0.41c0.25-0.31,0.66-0.58,1.07-0.68l5.82-1.4c0.41-0.1,0.85-0.37,1.16-0.69
				c0.13-0.13,0.24-0.27,0.31-0.41c0.93-1.85,1.97-3.67,3.13-5.42c0.25-0.39,0.41-0.94,0.37-1.34v-0.01c0-0.08-0.01-0.14-0.03-0.2
				l-1.89-6.4c-0.05-0.19-0.03-0.44,0.06-0.7c0.09-0.28,0.26-0.57,0.47-0.79l0.09-0.09l6.7-7.09c0.31-0.32,0.68-0.44,0.94-0.33
				l0.05,0.03c0.06,0.03,0.12,0.08,0.16,0.15l3.16,4.83c0.23,0.35,0.81,0.32,1.33-0.03c1.28-0.88,2.56-1.62,3.83-2.22
				c0.55-0.26,1.15-0.81,1.33-1.26c0.01-0.01,0.02-0.03,0.02-0.04l3.36-9c0.06-0.17,0.18-0.33,0.33-0.47
				c0.27-0.25,0.65-0.44,1.02-0.47l6.19-0.62c0.21-0.02,0.4,0.01,0.54,0.08c0.02,0.01,0.03,0.01,0.04,0.02
				c0.22,0.13,0.33,0.36,0.27,0.63l-1.95,8.85c-0.1,0.46,0.2,0.94,0.64,1.11c0.98,0.38,1.88,0.9,2.7,1.57
				c0.33,0.27,0.94,0.18,1.39-0.23l6.32-5.78C122.62,162.29,122.94,162.2,123.17,162.29z"/>
			<path id="XMLID_5934_" style="fill:#27DEBF;" d="M119.48,181.6c0,0.81-0.05,1.64-0.12,2.48c-0.04,0.45,0.36,0.83,0.89,0.87
				l5.31,0.3c0.15,0,0.28,0.04,0.39,0.09C125.58,185.13,122.49,183.34,119.48,181.6z"/>
			<path id="XMLID_5936_" style="fill:#27DEBF;" d="M101.54,216.94c-0.22-0.35-0.8-0.32-1.32,0.03c-0.62,0.42-1.25,0.82-1.86,1.18
				l6.51,3.78v-0.01c-0.06-0.03-0.11-0.08-0.16-0.14L101.54,216.94z"/>
			<path id="XMLID_5937_" style="fill:#27DEBF;" d="M84.6,220.35c-0.98-0.38-1.88-0.9-2.71-1.58c-0.33-0.27-0.93-0.17-1.38,0.24
				l-6.32,5.78c-0.24,0.21-0.49,0.32-0.69,0.32c3.53,2.05,9.65,5.59,10.04,5.81c-0.21-0.13-0.31-0.34-0.26-0.6l1.95-8.87
				C85.34,221.01,85.04,220.53,84.6,220.35z"/>
		</g>
		<g id="XMLID_5908_">
			<path id="XMLID_5979_" style="fill:#002139;" d="M103,204.21c-2.65,2.8-5.48,4.55-8.05,5.22c-0.11,0.03-0.22,0.06-0.34,0.08
				c-0.08,0.03-0.16,0.04-0.24,0.06c-0.19,0.03-0.37,0.06-0.55,0.09c-0.22,0.03-0.43,0.05-0.64,0.06c-0.14,0.01-0.27,0.01-0.4,0.01
				c-0.06,0.01-0.12,0.01-0.19,0c-2.54-0.02-4.65-1.31-5.83-3.91c-0.44-0.98-0.72-2.07-0.85-3.25c0.48-0.22,0.97-0.48,1.47-0.76
				c6.87-3.97,12.43-13.6,12.43-21.53c0-0.6-0.02-1.16-0.07-1.69c1.54-0.68,3.03-1,4.39-0.93h0.05c0.07,0,0.14,0.01,0.22,0.01
				c0.08,0.01,0.15,0.02,0.22,0.03c0.08,0,0.16,0.01,0.24,0.03c2.11,0.31,3.84,1.58,4.87,3.84
				C112.35,187.38,109.34,197.52,103,204.21z"/>
			<path id="XMLID_5885_" style="opacity:0.4;fill:#002139;" d="M103,204.21c-2.65,2.8-5.48,4.55-8.05,5.22
				c-0.11,0.03-0.22,0.06-0.34,0.08c-0.08,0.03-0.16,0.04-0.24,0.06c-0.19,0.03-0.37,0.06-0.55,0.09c-0.22,0.03-0.43,0.05-0.64,0.06
				c-0.14,0.01-0.27,0.01-0.4,0.01c-0.06,0.01-0.12,0.01-0.19,0c-2.54-0.02-4.65-1.31-5.83-3.91c-0.44-0.98-0.72-2.07-0.85-3.25
				c0.48-0.22,0.97-0.48,1.47-0.76c6.87-3.97,12.43-13.6,12.43-21.53c0-0.6-0.02-1.16-0.07-1.69c1.54-0.68,3.03-1,4.39-0.93h0.05
				c0.07,0,0.14,0.01,0.22,0.01c0.08,0.01,0.15,0.02,0.22,0.03c0.08,0,0.16,0.01,0.24,0.03c2.11,0.31,3.84,1.58,4.87,3.84
				C112.35,187.38,109.34,197.52,103,204.21z"/>
			<g id="XMLID_5931_">
				<path id="XMLID_5935_" style="fill:#002139;" d="M125.97,185.36c-0.01-0.01-0.02-0.01-0.03-0.02c-0.1-0.06-0.24-0.09-0.39-0.1
					l-5.31-0.3c-0.54-0.03-0.94-0.42-0.89-0.86c0.07-0.84,0.12-1.67,0.12-2.48c0.01-0.9-0.03-1.78-0.12-2.64
					c-0.04-0.42,0.21-1.12,0.58-1.57l5.92-7.17c0.37-0.45,0.53-1.11,0.36-1.48l-2.82-6.22c-0.04-0.09-0.1-0.15-0.17-0.2
					c-0.01-0.01-0.02-0.01-0.04-0.02c-0.23-0.12-0.58-0.02-0.91,0.28l-6.33,5.78c-0.45,0.41-1.05,0.5-1.38,0.23
					c-0.82-0.67-1.73-1.19-2.71-1.57c-0.43-0.17-0.73-0.65-0.64-1.11l1.95-8.86c0.06-0.27-0.05-0.5-0.27-0.62
					c-0.15-0.09-0.36-0.12-0.59-0.1l-6.19,0.62c-0.58,0.06-1.18,0.48-1.35,0.94l-3.35,9c-0.17,0.47-0.78,1.03-1.35,1.3
					c-1.27,0.6-2.55,1.34-3.83,2.22c-0.52,0.35-1.1,0.37-1.33,0.03l-3.16-4.84c-0.23-0.34-0.73-0.27-1.14,0.15l-6.79,7.18
					c-0.41,0.43-0.64,1.1-0.53,1.49l1.89,6.41c0.12,0.39-0.04,1.08-0.34,1.54c-1.16,1.76-2.2,3.57-3.13,5.42
					c-0.23,0.47-0.89,0.96-1.47,1.1l-5.81,1.4c-0.59,0.14-1.18,0.63-1.32,1.09l-2.93,9.85c-0.14,0.46,0.19,0.86,0.72,0.89l5.31,0.3
					c0.54,0.03,0.93,0.42,0.89,0.86c-0.16,1.77-0.17,3.49-0.01,5.12c0.04,0.43-0.21,1.13-0.58,1.57l-5.92,7.18
					c-0.37,0.44-0.53,1.1-0.36,1.47l2.82,6.22c0.04,0.09,0.1,0.15,0.17,0.2c0,0.01,0,0.01,0.01,0.01c0.01,0.01,0.01,0.01,0.02,0.01
					c0.07,0.04,0.14,0.06,0.22,0.06h0.01c0.21,0,0.45-0.11,0.69-0.32l6.32-5.78c0.45-0.4,1.05-0.5,1.38-0.23
					c0.83,0.67,1.73,1.19,2.71,1.57c0.44,0.17,0.74,0.65,0.64,1.11l-1.95,8.86c-0.06,0.26,0.05,0.48,0.26,0.61
					c0.01,0.01,0.01,0.01,0.02,0.01c0.15,0.09,0.35,0.13,0.58,0.1l6.19-0.61c0.58-0.06,1.18-0.48,1.35-0.94l3.36-9
					c0.17-0.47,0.78-1.03,1.35-1.31c0.65-0.31,1.31-0.65,1.96-1.03c0.62-0.36,1.24-0.76,1.87-1.18c0.51-0.35,1.1-0.38,1.32-0.04
					l3.17,4.84c0.04,0.06,0.09,0.11,0.15,0.14c0.26,0.16,0.65,0.05,0.99-0.3l6.8-7.18c0.4-0.42,0.64-1.1,0.52-1.49l-1.89-6.4
					c-0.12-0.4,0.05-1.09,0.35-1.54c1.16-1.76,2.2-3.58,3.12-5.43c0.23-0.47,0.89-0.95,1.48-1.1l5.81-1.4
					c0.59-0.14,1.18-0.63,1.32-1.1l2.93-9.85C126.38,185.81,126.25,185.52,125.97,185.36z M94.95,209.42
					c-0.12,0.03-0.23,0.06-0.34,0.09c-0.09,0.02-0.17,0.04-0.24,0.06c-0.18,0.04-0.37,0.07-0.55,0.09
					c-0.22,0.03-0.43,0.05-0.64,0.06c-0.13,0.01-0.27,0.01-0.4,0.01c-0.06,0-0.12,0-0.19,0c-2.54-0.03-4.65-1.32-5.83-3.92
					c-0.44-0.97-0.72-2.07-0.85-3.24c-0.07-0.58-0.1-1.18-0.1-1.8c0.04-5.61,2.92-12.56,7.67-17.59c1.54-1.62,3.12-2.89,4.69-3.8
					c0.52-0.31,1.05-0.58,1.56-0.8c1.54-0.68,3.03-0.99,4.39-0.93c0.02,0,0.03,0,0.05,0.01c0.07,0,0.15,0.01,0.22,0.01
					c0.08,0.01,0.15,0.01,0.23,0.02c0.08,0.01,0.16,0.01,0.24,0.03c2.11,0.31,3.84,1.58,4.87,3.84c2.63,5.81-0.39,15.94-6.73,22.63
					C100.34,207,97.52,208.76,94.95,209.42z"/>
			</g>
			<line id="XMLID_5929_" style="fill:#002139;" x1="110.73" y1="155.08" x2="123.24" y2="162.32"/>
		</g>
		<path id="XMLID_5910_" style="opacity:0.2;" d="M81.42,188.22c-0.31,0.32-0.75,0.59-1.16,0.69l-5.82,1.4
			c-0.41,0.1-0.82,0.37-1.07,0.68l-12.53-7.21c0.26-0.33,0.68-0.61,1.11-0.71l5.81-1.4c0.41-0.1,0.83-0.35,1.14-0.67h0.01
			L81.42,188.22z"/>
		<path id="XMLID_5959_" style="opacity:0.3;" d="M85.23,181.04l-12.5-7.21c0.01-0.08,0-0.16-0.02-0.23l-1.9-6.4
			c-0.05-0.18-0.03-0.41,0.05-0.64l9.55,5.48l2.96,1.7c-0.09,0.26-0.11,0.51-0.06,0.7l1.89,6.4
			C85.22,180.9,85.23,180.96,85.23,181.04z"/>
		<path id="XMLID_5940_" style="opacity:0.3;" d="M105.14,157.43c-0.15,0.14-0.27,0.3-0.33,0.47l-3.36,9c0,0.01-0.01,0.03-0.02,0.04
			l-12.51-7.22c0.02-0.02,0.02-0.04,0.03-0.06l3.36-9c0.06-0.16,0.17-0.32,0.32-0.45L105.14,157.43z"/>
		<path id="XMLID_5906_" style="opacity:0.3;" d="M123.17,162.29c-0.23-0.09-0.55,0.01-0.87,0.3l-6.32,5.78
			c-0.45,0.41-1.06,0.5-1.39,0.23c-0.82-0.67-1.72-1.19-2.7-1.57c-0.44-0.17-0.74-0.65-0.64-1.11l1.95-8.85
			c0.06-0.27-0.05-0.5-0.27-0.63c-0.01-0.01-0.02-0.01-0.04-0.02c-0.18-0.11-1.11-0.64-2.38-1.38c0.08,0,0.16,0.01,0.23,0.04
			c0,0,0.06,0.03,0.14,0.09L123.17,162.29z"/>
		<path id="XMLID_5905_" style="opacity:0.3;" d="M125.95,185.34c-0.11-0.05-0.24-0.09-0.39-0.09l-5.31-0.3
			c-0.53-0.04-0.93-0.42-0.89-0.87c0.07-0.84,0.12-1.67,0.12-2.48C122.49,183.34,125.58,185.13,125.95,185.34z"/>
		<path id="XMLID_5933_" style="opacity:0.4;" d="M104.87,221.91v0.01l-6.51-3.78c0.61-0.36,1.24-0.76,1.86-1.18
			c0.52-0.35,1.1-0.38,1.32-0.03l3.17,4.84C104.76,221.84,104.81,221.89,104.87,221.91z"/>
		<path id="XMLID_5930_" style="opacity:0.4;" d="M85.23,221.46l-1.95,8.87c-0.05,0.26,0.05,0.47,0.26,0.6
			c-0.39-0.22-6.51-3.76-10.04-5.81c0.2,0,0.45-0.11,0.69-0.32l6.32-5.78c0.45-0.41,1.05-0.51,1.38-0.24
			c0.83,0.68,1.73,1.2,2.71,1.58C85.04,220.53,85.34,221.01,85.23,221.46z"/>
		<path id="XMLID_5938_" style="opacity:0.2;" d="M77.01,209.13c-0.11,0.31-0.27,0.62-0.47,0.86l-5.92,7.18
			c-0.18,0.21-0.3,0.47-0.37,0.72l-12.5-7.22c0.06-0.26,0.19-0.53,0.37-0.74l5.93-7.18c0.19-0.23,0.35-0.54,0.45-0.84L77.01,209.13z
			"/>
		<path id="XMLID_5953_" style="opacity:0.1;" d="M101.43,166.94c-0.18,0.45-0.78,1-1.33,1.26c-1.27,0.6-2.55,1.34-3.83,2.22
			c-0.52,0.35-1.1,0.38-1.33,0.03l-3.16-4.83c-0.04-0.07-0.1-0.12-0.16-0.15l-0.05-0.03L85.63,162c0.66-0.38,1.32-0.73,1.97-1.03
			c0.08-0.04,0.15-0.08,0.23-0.13c0.23-0.14,0.45-0.32,0.64-0.51c0.08-0.08,0.16-0.17,0.23-0.26c0.06-0.06,0.1-0.12,0.13-0.18
			s0.06-0.11,0.09-0.17L101.43,166.94z"/>
		<path id="XMLID_5949_" style="opacity:0.4;" d="M77.12,208.41c0.02,0.2-0.02,0.45-0.11,0.71l-12.51-7.22
			c0.09-0.27,0.14-0.52,0.12-0.72c-0.08-0.86-0.12-1.74-0.11-2.64l5.96,3.45c0.01,0.01,0.02,0.02,0.03,0.02
			c0.12,0.07,0.26,0.11,0.42,0.12l5.32,0.3c0.54,0.03,0.93,0.42,0.89,0.87C76.97,205.08,76.97,206.79,77.12,208.41z"/>
		<path id="XMLID_5942_" style="opacity:0.1;" d="M85.23,181.04L85.23,181.04c0.04,0.41-0.12,0.96-0.37,1.35
			c-1.16,1.75-2.2,3.57-3.13,5.42c-0.07,0.14-0.18,0.28-0.31,0.41L68.91,181c0.07-0.06,0.14-0.14,0.18-0.21
			c0.07-0.07,0.11-0.14,0.15-0.21c0.91-1.85,1.96-3.68,3.12-5.43c0.06-0.09,0.11-0.18,0.15-0.28c0.04-0.06,0.06-0.13,0.08-0.2
			c0.02-0.03,0.03-0.07,0.04-0.11c0.01-0.01,0.01-0.03,0.01-0.06c0.03-0.09,0.05-0.18,0.06-0.26c0.04-0.15,0.05-0.29,0.03-0.41
			L85.23,181.04z"/>
		<path id="XMLID_5925_" style="opacity:0.3;" d="M69.09,180.79c-0.04,0.07-0.11,0.15-0.18,0.21H68.9
			C68.97,180.93,69.04,180.85,69.09,180.79z"/>
		<path id="XMLID_5932_" style="opacity:0.4;" d="M73.23,225.04c-0.2-0.11-1.2-0.69-2.55-1.47c-0.16-0.09-0.32-0.19-0.48-0.28
			c-1.23-0.72-2.7-1.56-4.1-2.37c-0.38-0.22-0.75-0.44-1.11-0.64c-2.17-1.27-3.98-2.31-4.21-2.44l-0.02-0.02
			c-0.04-0.02-0.08-0.05-0.1-0.08c-0.04-0.04-0.06-0.08-0.08-0.12l-2.82-6.23c-0.07-0.14-0.08-0.32-0.05-0.52
			c0.01-0.07,0.03-0.14,0.04-0.21l12.5,7.22c-0.08,0.28-0.08,0.56,0.01,0.75l2.81,6.22C73.11,224.95,73.16,225,73.23,225.04z"/>
		<path id="XMLID_5379_" style="opacity:0.3;" d="M60.84,183.78c-0.1,0.13-0.17,0.26-0.21,0.39l-0.36,1.22l-1.91,6.43l-0.65,2.2
			c-0.04,0.12-0.04,0.25-0.01,0.36c0.02,0.07,0.04,0.13,0.08,0.19c0.04,0.06,0.09,0.12,0.15,0.16c0.01,0.01,0.04,0.03,0.1,0.07
			l0.98,0.57l0.27,0.15v0.01l0.78,0.45l0.42,0.25l0.48,0.27l0.18,0.11l0.51,0.29l2.83,1.63c0.02,0.01,0.03,0.02,0.03,0.02l5.96,3.45
			c-0.25-0.16-0.36-0.44-0.27-0.74l2.57-8.65l0.36-1.21c0.04-0.14,0.13-0.28,0.24-0.41L60.84,183.78z"/>
		<path id="XMLID_5378_" style="opacity:0.5;fill:#FFFFFF;" d="M85.63,162l-6.49-3.76c-0.08-0.05-0.17-0.08-0.28-0.08
			c-0.23,0-0.49,0.13-0.72,0.38h-0.01l-4.06,4.29l-2.73,2.88c-0.23,0.24-0.39,0.55-0.48,0.85l9.55,5.48l2.96,1.7
			c0.09-0.28,0.26-0.57,0.47-0.79l0.09-0.09l6.7-7.09c0.31-0.32,0.68-0.44,0.94-0.33L85.63,162z"/>
		<path id="XMLID_5941_" style="opacity:0.5;fill:#FFFFFF;" d="M112.89,156.41c-0.14-0.07-0.33-0.1-0.54-0.08l-6.19,0.62
			c-0.37,0.03-0.75,0.22-1.02,0.47l-12.51-7.22c0.27-0.26,0.66-0.45,1.03-0.49l6.19-0.61c0.25-0.03,0.46,0.02,0.61,0.11
			c0.04,0.03,0.69,0.4,1.67,0.97c0.25,0.15,0.53,0.31,0.82,0.48c1.52,0.88,3.5,2.02,5.3,3.07c0.45,0.26,0.89,0.52,1.31,0.76
			c0.33,0.18,0.65,0.37,0.95,0.54C111.78,155.78,112.71,156.31,112.89,156.41z"/>
		<line id="XMLID_5926_" style="fill:none;" x1="110.88" y1="155.17" x2="110.73" y2="155.09"/>
	</g>
</g>
<g id="Device">
	<g id="Device_1_">
		<path id="XMLID_5657_" style="fill:#37474F;" d="M263.79,76.39c-0.27-2.01-1.89-2.74-3.83-1.61l-106.48,61.47
			c-2.13,1.24-3.87,4.24-3.87,6.71v234.96c0,2.27,1.47,3.31,3.38,2.48c-2.14,0.98-5.27,0.9-7.26-0.24l-4.44-2.55
			c-2.14-1.23-3.88-4.23-3.88-6.71V135.93c0-2.48,1.74-5.48,3.88-6.71l106.47-61.48c2.13-1.24,5.6-1.24,7.75,0l4.45,2.55
			C261.92,71.43,263.55,74.05,263.79,76.39z"/>
		<path id="XMLID_5667_" style="fill:#455A64;" d="M259.97,74.77l-106.48,61.47c-2.13,1.24-3.87,4.24-3.87,6.71v234.96
			c0,2.47,1.74,3.47,3.87,2.23l106.48-61.47c2.13-1.24,3.87-4.24,3.87-6.71V77.01C263.83,74.54,262.1,73.54,259.97,74.77z
			 M258.26,289.84c0,2.11-1.48,3.46-3.32,4.51l-96.81,55.89c-1.83,1.06-3.32,0.2-3.32-1.92V165.4c0-2.12,1.49-4.69,3.32-5.76
			l96.81-55.88c1.84-1.07,3.32-0.2,3.32,1.91V289.84z"/>
		<path id="XMLID_5659_" style="fill:#263238;" d="M153,380.39c-2.14,0.98-5.27,0.9-7.26-0.24l-4.44-2.55
			c-2.14-1.24-3.88-4.23-3.88-6.71V135.93c0-1.24,0.44-2.61,1.14-3.83l12.19,7.03c-0.7,1.22-1.14,2.59-1.14,3.82v234.96
			C149.62,380.19,151.09,381.22,153,380.39z"/>
		<path id="XMLID_5598_" style="fill:#263238;" d="M206.73,111.72c1.43-0.83,2.6-0.16,2.6,1.5c0,1.66-1.16,3.67-2.6,4.5
			c-1.43,0.83-2.6,0.16-2.6-1.5C204.13,114.56,205.29,112.54,206.73,111.72z"/>
		<g id="XMLID_5595_">
			<path id="XMLID_5597_" style="fill:#263238;" d="M199.23,124.68c5.27-2.92,14.68-8.52,19.88-11.57c0.88-0.52,1.6-0.16,1.6,0.8
				s-0.72,2.15-1.61,2.67l-19.92,11.5c-0.89,0.51-1.61,0.15-1.61-0.81C197.58,126.31,198.33,125.18,199.23,124.68z"/>
			<path id="XMLID_5596_" style="fill:#263238;" d="M194.2,127.59c0.81-0.46,1.46-0.09,1.46,0.84c0,0.93-0.65,2.06-1.46,2.52
				c-0.81,0.46-1.46,0.09-1.46-0.84C192.74,129.19,193.39,128.06,194.2,127.59z"/>
		</g>
		<path id="XMLID_5594_" style="fill:none;stroke:#E6E6E6;stroke-miterlimit:10;" d="M207.65,328.31c3.38-1.95,6.11-0.37,6.11,3.53
			c0,3.9-2.74,8.64-6.11,10.59c-3.38,1.95-6.11,0.37-6.11-3.53C201.53,335,204.27,330.26,207.65,328.31z"/>
		<path id="XMLID_5723_" style="fill:#37474F;" d="M258.26,105.67v184.18c0,2.11-1.48,4.69-3.32,5.74l-96.81,55.9
			c-1.83,1.05-3.32,0.2-3.32-1.92v-11.49l87.91-50.75c1.84-1.06,3.32-2.4,3.32-4.51V108.9l8.9-5.14
			C256.78,102.7,258.26,103.56,258.26,105.67z"/>
		<path id="XMLID_5718_" style="fill:#263238;" d="M254.94,103.76l-8.9,5.14v173.92c0,1.69-0.95,2.88-2.27,3.83l12.86,7.42
			c0.97-1.23,1.63-2.82,1.63-4.22V105.67C258.26,103.56,256.78,102.7,254.94,103.76z"/>
	</g>
</g>
<g id="Speach_Bubbles">
	<g id="XMLID_5904_">
		<g id="XMLID_5754_">
			<g id="XMLID_5758_">
				<g id="XMLID_5805_">
					<path id="XMLID_5806_" style="fill:#E0E0E0;" d="M163.66,292.41l-5.54-3.2c-0.11-0.05-0.2-0.12-0.26-0.23l-1.02-1.78l3.29-1.9
						l-0.1,0.29L163.66,292.41z"/>
				</g>
				<path id="XMLID_5775_" style="fill:#EBEBEB;" d="M159.63,285.57l3.83,6.64c0.24,0.42,0.88,0.36,1.04-0.1l4.05-11.7
					L159.63,285.57z"/>
				<path id="XMLID_5769_" style="fill:#EBEBEB;" d="M177.72,250.14c0-1.71-1.2-3.79-2.68-4.64l-2.18-1.26
					c-1.48-0.85-3.88-0.85-5.36,0l-43.39,25.03c-1.48,0.85-2.68,2.93-2.68,4.64v21.97c0,1.71,1.2,3.79,2.68,4.64l2.18,1.26
					c1.48,0.85,3.88,0.85,5.36,0l43.64-25.21c2.41-1.37,2.43-2.75,2.43-4.46L177.72,250.14z"/>
				<path id="XMLID_5768_" style="fill:#E0E0E0;" d="M121.44,295.88c0,1.71,1.2,3.79,2.68,4.64l2.18,1.26
					c1.34,0.77,3.42,0.85,4.9,0.22c-1.26,0.48-2.22-0.24-2.22-1.77l0-21.97c0-0.85,0.3-1.8,0.78-2.64l-7.54-4.35
					c-0.48,0.84-0.78,1.79-0.78,2.64V295.88z"/>
				<path id="XMLID_5759_" style="fill:#FAFAFA;" d="M177.63,249.38c-0.31-1.14-1.35-1.5-2.59-0.79l-43.39,25.03
					c-0.74,0.43-1.41,1.15-1.89,2l-7.54-4.35c0.49-0.85,1.15-1.58,1.89-2l43.38-25.03c1.49-0.85,3.89-0.85,5.36,0l2.19,1.26
					C176.31,246.23,177.37,247.85,177.63,249.38z"/>
			</g>
			<g id="XMLID_5755_">
				<path id="XMLID_5757_" style="fill:#455A64;" d="M136.18,279.85l30.99-17.98c0.9-0.52,1.62-0.28,1.62,0.53s-0.73,1.89-1.62,2.4
					l-30.99,17.98c-0.9,0.52-1.62,0.28-1.62-0.53C134.55,281.44,135.28,280.37,136.18,279.85z"/>
				<path id="XMLID_5756_" style="fill:#455A64;" d="M136.18,287.21l30.99-17.97c0.9-0.52,1.62-0.28,1.62,0.53
					c0,0.81-0.73,1.89-1.62,2.4l-30.99,17.97c-0.9,0.52-1.62,0.28-1.62-0.53C134.55,288.8,135.28,287.73,136.18,287.21z"/>
			</g>
		</g>
		<g id="XMLID_5807_">
			<g id="XMLID_5812_">
				<g id="XMLID_5817_">
					<path id="XMLID_5851_" style="fill:#27DEBF;" d="M92.74,300.52l-5.54-3.2c-0.11-0.05-0.2-0.12-0.26-0.23l-1.02-1.78l3.29-1.9
						l-0.1,0.29L92.74,300.52z"/>
					<path id="XMLID_5850_" style="opacity:0.2;" d="M92.74,300.52l-5.54-3.2c-0.11-0.05-0.2-0.12-0.26-0.23l-1.02-1.78l3.29-1.9
						l-0.1,0.29L92.74,300.52z"/>
				</g>
				<path id="XMLID_5816_" style="fill:#002139;" d="M88.71,293.68l3.83,6.64c0.24,0.42,0.88,0.36,1.04-0.1l4.05-11.7L88.71,293.68z
					"/>
				<path id="XMLID_5815_" style="fill:#002139;" d="M134.19,239.05c0-1.71-1.2-3.79-2.68-4.64l-2.18-1.26
					c-1.48-0.85-3.88-0.85-5.36,0L72.46,262.9c-1.48,0.85-2.68,2.93-2.68,4.64v25.28c0,1.71,1.2,3.79,2.68,4.64l2.18,1.26
					c1.48,0.85,3.88,0.85,5.36,0l51.76-29.93c2.41-1.37,2.43-2.75,2.43-4.46L134.19,239.05z"/>
				<path id="XMLID_5814_" style="opacity:0.2;" d="M69.78,292.82c0,1.71,1.2,3.79,2.68,4.64l2.18,1.26
					c1.34,0.77,3.42,0.85,4.9,0.22c-1.26,0.48-2.22-0.24-2.22-1.77l0-25.28c0-0.85,0.3-1.8,0.78-2.64l-7.54-4.35
					c-0.48,0.84-0.78,1.79-0.78,2.64V292.82z"/>
				<path id="XMLID_5813_" style="opacity:0.4;fill:#FFFFFF;" d="M134.1,238.29c-0.31-1.14-1.35-1.5-2.59-0.79L80,267.26
					c-0.74,0.42-1.41,1.15-1.89,2l-7.54-4.35c0.49-0.85,1.15-1.58,1.89-2l51.5-29.75c1.49-0.85,3.89-0.85,5.36,0l2.19,1.26
					C132.78,235.14,133.84,236.76,134.1,238.29z"/>
			</g>
			<g id="XMLID_5808_">
				<path id="XMLID_5811_" style="fill:#FFFFFF;" d="M84.52,278.99l27.85-16.13c0.9-0.52,1.62-0.28,1.62,0.53s-0.73,1.89-1.62,2.4
					l-27.85,16.13c-0.9,0.52-1.62,0.28-1.62-0.53C82.9,280.58,83.63,279.51,84.52,278.99z"/>
				<path id="XMLID_5810_" style="fill:#FFFFFF;" d="M84.52,286.35l39.11-22.7c0.9-0.52,1.62-0.28,1.62,0.53
					c0,0.81-0.73,1.89-1.62,2.4l-39.11,22.7c-0.9,0.52-1.62,0.28-1.62-0.53C82.9,287.94,83.63,286.87,84.52,286.35z"/>
				<path id="XMLID_5809_" style="fill:#FFFFFF;" d="M84.52,271.27l39.11-22.7c0.9-0.52,1.62-0.28,1.62,0.53
					c0,0.81-0.73,1.89-1.62,2.4l-39.11,22.7c-0.9,0.52-1.62,0.28-1.62-0.53C82.9,272.86,83.63,271.78,84.52,271.27z"/>
			</g>
		</g>
	</g>
	<g id="XMLID_6023_">
		<path id="XMLID_5920_" style="fill:#E0E0E0;" d="M439.67,108.88l-4.06-2.34v0c-0.47-0.28-1.12-0.24-1.84,0.18l-88.23,50.94
			c-1.43,0.83-2.6,2.84-2.6,4.5l0,45.59c0,0.84,0.3,1.43,0.79,1.69l0,0l4.05,2.34v-3.82l86-49.65c1.43-0.83,2.6-2.84,2.6-4.5v-43.25
			L439.67,108.88z"/>
		<path id="XMLID_5918_" style="fill:#FAFAFA;" d="M351.06,163.85l85.3-49.25v-4.03l3.3-1.68l-4.06-2.34v0
			c-0.47-0.28-1.12-0.24-1.84,0.18l-88.23,50.94c-0.72,0.41-1.37,1.13-1.84,1.94L351.06,163.85z"/>
		<path id="XMLID_5914_" style="fill:#F5F5F5;" d="M349.6,160l88.23-50.94c1.43-0.83,2.6-0.16,2.6,1.5v45.59
			c0,1.66-1.16,3.67-2.6,4.5L349.6,211.6c-1.43,0.83-2.6,0.16-2.6-1.5l0-45.59C347,162.85,348.17,160.83,349.6,160z"/>
		<g id="XMLID_5750_">
			<g id="XMLID_5915_">
				<path id="XMLID_5884_" style="fill:#002139;" d="M354.1,164.44l26.43-15.26c1.67-0.97,3.03-0.18,3.03,1.75l0,30.52
					c0,1.93-1.36,4.28-3.03,5.25l-26.43,15.26c-1.67,0.97-3.03,0.18-3.03-1.75l0-30.52C351.06,167.76,352.42,165.41,354.1,164.44z"
					/>
				<g id="XMLID_5751_">
					<path id="XMLID_5753_" style="fill:#0D5386;" d="M367.09,163.32c2.8-1.62,5.08-0.31,5.08,2.93c0,3.24-2.27,7.17-5.08,8.79
						c-2.8,1.62-5.08,0.31-5.08-2.93S364.28,164.94,367.09,163.32z"/>
					<path id="XMLID_5752_" style="fill:#0D5386;" d="M377.09,180.64c0-5.32-3.73-7.68-8.34-5.02l-2.88,1.66
						c-4.61,2.66-8.34,9.13-8.34,14.45v1.43l19.56-11.29V180.64z"/>
				</g>
			</g>
		</g>
		<path id="XMLID_5883_" style="fill:#E0E0E0;" d="M393.85,143.84l36.29-20.95c1.2-0.69,2.17-0.2,2.17,1.1c0,1.3-0.97,2.91-2.16,3.6
			l-36.29,20.95c-1.2,0.69-2.17,0.2-2.17-1.1C391.69,146.14,392.65,144.53,393.85,143.84z"/>
		<path id="XMLID_5917_" style="fill:#E0E0E0;" d="M393.85,153.22l36.29-20.95c1.2-0.69,2.17-0.2,2.17,1.1c0,1.3-0.97,2.91-2.16,3.6
			l-36.29,20.95c-1.2,0.69-2.17,0.2-2.17-1.1C391.69,155.52,392.65,153.91,393.85,153.22z"/>
		<path id="XMLID_5919_" style="fill:#E0E0E0;" d="M393.85,162.6l36.29-20.95c1.2-0.69,2.17-0.2,2.17,1.1c0,1.3-0.97,2.91-2.16,3.6
			l-36.29,20.95c-1.2,0.69-2.17,0.2-2.17-1.1C391.69,164.9,392.65,163.29,393.85,162.6z"/>
		<path id="XMLID_5921_" style="fill:#E0E0E0;" d="M393.85,171.98l36.29-20.95c1.2-0.69,2.17-0.2,2.17,1.1c0,1.3-0.97,2.91-2.16,3.6
			l-36.29,20.95c-1.2,0.69-2.17,0.2-2.17-1.1C391.69,174.28,392.65,172.67,393.85,171.98z"/>
	</g>
</g>
<g id="Window">
	<g id="XMLID_5528_">
		<path id="XMLID_5380_" style="opacity:0.2;fill:#0D5386;" d="M291.79,283.4c0,2.11-1.48,3.46-3.32,4.51l-96.81,55.89
			c-1.83,1.06-3.32,0.2-3.32-1.92V158.96c0-2.12,1.49-4.69,3.32-5.76l96.81-55.88c1.84-1.07,3.32-0.2,3.32,1.91V283.4z"/>
		<path id="XMLID_5628_" style="fill:#0D5386;" d="M190.18,344.76c-0.4,0-0.78-0.1-1.12-0.29c-0.79-0.46-1.22-1.37-1.22-2.58V158.96
			c0-2.3,1.57-5.02,3.57-6.19l96.82-55.88c1.05-0.61,2.06-0.69,2.85-0.24c0.79,0.45,1.22,1.37,1.22,2.58V283.4
			c0,2.6-2.04,4.07-3.57,4.95l-96.81,55.89C191.31,344.59,190.72,344.76,190.18,344.76z M289.96,97.36c-0.37,0-0.79,0.13-1.23,0.39
			l-96.82,55.88c-1.69,0.99-3.07,3.38-3.07,5.32v182.93c0,0.84,0.26,1.45,0.72,1.72c0.47,0.27,1.12,0.19,1.85-0.23l96.81-55.89
			c2.12-1.22,3.07-2.48,3.07-4.08V99.22c0-0.84-0.26-1.44-0.72-1.71C290.39,97.41,290.19,97.36,289.96,97.36z"/>
	</g>
</g>
<g id="Character">
	<g id="Character_12_">
		<g id="XMLID_6008_">
			<path id="XMLID_6009_" style="fill:#FFA8A7;" d="M344.46,273.8c0.7-26.05-1.39-32.29-8.32-37.06l-2.69,15.09
				c0,0,3.16,17.79,2.82,23.71c-0.3,5.2-0.8,11.71-2.03,15.92c-0.22,0.75-0.72,1.37-1.38,1.78c-1.77,1.1-2.48,2.24-3.81,3.63
				c-1.04,1.09-1.93,1.36-1.79,1.71c0.18,0.45,0.92,1.17,2.2,0.78c0.64-0.2,1.47-0.7,2.51-1.36c0,0-0.74,2.17-2.57,4.41
				c-2.48,3.04-2.58,4.9,2.41,4.94c3.13,0.03,5.63-1.9,7.99-8.81c0.68-1.99,1.74-5.13,2.2-7.75
				C343.2,283.97,344.35,277.99,344.46,273.8z"/>
		</g>
		<path id="XMLID_6007_" style="fill:#37474F;" d="M330.31,234.76c3.31-0.48,7.81,0.21,10.72,5.41c2.91,5.2,3.62,14.14,3.95,23.03
			c0,0-5.77,4.83-12.7,2.45L330.31,234.76z"/>
		<g id="XMLID_5972_">
			<g id="XMLID_5994_">
				<g id="XMLID_6005_">
					<path id="XMLID_6006_" style="fill:#263238;" d="M340.05,378.02c0.53,0.2,0.66,1.2,0.74,3.19c0.06,1.51,0.38,4.14-1.38,4.66
						c-1.76,0.52-4.35,0.26-5.48-1.16c-1.41-1.77-2.36-3.33-4.38-5.49c-1.75-1.88-3.64-3.63-4.34-6.26
						c-0.64-2.38-0.11-3.41,1.52-4.1c2.23-0.95,5.73,2.15,7.48,2.64C335.7,371.92,339.52,377.82,340.05,378.02z"/>
				</g>
				<g id="XMLID_6003_">
					<path id="XMLID_6004_" style="fill:#FFA8A7;" d="M340.05,376.17v2.44c0,0-2.54,1.95-6.18,0.17c-0.11-0.24-0.64-3.5-0.64-3.5
						L340.05,376.17z"/>
				</g>
				<g id="XMLID_6001_">
					<path id="XMLID_6002_" style="fill:#263238;" d="M320.25,392.1c0,0,0.7,2.13,1.08,3.98c0.3,1.48,0.73,3.95,0.21,5.06
						c-0.52,1.11-2.54,1.83-5.66,1.8c-2.03-0.02-5.18,1.36-7.35,2.57c-2.23,1.25-6.88,1.74-9.24,1.47
						c-2.78-0.33-5.67-1.94-6.12-3.09c-0.45-1.15,0.15-2.35,6.71-5.15c0.06-0.03,9.12-2.97,12.29-6.48L320.25,392.1z"/>
				</g>
				<g id="XMLID_5999_">
					<path id="XMLID_6000_" style="fill:#FFA8A7;" d="M320.25,389.46c0,0-0.01,1.81,0,2.85c0.01,1.04-1.22,2.58-4.38,2.47
						c-2.23-0.08-3.78-0.68-3.69-2.51v-2.64L320.25,389.46z"/>
				</g>
				<g id="XMLID_5997_">
					<path id="XMLID_5998_" style="fill:#37474F;" d="M341.64,343.74c-1.12-7.99-2.89-12.73-2.89-12.73s0.87-10.98,1.29-21.39
						c0.45-11.25-0.02-25.38,0.19-28.19c0,0-36.29-7.34-36.94,5.66c-0.65,13,1.43,46.09,1.86,51.81c0.43,5.71,1.42,10.76,2.6,20.02
						c1.16,9.14,4.43,30.71,4.43,30.71c4.15,2.24,8.07-0.17,8.07-0.17s2.55-26,2.29-32.59c-0.33-8.05-2.5-14.38-2.5-14.38
						s0.69-10.72,1.3-20.04c0.61-9.32,1.25-13.8,1.39-17.86l0.78-0.39c0,0,0.8,16.09,1.22,21.8c0.43,5.71,1.34,11.19,2.99,21.8
						c1.43,9.2,5.7,28.67,5.7,28.67c4.15,2.24,6.62-0.29,6.62-0.29S342.75,351.73,341.64,343.74z"/>
				</g>
				<g id="XMLID_5995_">
					<path id="XMLID_5996_" style="fill:#263238;" d="M322.73,304.59c0,0,8.8-4.34,13.21-8.25c0,0-4.09,5.76-9.46,8.32
						c0,0-1.91,19.98-1.9,19.59l-1.1-19.69L322.73,304.59z"/>
				</g>
			</g>
			<g id="XMLID_5991_">
				<g id="XMLID_5992_">
					<polygon id="XMLID_5993_" style="fill:#FFA8A7;" points="314.89,230.65 317.04,242.47 327.72,241.69 325.48,228.29 					"/>
				</g>
			</g>
			<g id="XMLID_5988_">
				<g id="XMLID_5989_">
					<path id="XMLID_5990_" style="fill:#002139;" d="M338.99,240.82c-1.06-3.21-5.13-6.71-9.21-5.95
						c-7.5,1.39-13.44,2.88-17.87,4.46c-3.73,1.33-7.14,4.56-7.45,16.85c0,0-1.25,28.64-1.27,34.18c9.38,3.71,19.13,3.6,24.53,2.42
						c11.22-2.45,12.58-7.11,12.58-7.11s0.14-20.6-0.19-29.49C339.82,248.62,339.72,243.03,338.99,240.82z"/>
				</g>
			</g>
			<g id="XMLID_5983_">
				<g id="XMLID_5986_">
					<path id="XMLID_5987_" style="fill:#F28F8F;" d="M306.66,216.27c0,0-2.71,4.32-2.38,4.73c0.33,0.41,2.4,0.74,2.4,0.74
						L306.66,216.27z"/>
				</g>
				<g id="XMLID_5984_">
					<path id="XMLID_5985_" style="fill:#FFA8A7;" d="M314.17,204.33c-5.65,1.32-7.23,3.85-7.56,12.88
						c-0.35,9.43,0.68,12.37,1.95,13.61c0.85,0.84,5.5,0.89,7.82,0.19c2.91-0.87,9.48-3.37,12.47-8.18
						c3.52-5.65,4.31-13.23,0.34-16.24C323.6,202.35,316.47,203.79,314.17,204.33z"/>
				</g>
			</g>
			<g id="XMLID_5974_">
				<g id="XMLID_5980_">
					<g id="XMLID_5981_">
						<path id="XMLID_5982_" style="fill:#263238;" d="M306.68,206.68c1.66,2.84,5.25,4.19,5.25,4.19c1.08,1.23,0.49,6.04,2.39,6.81
							c0,0,0.82-3.5,3.76-3.13c2.96,0.37,3.45,4.13,1.64,6.46c-1.81,2.33-3.56,1.49-3.56,1.49s0.2,4.97,2.47,7.74
							c0,0,2.53,0.76,7.12-0.33c2.82-0.67,6.75-4.3,8.35-8.09c3.39-8.02,3.48-15.17-1.64-17.2c-0.63-3.65-3.55-5.22-6.85-5.9
							c-7.1-1.46-11.69,2.97-17.15,2.58C305.32,201.07,304.74,203.35,306.68,206.68z"/>
					</g>
				</g>
				<g id="XMLID_5976_">
					<g id="XMLID_5977_">
						<path id="XMLID_5978_" style="fill:#263238;" d="M332.57,205.83l3.35-2.08c-0.57-0.92-1.79-1.21-2.71-0.64
							C332.28,203.69,332,204.91,332.57,205.83z"/>
					</g>
				</g>
			</g>
		</g>
		<path id="XMLID_5964_" style="fill:#FFA8A7;" d="M266.77,260.61c1.76,0.78,22.44,16.07,25.67,14.29
			c3.22-1.78,19.77-21.11,19.77-21.11c4.8-7.96,0-14.5,0-14.5s-5.31,0.98-8.08,5.18c-2.77,4.2-14.77,19.24-14.77,19.24
			c-2.96-1.48-5.91-2.99-8.85-4.51c-2.42-1.25-4.85-2.51-7.23-3.86c-0.59-0.34-1.37-0.66-1.86-1.15c-1.17-1.16-0.97-3.96-0.95-5.48
			c0.01-0.71,0.02-1.42,0.1-2.13c0.1-0.87,0.27-3-1.3-2.32c-0.3,0.13-0.55,0.37-0.75,0.63c-0.25,0.32-0.44,0.68-0.56,1.07
			c-0.3,0.92-0.2,1.93-0.47,2.85c-0.04,0.14-0.09,0.27-0.19,0.37c-0.13,0.12-0.32,0.16-0.49,0.15c-2.28-0.07-4.44-3.26-5.48-4.96
			c-0.47-0.76-0.92-1.6-1.73-1.97c-1.25-0.58-2.75,0.25-3.55,1.37c-1.02,1.43-1.33,3.28-1.13,5.02c0.28,2.42,1.21,4.65,2.97,6.3
			C260.56,257.57,263.47,259.14,266.77,260.61z"/>
		<path id="XMLID_5963_" style="fill:#37474F;" d="M313.89,238.66c-2.28,0.26-6.07,0.43-9.79,4.64
			c-4.34,4.92-10.06,12.94-10.06,12.94s1.55,7.78,10,9.42c0,0,7.83-8.02,10-12.43C316.23,248.81,316.58,241.64,313.89,238.66z"/>
	</g>
</g>
<g id="Chart">
	<g id="XMLID_5627_">
		<g id="XMLID_5633_">
			<path id="XMLID_15747_" style="fill:#455A64;" d="M353.8,136.79v-31.53l18.62,12.31C367.03,126.05,360.91,132.36,353.8,136.79z"
				/>
			<polygon id="XMLID_5634_" style="fill:#37474F;" points="353.8,105.26 346.35,100.96 346.35,132.49 353.8,136.79 			"/>
		</g>
		<g id="XMLID_1331_">
			<polygon id="XMLID_15744_" style="fill:#27DEBF;" points="383.23,81.38 355.32,101.46 347.87,97.15 375.78,77.08 			"/>
			<polygon id="XMLID_1328_" style="opacity:0.5;" points="383.23,81.38 355.32,101.46 347.87,97.15 375.78,77.08 			"/>
			<path id="XMLID_15743_" style="fill:#27DEBF;" d="M383.23,81.38c0.76,10.18-2.24,21.43-8.73,32.75l-11.64-7.69l-7.54-4.98
				L383.23,81.38z"/>
			<path id="XMLID_1327_" style="opacity:0.3;" d="M383.23,81.38c0.76,10.18-2.24,21.43-8.73,32.75l-11.64-7.69l-7.54-4.98
				L383.23,81.38z"/>
			<polygon id="XMLID_15742_" style="fill:#27DEBF;" points="374.5,114.13 367.05,109.83 347.87,97.15 355.32,101.46 			"/>
			<polygon id="XMLID_1329_" style="opacity:0.7;" points="374.5,114.13 367.05,109.83 347.87,97.15 355.32,101.46 			"/>
		</g>
		<g id="XMLID_1330_">
			<path id="XMLID_15741_" style="fill:#27DEBF;" d="M344.15,87.68l-5.32-21.57c0.75-0.61,1.47-1.15,2.33-1.77
				c9.82-7.07,19.16-8.34,25.67-4.58c1.55,0.9,7.37,4.25,7.37,4.25c2.2,2.67,0.52,5.56,1.24,10.02l-29.14,20.96L346,95.19
				L344.15,87.68z"/>
			<path id="XMLID_5636_" style="opacity:0.7;fill:#FFFFFF;" d="M344.15,87.68l-5.32-21.57c0.75-0.61,1.47-1.15,2.33-1.77
				c9.82-7.07,19.16-8.34,25.67-4.58c1.55,0.9,7.37,4.25,7.37,4.25c2.2,2.67,0.52,5.56,1.24,10.02l-29.14,20.96L346,95.19
				L344.15,87.68z"/>
			<path id="XMLID_15740_" style="fill:#27DEBF;" d="M351.6,91.98l-5.32-21.57c0.75-0.61,1.47-1.15,2.33-1.77
				c16.45-11.84,31.54-7.42,34.28,9.69l-29.14,20.96l-0.29,0.21L351.6,91.98z"/>
			<path id="XMLID_5635_" style="opacity:0.5;fill:#FFFFFF;" d="M351.6,91.98l-5.32-21.57c0.75-0.61,1.47-1.15,2.33-1.77
				c16.45-11.84,31.54-7.42,34.28,9.69l-29.14,20.96l-0.29,0.21L351.6,91.98z"/>
			<polygon id="XMLID_5632_" style="fill:#27DEBF;" points="338.83,66.11 346.28,70.41 353.45,99.49 346,95.19 			"/>
			<polygon id="XMLID_5637_" style="opacity:0.1;" points="338.83,66.11 346.28,70.41 353.45,99.49 346,95.19 			"/>
		</g>
		<g id="XMLID_15736_">
			<path id="XMLID_15738_" style="fill:#27DEBF;" d="M343.51,134.13c-4.81,2.54-8.95,6.05-12.94,5.9l-7.45-4.3
				c-3.9-2.22-6.78-6.32-8.21-12.14c-2-8.11-0.76-18.43,3.5-29.07c4.01-10.03,10.25-19.2,17.67-26.03l7.45,4.3l-2.76,14.7
				l2.75,11.15L343.51,134.13z"/>
			<path id="XMLID_5638_" style="opacity:0.2;" d="M343.51,134.13c-4.81,2.54-8.95,6.05-12.94,5.9l-7.45-4.3
				c-3.9-2.22-6.78-6.32-8.21-12.14c-2-8.11-0.76-18.43,3.5-29.07c4.01-10.03,10.25-19.2,17.67-26.03l7.45,4.3l-2.76,14.7
				l2.75,11.15L343.51,134.13z"/>
			<path id="XMLID_5631_" style="fill:#002139;" d="M350.95,138.43c-13.82,7.29-25.22,3.18-28.6-10.54c-2-8.11-0.76-18.43,3.5-29.07
				c4.01-10.03,10.25-19.2,17.67-26.03l4.69,19l2.75,11.15V138.43z"/>
		</g>
	</g>
</g>
<g id="Envelope">
	<g id="XMLID_16503_">
		<g id="XMLID_16505_">
			<path id="XMLID_16727_" style="fill:#27DEBF;" d="M367.67,221.71c0-0.82,0.58-1.83,1.29-2.24l66.13-38.18
				c0.71-0.41,1.87-0.41,2.59,0l1.46,0.84c0.71,0.41,1.29,1.41,1.29,2.24v50.69c0,0.82-0.58,1.83-1.29,2.24l-66.13,38.18
				c-0.71,0.41-1.87,0.41-2.59,0l-1.46-0.84c-0.71-0.41-1.29-1.42-1.29-2.24L367.67,221.71z"/>
			<path id="XMLID_5927_" style="opacity:0.4;fill:#FFFFFF;" d="M367.67,221.71c0-0.82,0.58-1.83,1.29-2.24l66.13-38.18
				c0.71-0.41,1.87-0.41,2.59,0l1.46,0.84c0.71,0.41,1.29,1.41,1.29,2.24v50.69c0,0.82-0.58,1.83-1.29,2.24l-66.13,38.18
				c-0.71,0.41-1.87,0.41-2.59,0l-1.46-0.84c-0.71-0.41-1.29-1.42-1.29-2.24L367.67,221.71z"/>
			<path id="XMLID_16531_" style="fill:#27DEBF;" d="M373.73,223.72l-5.68-3.28c-0.23,0.4-0.38,0.86-0.38,1.27l0,50.69
				c0,0.82,0.58,1.83,1.29,2.24l1.46,0.84c0.71,0.41,1.87,0.41,2.59,0l0.73-0.42V223.72z"/>
			<path id="XMLID_5928_" style="opacity:0.3;" d="M373.73,223.72l-5.68-3.28c-0.23,0.4-0.38,0.86-0.38,1.27l0,50.69
				c0,0.82,0.58,1.83,1.29,2.24l1.46,0.84c0.71,0.41,1.87,0.41,2.59,0l0.73-0.42V223.72z"/>
			<path id="XMLID_5916_" style="fill:#002139;" d="M440.43,184.37v50.69c0,0.42-0.15,0.9-0.4,1.31c-0.2,0.34-0.46,0.64-0.76,0.85
				l-0.05,0.03c-0.03,0.02-0.05,0.04-0.08,0.05l-66.13,38.17l-0.01,0.01c-0.34,0.19-0.65,0.22-0.88,0.1
				c-0.25-0.13-0.4-0.42-0.4-0.85v-50.69c0-0.82,0.65-1.34,1.45-1.14l27.81,6.61l3.64,0.87c0.81,0.19,1.85-0.2,2.32-0.87l4.22-5.88
				l28.4-39.54C440.04,183.42,440.43,183.55,440.43,184.37z"/>
			<path id="XMLID_16549_" style="fill:#27DEBF;" d="M439.14,237.3c0.03-0.01,0.05-0.03,0.08-0.05l0.05-0.03
				c0.29-0.2,0.55-0.51,0.76-0.85c0.24-0.41,0.4-0.87,0.4-1.29l-29.27-11.45l19.6,18.51L439.14,237.3z"/>
			<path id="XMLID_5924_" style="opacity:0.2;" d="M439.14,237.3c0.03-0.01,0.05-0.03,0.08-0.05l0.05-0.03
				c0.29-0.2,0.55-0.51,0.76-0.85c0.24-0.41,0.4-0.87,0.4-1.29l-29.27-11.45l19.6,18.51L439.14,237.3z"/>
			<path id="XMLID_16548_" style="fill:#27DEBF;" d="M371.72,274.73c0,0.43,0.15,0.72,0.4,0.85c0.23,0.12,0.54,0.09,0.88-0.1
				l0.01-0.01l22.77-13.14l5.2-32.82l-29.26,44.38V274.73z"/>
			<path id="XMLID_5923_" style="opacity:0.2;" d="M371.72,274.73c0,0.43,0.15,0.72,0.4,0.85c0.23,0.12,0.54,0.09,0.88-0.1
				l0.01-0.01l22.77-13.14l5.2-32.82l-29.26,44.38V274.73z"/>
			<path id="XMLID_16533_" style="fill:#002139;" d="M440.03,236.37c-0.2,0.34-0.46,0.64-0.76,0.85l-0.05,0.03l-66.21,38.23
				l-0.01,0.01c-0.34,0.19-0.65,0.22-0.88,0.1l31.66-50.55c1.31-2.1,3.96-2.91,6.23-1.91L440.03,236.37z"/>
		</g>
		<path id="XMLID_16530_" style="fill:#27DEBF;" d="M371.72,222.55l30.41,13.43c2.26,1,4.92,0.18,6.23-1.91l31.94-51.11
			L371.72,222.55z"/>
		<path id="XMLID_5922_" style="opacity:0.3;" d="M371.72,222.55l30.41,13.43c2.26,1,4.92,0.18,6.23-1.91l31.94-51.11L371.72,222.55
			z"/>
		<path id="XMLID_16506_" style="fill:#002139;" d="M371.72,222.55l30.63,11.44c2.18,0.81,4.63,0.01,5.91-1.94l32.04-49.09
			L371.72,222.55z"/>
	</g>
</g>
</svg>
