<svg xmlns="http://www.w3.org/2000/svg" xmlns:xlink="http://www.w3.org/1999/xlink" viewBox="0 0 500 500"><style><![CDATA[.B{fill:#27debf}.C{fill:#002139}.D{opacity:.2}.E{opacity:.3}.F{opacity:.4}.G{fill:#fff}.H{fill:#37474f}.I{fill:#263238}.J{fill:#ffa8a7}.K{fill:#e0e0e0}.L{fill:#455a64}]]></style><ellipse cx="249.05" cy="313.84" fill="#f5f5f5" rx="211.54" ry="133.12"/><ellipse cx="322.65" cy="390.86" rx="46.65" ry="26.93" class="K"/><path d="M60.96 196.5l.18.1-.23-.13-.43-.25z" class="E"/><path d="M57.7 194.02c-.04.12-.04.25-.01.36-.04-.1-.04-.23 0-.36l.66-2.2z" class="B"/><path d="M57.7 194.02c-.04.12-.04.25-.01.36-.04-.1-.04-.23 0-.36l.66-2.2z" class="F G"/><g class="B"><path d="M123.17 162.3l-12.3-7.12-.14-.1c-.07-.03-.15-.04-.23-.04l-.95-.54-9.1-5.28a.96.96 0 0 0-.61-.11l-6.2.6a1.84 1.84 0 0 0-1.03.49 1.21 1.21 0 0 0-.32.45l-3.36 9c-.01.02-.01.04-.03.06l-.1.17a.68.68 0 0 1-.13.18 2.85 2.85 0 0 1-.23.26 3.5 3.5 0 0 1-.64.51l-.23.13L85.6 162l-6.5-3.76a.51.51 0 0 0-.28-.08c-.23 0-.5.13-.72.38h-.01l-6.8 7.17c-.23.24-.4.55-.48.85-.08.23-.1.46-.05.64l1.9 6.4c.02.07.03.15.02.23a.93.93 0 0 1-.03.4 1.38 1.38 0 0 1-.06.26c0 .03 0 .05-.01.06-.01.04-.02.08-.04.1-.02.07-.04.14-.08.2a1.51 1.51 0 0 1-.15.28 49.09 49.09 0 0 0-3.12 5.43c-.04.07-.08.14-.15.2-.05.07-.12.14-.2.2a2.47 2.47 0 0 1-1.14.67l-5.8 1.4a2.06 2.06 0 0 0-1.1.7c-.1.13-.17.26-.2.4l-2.9 9.85c-.04.12-.04.25-.01.36a.64.64 0 0 0 .08.19.77.77 0 0 0 .15.16 1.06 1.06 0 0 0 .1.07l.98.57.27.15v.01l.78.45.42.25.48.27.18.1.5.3 2.83 1.63c.02.01.03.02.03.02l.1 2.64c.02.2-.03.45-.12.72a2.83 2.83 0 0 1-.45.84l-5.93 7.18c-.18.2-.3.48-.37.74l-.04.2c-.03.2-.02.38.05.52l2.82 6.23c.02.04.04.08.08.12.02.03.06.06.1.08l.02.02 9.9 5.73L73.2 225a.43.43 0 0 1-.16-.19l-2.8-6.22c-.1-.2-.1-.47-.01-.75.07-.25.2-.5.37-.72l5.92-7.18c.2-.24.36-.55.47-.86a1.4 1.4 0 0 0 .1-.7 28.04 28.04 0 0 1 .01-5.1c.04-.45-.35-.84-.9-.87l-5.32-.3c-.16-.01-.3-.05-.42-.12-.01 0-.02-.01-.03-.02a.63.63 0 0 1-.27-.74l2.93-9.86a1.16 1.16 0 0 1 .24-.41c.25-.3.66-.58 1.07-.68l5.82-1.4a2.56 2.56 0 0 0 1.16-.7c.13-.13.24-.27.3-.4.93-1.85 1.97-3.67 3.13-5.42.25-.4.4-.94.37-1.34h0a.6.6 0 0 0-.03-.2l-1.9-6.4c-.05-.2-.03-.44.06-.7a2.13 2.13 0 0 1 .47-.79l.1-.1 6.7-7.1c.3-.32.68-.44.94-.33l.05.03a.38.38 0 0 1 .16.15l3.16 4.83c.23.35.8.32 1.33-.03 1.28-.88 2.56-1.62 3.83-2.22.55-.26 1.15-.8 1.33-1.26.01-.01.02-.03.02-.04l3.36-9c.06-.17.18-.33.33-.47.27-.25.65-.44 1.02-.47l6.2-.62a1.03 1.03 0 0 1 .54.08c.02.01.03.01.04.02a.56.56 0 0 1 .27.63l-1.95 8.85c-.1.46.2.94.64 1.1a9.88 9.88 0 0 1 2.7 1.57c.33.27.94.18 1.4-.23l6.32-5.78c.32-.3.64-.4.87-.3zm-3.7 19.3l-.12 2.48c-.04.45.36.83.9.87l5.3.3c.15 0 .28.04.4.1l-6.47-3.74z"/><path d="M101.54 216.94c-.22-.35-.8-.32-1.32.03l-1.86 1.18 6.5 3.78v-.01a.52.52 0 0 1-.16-.14zm-16.94 3.4a9.86 9.86 0 0 1-2.71-1.58c-.33-.27-.93-.17-1.38.24l-6.32 5.78c-.24.2-.5.32-.7.32l10.04 5.8c-.2-.13-.3-.34-.26-.6l1.95-8.87c.1-.44-.2-.92-.63-1.1z"/></g><g class="C"><use xlink:href="#B"/><use xlink:href="#B" class="F"/><path d="M125.97 185.36c-.01-.01-.02-.01-.03-.02-.1-.06-.24-.1-.4-.1l-5.3-.3c-.54-.03-.94-.42-.9-.86l.12-2.48c.01-.9-.03-1.78-.12-2.64-.04-.42.2-1.12.58-1.57l5.92-7.17c.37-.45.53-1.1.36-1.48l-2.82-6.22a.48.48 0 0 0-.17-.2c-.01-.01-.02-.01-.04-.02-.23-.12-.58-.02-.9.28l-6.33 5.78c-.45.4-1.05.5-1.38.23-.82-.67-1.73-1.2-2.7-1.57-.43-.17-.73-.65-.64-1.1l1.95-8.86a.54.54 0 0 0-.27-.62c-.15-.1-.36-.12-.6-.1l-6.2.62c-.58.06-1.18.48-1.35.94l-3.35 9c-.17.47-.78 1.03-1.35 1.3-1.27.6-2.55 1.34-3.83 2.22-.52.35-1.1.37-1.33.03l-3.16-4.84c-.23-.34-.73-.27-1.14.15l-6.8 7.18c-.4.43-.64 1.1-.53 1.5l1.9 6.4c.12.4-.04 1.08-.34 1.54a53.52 53.52 0 0 0-3.13 5.42c-.23.47-.9.96-1.47 1.1l-5.8 1.4c-.6.14-1.18.63-1.32 1.1l-2.93 9.85c-.14.46.2.86.72.9l5.3.3c.54.03.93.42.9.86-.16 1.77-.17 3.5-.01 5.12.04.43-.2 1.13-.58 1.57l-5.92 7.18c-.37.44-.53 1.1-.36 1.47l2.82 6.22a.48.48 0 0 0 .17.2c.02.02.02.02.03.02a.43.43 0 0 0 .22.06h.01c.2 0 .45-.1.7-.32l6.32-5.78c.45-.4 1.05-.5 1.38-.23.83.67 1.73 1.2 2.7 1.57.44.17.74.65.64 1.1l-1.95 8.86c-.06.26.05.48.26.6.01.01.01.01.02.01.15.1.35.13.58.1l6.2-.6c.58-.06 1.18-.48 1.35-.94l3.36-9c.17-.47.78-1.03 1.35-1.3l1.96-1.03 1.87-1.18c.5-.35 1.1-.38 1.32-.04l3.17 4.84a.4.4 0 0 0 .15.14c.26.16.65.05 1-.3l6.8-7.18c.4-.42.64-1.1.52-1.5l-1.9-6.4c-.12-.4.05-1.1.35-1.54 1.16-1.76 2.2-3.58 3.12-5.43.23-.47.9-.95 1.48-1.1l5.8-1.4c.6-.14 1.18-.63 1.32-1.1l2.93-9.85c.1-.32-.02-.6-.3-.77zm-31.02 24.06l-.34.1-.24.06a5.25 5.25 0 0 1-.55.09l-.64.06c-.13.01-.27.01-.4.01h-.2c-2.54-.03-4.65-1.32-5.83-3.92-.44-.97-.72-2.07-.85-3.24-.07-.58-.1-1.18-.1-1.8.04-5.6 2.92-12.56 7.67-17.6 1.54-1.62 3.12-2.9 4.7-3.8.52-.3 1.05-.58 1.56-.8 1.54-.68 3.03-1 4.4-.93a.09.09 0 0 1 .05.01c.07 0 .15.01.22.01.08.01.15.01.23.02s.16.01.24.03c2.1.3 3.84 1.58 4.87 3.84 2.63 5.8-.4 15.94-6.73 22.63-2.66 2.8-5.48 4.57-8.05 5.23zm15.78-54.34l12.5 7.24"/></g><path d="M81.42 188.22c-.3.32-.75.6-1.16.7l-5.82 1.4c-.4.1-.82.37-1.07.68l-12.53-7.2c.26-.33.68-.6 1.1-.7l5.8-1.4a2.47 2.47 0 0 0 1.14-.67h.01z" class="D"/><path d="M85.23 181.04l-12.5-7.2c.01-.08 0-.16-.02-.23l-1.9-6.4c-.05-.18-.03-.4.05-.64l12.5 7.18c-.1.26-.1.5-.06.7l1.9 6.4a.6.6 0 0 1 .03.2zm19.9-23.6c-.15.14-.27.3-.33.47l-3.36 9c0 .01-.01.03-.02.04l-12.5-7.22c.02-.02.02-.04.03-.06l3.36-9c.06-.16.17-.32.32-.45zm18.03 4.87c-.23-.1-.55.01-.87.3l-6.32 5.78c-.45.4-1.06.5-1.4.23a9.88 9.88 0 0 0-2.7-1.57c-.44-.17-.74-.65-.64-1.1l1.95-8.85a.56.56 0 0 0-.27-.63c-.01-.01-.02-.01-.04-.02l-2.38-1.38c.08 0 .16.01.23.04 0 0 .06.03.14.1zm2.78 23.04c-.1-.05-.24-.1-.4-.1l-5.3-.3c-.53-.04-.93-.42-.9-.87l.12-2.48 6.47 3.74z" class="E"/><path d="M104.87 221.9h0l-6.5-3.78 1.86-1.18c.52-.35 1.1-.38 1.32-.03l3.17 4.84c.05.07.1.12.16.14zm-19.64-.44l-1.95 8.87c-.05.26.05.47.26.6l-10.04-5.8c.2 0 .45-.1.7-.32l6.32-5.78c.45-.4 1.05-.5 1.38-.24a9.86 9.86 0 0 0 2.71 1.58c.44.17.74.65.63 1.1z" class="F"/><path d="M77 209.13c-.1.3-.27.62-.47.86l-5.92 7.18c-.18.2-.3.47-.37.72l-12.5-7.22c.06-.26.2-.53.37-.74l5.93-7.18c.2-.23.35-.54.45-.84z" class="D"/><path d="M101.43 166.94c-.18.45-.78 1-1.33 1.26-1.27.6-2.55 1.34-3.83 2.22-.52.35-1.1.38-1.33.03l-3.16-4.83a.38.38 0 0 0-.16-.15l-.05-.03-5.94-3.44 1.97-1.03.23-.13a3.5 3.5 0 0 0 .64-.51 2.85 2.85 0 0 0 .23-.26.68.68 0 0 0 .13-.18l.1-.17z" opacity=".1"/><path d="M77.12 208.4c.02.2-.02.45-.1.7l-12.5-7.22c.1-.27.14-.52.12-.72-.08-.86-.12-1.74-.1-2.64l5.96 3.45c.01.01.02.02.03.02.12.07.26.1.42.12l5.32.3c.54.03.93.42.9.87-.16 1.78-.16 3.5-.01 5.1z" class="F"/><path d="M85.23 181.04c.04.4-.12.96-.37 1.35-1.16 1.75-2.2 3.57-3.13 5.42-.07.14-.18.28-.3.4L68.9 181c.07-.06.14-.14.18-.2.07-.07.1-.14.15-.2a49.09 49.09 0 0 1 3.12-5.43 1.51 1.51 0 0 0 .15-.28c.04-.06.06-.13.08-.2.02-.03.03-.07.04-.1.01-.01.01-.03.01-.06a1.38 1.38 0 0 0 .06-.26c.04-.15.05-.3.03-.4z" opacity=".1"/><path d="M69.1 180.8c-.04.07-.1.15-.18.2h-.01l.2-.2z" class="E"/><path d="M73.23 225.04l-2.55-1.47-.48-.28-4.1-2.37-1.1-.64-4.2-2.44-.02-.02c-.04-.02-.08-.05-.1-.08-.04-.04-.06-.08-.08-.12l-2.82-6.23c-.07-.14-.08-.32-.05-.52l.04-.2 12.5 7.22c-.08.28-.08.56.01.75l2.8 6.22c.04.1.1.15.16.2z" class="F"/><path d="M60.84 183.78c-.1.13-.17.26-.2.4l-.36 1.22-1.9 6.43-.65 2.2c-.04.12-.04.25-.01.36a.64.64 0 0 0 .08.19c.04.06.1.12.15.16.01.01.04.03.1.07l.98.57.27.15v.01l.78.45.42.25.48.27.18.1.5.3 2.83 1.63c.02.01.03.02.03.02l5.96 3.45a.63.63 0 0 1-.27-.74l2.93-9.86a1.16 1.16 0 0 1 .24-.41z" class="E"/><path d="M85.63 162l-6.5-3.76a.51.51 0 0 0-.28-.08c-.23 0-.5.13-.72.38h-.01l-6.8 7.17c-.23.24-.4.55-.48.85l12.5 7.18a2.13 2.13 0 0 1 .47-.79l.1-.1 6.7-7.1c.3-.32.68-.44.94-.33zm27.27-5.6c-.14-.07-.33-.1-.54-.08l-6.2.62c-.37.03-.75.22-1.02.47l-12.5-7.22a1.84 1.84 0 0 1 1.03-.49l6.2-.6a.96.96 0 0 1 .61.11c.04.03.7.4 1.67.97l.82.48 6.6 3.83.95.54 2.38 1.38z" opacity=".5" class="G"/><path d="M263.8 76.4c-.27-2-1.9-2.74-3.83-1.6l-106.48 61.47c-2.13 1.24-3.87 4.24-3.87 6.7v234.96c0 2.27 1.47 3.3 3.38 2.48-2.14.98-5.27.9-7.26-.24l-4.44-2.55c-2.14-1.23-3.88-4.23-3.88-6.7V135.93c0-2.48 1.74-5.48 3.88-6.7l106.47-61.48c2.13-1.24 5.6-1.24 7.75 0l4.45 2.55c1.96 1.14 3.6 3.76 3.83 6.1z" class="H"/><path d="M259.97 74.77L153.5 136.24c-2.13 1.24-3.87 4.24-3.87 6.7V377.9c0 2.47 1.74 3.47 3.87 2.23l106.48-61.47c2.13-1.24 3.87-4.24 3.87-6.7V77c-.01-2.47-1.74-3.47-3.87-2.24zm-1.7 215.07c0 2.1-1.48 3.46-3.32 4.5l-96.8 55.9c-1.83 1.06-3.32.2-3.32-1.92V165.4c0-2.12 1.5-4.7 3.32-5.76l96.8-55.88c1.84-1.07 3.32-.2 3.32 1.9z" class="L"/><path d="M153 380.4c-2.14.98-5.27.9-7.26-.24l-4.44-2.55c-2.14-1.24-3.88-4.23-3.88-6.7V135.93c0-1.24.44-2.6 1.14-3.83l12.2 7.03c-.7 1.22-1.14 2.6-1.14 3.82V377.9c.01 2.28 1.48 3.3 3.4 2.48zm53.73-268.68c1.43-.83 2.6-.16 2.6 1.5s-1.16 3.67-2.6 4.5c-1.43.83-2.6.16-2.6-1.5s1.16-3.68 2.6-4.5zm-7.5 12.96c5.27-2.92 14.68-8.52 19.88-11.57.88-.52 1.6-.16 1.6.8s-.72 2.15-1.6 2.67l-19.92 11.5c-.9.5-1.6.15-1.6-.8.01-.96.76-2.1 1.66-2.6zm-5.03 2.92c.8-.46 1.46-.1 1.46.84s-.65 2.06-1.46 2.52-1.46.1-1.46-.84c0-.92.65-2.05 1.46-2.52z" class="I"/><path d="M207.65 328.3c3.38-1.95 6.1-.37 6.1 3.53s-2.74 8.64-6.1 10.6c-3.38 1.95-6.1.37-6.1-3.53-.01-3.9 2.73-8.64 6.1-10.6z" fill="none" stroke="#e6e6e6" stroke-miterlimit="10"/><path d="M258.26 105.67v184.18c0 2.1-1.48 4.7-3.32 5.74l-96.8 55.9c-1.83 1.05-3.32.2-3.32-1.92v-11.5l87.9-50.75c1.84-1.06 3.32-2.4 3.32-4.5V108.9l8.9-5.14c1.84-1.06 3.32-.2 3.32 1.9z" class="H"/><path d="M254.94 103.76l-8.9 5.14v173.92c0 1.7-.95 2.88-2.27 3.83l12.86 7.42c.97-1.23 1.63-2.82 1.63-4.22V105.67c0-2.1-1.48-2.97-3.32-1.9z" class="I"/><use xlink:href="#C" class="K"/><g fill="#ebebeb"><path d="m159.63 285.57 3.83 6.64c.24.42.88.36 1.04-.1l4.05-11.7z"/><path d="M177.72 250.14c0-1.7-1.2-3.8-2.68-4.64l-2.18-1.26c-1.48-.85-3.88-.85-5.36 0l-43.4 25.03c-1.48.85-2.68 2.93-2.68 4.64v21.97c0 1.7 1.2 3.8 2.68 4.64l2.18 1.26c1.48.85 3.88.85 5.36 0l43.64-25.2c2.4-1.37 2.43-2.75 2.43-4.46z"/></g><path d="M121.44 295.88c0 1.7 1.2 3.8 2.68 4.64l2.18 1.26c1.34.77 3.42.85 4.9.22-1.26.48-2.22-.24-2.22-1.77v-21.97c0-.85.3-1.8.78-2.64l-7.54-4.35c-.48.84-.78 1.8-.78 2.64z" class="K"/><path d="M177.63 249.38c-.3-1.14-1.35-1.5-2.6-.8l-43.4 25.03c-.74.43-1.4 1.15-1.9 2l-7.54-4.35c.5-.85 1.15-1.58 1.9-2l43.38-25.03c1.5-.85 3.9-.85 5.36 0l2.2 1.26c1.27.73 2.33 2.35 2.6 3.88z" fill="#fafafa"/><path d="M136.18 279.85l31-17.98c.9-.52 1.62-.28 1.62.53s-.73 1.9-1.62 2.4l-31 17.98c-.9.52-1.62.28-1.62-.53-.01-.8.72-1.88 1.62-2.4zm0 7.35l31-17.97c.9-.52 1.62-.28 1.62.53s-.73 1.9-1.62 2.4l-31 17.97c-.9.52-1.62.28-1.62-.53-.01-.8.72-1.88 1.62-2.4z" class="L"/><use xlink:href="#C" x="-70.92" y="8.12" class="B"/><use xlink:href="#C" x="-70.92" y="8.12" class="D"/><g class="C"><path d="M88.7 293.68l3.83 6.64a.58.58 0 0 0 1.04-.1l4.05-11.7z"/><path d="M134.2 239.05c0-1.7-1.2-3.8-2.68-4.64l-2.18-1.26c-1.48-.85-3.88-.85-5.36 0l-51.5 29.75c-1.48.85-2.68 2.93-2.68 4.64v25.28c0 1.7 1.2 3.8 2.68 4.64l2.18 1.26c1.48.85 3.88.85 5.36 0l51.76-29.93c2.4-1.37 2.43-2.75 2.43-4.46z"/></g><path d="M69.78 292.82c0 1.7 1.2 3.8 2.68 4.64l2.18 1.26c1.34.77 3.42.85 4.9.22-1.26.48-2.22-.24-2.22-1.77V271.9c0-.85.3-1.8.78-2.64l-7.54-4.35c-.48.84-.78 1.8-.78 2.64z" class="D"/><g class="G"><path d="M134.1 238.3c-.3-1.14-1.35-1.5-2.6-.8L80 267.26c-.74.42-1.4 1.15-1.9 2l-7.54-4.35c.5-.85 1.15-1.58 1.9-2l51.5-29.75c1.5-.85 3.9-.85 5.36 0l2.2 1.26c1.27.72 2.33 2.34 2.6 3.87z" class="F"/><path d="M84.52 279l27.85-16.13c.9-.52 1.62-.28 1.62.53s-.73 1.9-1.62 2.4l-27.85 16.13c-.9.52-1.62.28-1.62-.53s.73-1.88 1.62-2.4zm0 7.35l39.1-22.7c.9-.52 1.62-.28 1.62.53s-.73 1.9-1.62 2.4l-39.1 22.7c-.9.52-1.62.28-1.62-.53s.73-1.88 1.62-2.4zm0-15.08l39.1-22.7c.9-.52 1.62-.28 1.62.53s-.73 1.9-1.62 2.4l-39.1 22.7c-.9.52-1.62.28-1.62-.53s.73-1.9 1.62-2.4z"/></g><path d="M439.67 108.88l-4.06-2.34c-.47-.28-1.12-.24-1.84.18l-88.23 50.94c-1.43.83-2.6 2.84-2.6 4.5v45.6c0 .84.3 1.43.8 1.7l4.05 2.34v-3.82l86-49.65c1.43-.83 2.6-2.84 2.6-4.5v-43.25z" class="K"/><path d="M351.06 163.85l85.3-49.25v-4.03l3.3-1.68-4.06-2.34c-.47-.28-1.12-.24-1.84.18l-88.23 50.94c-.72.4-1.37 1.13-1.84 1.94z" fill="#fafafa"/><path d="M349.6 160l88.23-50.94c1.43-.83 2.6-.16 2.6 1.5v45.6c0 1.66-1.16 3.67-2.6 4.5L349.6 211.6c-1.43.83-2.6.16-2.6-1.5v-45.6c0-1.66 1.17-3.68 2.6-4.5z" fill="#f5f5f5"/><path d="M354.1 164.44l26.43-15.26c1.67-.97 3.03-.18 3.03 1.75v30.52c0 1.93-1.36 4.28-3.03 5.25l-26.43 15.26c-1.67.97-3.03.18-3.03-1.75V169.7c-.01-1.93 1.35-4.28 3.03-5.25z" class="C"/><path d="M367.1 163.32c2.8-1.62 5.08-.3 5.08 2.93s-2.27 7.17-5.08 8.8c-2.8 1.62-5.08.3-5.08-2.93s2.27-7.17 5.08-8.8zm10 17.32c0-5.32-3.73-7.68-8.34-5.02l-2.88 1.66c-4.6 2.66-8.34 9.13-8.34 14.45v1.43l19.56-11.3z" fill="#0d5386"/><g class="K"><use xlink:href="#D"/><use xlink:href="#D" y="9.38"/><use xlink:href="#D" y="18.76"/><use xlink:href="#D" y="28.14"/></g><g fill="#0d5386"><path d="M291.8 283.4c0 2.1-1.48 3.46-3.32 4.5l-96.8 55.9c-1.83 1.06-3.32.2-3.32-1.92V158.96c0-2.12 1.5-4.7 3.32-5.76l96.8-55.88c1.84-1.07 3.32-.2 3.32 1.9z" class="D"/><path d="M190.18 344.76a2.28 2.28 0 0 1-1.12-.29c-.8-.46-1.22-1.37-1.22-2.58V158.96c0-2.3 1.57-5.02 3.57-6.2l96.82-55.88c1.05-.6 2.06-.7 2.85-.24s1.22 1.37 1.22 2.58V283.4c0 2.6-2.04 4.07-3.57 4.95l-96.8 55.9c-.6.35-1.2.52-1.74.52zm99.78-247.4c-.37 0-.8.13-1.23.4l-96.82 55.88c-1.7 1-3.07 3.38-3.07 5.32v182.93c0 .84.26 1.45.72 1.72.47.27 1.12.2 1.85-.23l96.8-55.9c2.12-1.22 3.07-2.48 3.07-4.08V99.22c0-.84-.26-1.44-.72-1.7-.18-.1-.38-.15-.6-.15z"/></g><path d="M344.46 273.8c.7-26.05-1.4-32.3-8.32-37.06l-2.7 15.1s3.16 17.8 2.82 23.7c-.3 5.2-.8 11.7-2.03 15.92-.22.75-.72 1.37-1.38 1.78-1.77 1.1-2.48 2.24-3.8 3.63-1.04 1.1-1.93 1.36-1.8 1.7.18.45.92 1.17 2.2.78.64-.2 1.47-.7 2.5-1.36 0 0-.74 2.17-2.57 4.4-2.48 3.04-2.58 4.9 2.4 4.94 3.13.03 5.63-1.9 8-8.8.68-2 1.74-5.13 2.2-7.75 1.2-6.82 2.35-12.8 2.46-17z" class="J"/><path d="M330.3 234.76c3.3-.48 7.8.2 10.72 5.4s3.62 14.14 3.95 23.03c0 0-5.77 4.83-12.7 2.45z" class="H"/><path d="M340.05 378.02c.53.2.66 1.2.74 3.2.06 1.5.38 4.14-1.38 4.66s-4.35.26-5.48-1.16c-1.4-1.77-2.36-3.33-4.38-5.5-1.75-1.88-3.64-3.63-4.34-6.26-.64-2.38-.1-3.4 1.52-4.1 2.23-.95 5.73 2.15 7.48 2.64 1.5.42 5.3 6.32 5.84 6.52z" class="I"/><path d="M340.05 376.17v2.44s-2.54 1.95-6.18.17c-.1-.24-.64-3.5-.64-3.5z" class="J"/><path d="M320.25 392.1s.7 2.13 1.08 3.98c.3 1.48.73 3.95.2 5.06s-2.54 1.83-5.66 1.8c-2.03-.02-5.18 1.36-7.35 2.57-2.23 1.25-6.88 1.74-9.24 1.47-2.78-.33-5.67-1.94-6.12-3.1s.15-2.35 6.7-5.15c.06-.03 9.12-2.97 12.3-6.48z" class="I"/><path d="M320.25 389.46v2.85c.01 1.04-1.22 2.58-4.38 2.47-2.23-.08-3.78-.68-3.7-2.5v-2.64z" class="J"/><path d="M341.64 343.74c-1.12-8-2.9-12.73-2.9-12.73s.87-10.98 1.3-21.4c.45-11.25-.02-25.38.2-28.2 0 0-36.3-7.34-36.94 5.66s1.43 46.1 1.86 51.8c.43 5.7 1.42 10.76 2.6 20.02 1.16 9.14 4.43 30.7 4.43 30.7 4.15 2.24 8.07-.17 8.07-.17s2.55-26 2.3-32.6c-.33-8.05-2.5-14.38-2.5-14.38l1.3-20.04 1.4-17.86.78-.4 1.22 21.8c.43 5.7 1.34 11.2 3 21.8 1.43 9.2 5.7 28.67 5.7 28.67 4.15 2.24 6.62-.3 6.62-.3s2.7-24.45 1.6-32.44z" class="H"/><path d="M322.73 304.6s8.8-4.34 13.2-8.25c0 0-4.1 5.76-9.46 8.32l-1.9 19.6-1.1-19.7z" class="I"/><path d="M314.9 230.65l2.15 11.82 10.68-.78-2.24-13.4z" class="J"/><path d="M339 240.82c-1.06-3.2-5.13-6.7-9.2-5.95-7.5 1.4-13.44 2.88-17.87 4.46-3.73 1.33-7.14 4.56-7.45 16.85l-1.27 34.18c9.38 3.7 19.13 3.6 24.53 2.42 11.22-2.45 12.58-7.1 12.58-7.1l-.2-29.5c-.3-7.56-.4-13.15-1.12-15.36z" class="C"/><path d="M306.66 216.27s-2.7 4.32-2.38 4.73 2.4.74 2.4.74z" fill="#f28f8f"/><path d="M314.17 204.33c-5.65 1.32-7.23 3.85-7.56 12.88-.35 9.43.68 12.37 1.95 13.6.85.84 5.5.9 7.82.2 2.9-.87 9.48-3.37 12.47-8.18 3.52-5.65 4.3-13.23.34-16.24-5.6-4.24-12.72-2.8-15.02-2.26z" class="J"/><g class="I"><path d="M306.68 206.68c1.66 2.84 5.25 4.2 5.25 4.2 1.08 1.23.5 6.04 2.4 6.8 0 0 .82-3.5 3.76-3.13 2.96.37 3.45 4.13 1.64 6.46s-3.56 1.5-3.56 1.5.2 4.97 2.47 7.74c0 0 2.53.76 7.12-.33 2.82-.67 6.75-4.3 8.35-8.1 3.4-8.02 3.48-15.17-1.64-17.2-.63-3.65-3.55-5.22-6.85-5.9-7.1-1.46-11.7 2.97-17.15 2.58-3.14-.23-3.72 2.05-1.78 5.38z"/><path d="M332.57 205.83l3.35-2.08c-.57-.92-1.8-1.2-2.7-.64a1.98 1.98 0 0 0-.64 2.72z"/></g><path d="M266.77 260.6c1.76.78 22.44 16.07 25.67 14.3 3.22-1.78 19.77-21.1 19.77-21.1 4.8-7.96 0-14.5 0-14.5s-5.3.98-8.08 5.18-14.77 19.24-14.77 19.24l-8.85-4.5-7.23-3.86c-.6-.34-1.37-.66-1.86-1.15-1.17-1.16-.97-3.96-.95-5.48.01-.7.02-1.42.1-2.13.1-.87.27-3-1.3-2.32-.3.13-.55.37-.75.63a3.32 3.32 0 0 0-.56 1.07c-.3.92-.2 1.93-.47 2.85-.04.14-.1.27-.2.37-.13.12-.32.16-.5.15-2.28-.07-4.44-3.26-5.48-4.96-.47-.76-.92-1.6-1.73-1.97-1.25-.58-2.75.25-3.55 1.37-1.02 1.43-1.33 3.28-1.13 5.02.28 2.42 1.2 4.65 2.97 6.3 2.67 2.48 5.58 4.05 8.88 5.52z" class="J"/><path d="M313.9 238.66c-2.28.26-6.07.43-9.8 4.64-4.34 4.92-10.06 12.94-10.06 12.94s1.55 7.78 10 9.42c0 0 7.83-8.02 10-12.43 2.2-4.42 2.54-11.6-.15-14.57z" class="H"/><path d="M353.8 136.8v-31.53l18.62 12.3c-5.4 8.48-11.5 14.8-18.62 19.22z" class="L"/><path d="m353.8 105.26-7.45-4.3v31.53l7.45 4.3z" class="H"/><path d="M383.23 81.38l-27.9 20.08-7.45-4.3 27.9-20.07z" class="B"/><path d="M383.23 81.38l-27.9 20.08-7.45-4.3 27.9-20.07z" opacity=".5"/><path d="M383.23 81.38c.76 10.18-2.24 21.43-8.73 32.75l-19.18-12.67z" class="B"/><path d="M383.23 81.38c.76 10.18-2.24 21.43-8.73 32.75l-19.18-12.67z" class="E"/><path d="m374.5 114.13-7.45-4.3-19.18-12.68 7.45 4.31z" class="B"/><path d="m374.5 114.13-7.45-4.3-19.18-12.68 7.45 4.31z" opacity=".7"/><use xlink:href="#E" class="B"/><use xlink:href="#E" opacity=".7" class="G"/><path d="M351.6 91.98l-5.32-21.57 2.33-1.77c16.45-11.84 31.54-7.42 34.28 9.7L353.46 99.5z" class="B"/><path d="M351.6 91.98l-5.32-21.57 2.33-1.77c16.45-11.84 31.54-7.42 34.28 9.7L353.46 99.5z" opacity=".5" class="G"/><path d="M338.83 66.1l7.45 4.3 7.17 29.08-7.45-4.3z" class="B"/><path d="M338.83 66.1l7.45 4.3 7.17 29.08-7.45-4.3z" opacity=".1"/><use xlink:href="#F" class="B"/><use xlink:href="#F" class="D"/><path d="M350.95 138.43c-13.82 7.3-25.22 3.18-28.6-10.54-2-8.1-.76-18.43 3.5-29.07 4-10.03 10.25-19.2 17.67-26.03l7.44 30.15v35.5z" class="C"/><use xlink:href="#G" class="B"/><use xlink:href="#G" class="F G"/><use xlink:href="#H" class="B"/><use xlink:href="#H" class="E"/><path d="M440.43 184.37v50.7c0 .42-.15.9-.4 1.3-.2.34-.46.64-.76.85l-.05.03c-.03.02-.05.04-.08.05L373 275.48c-.34.2-.65.22-.88.1-.25-.13-.4-.42-.4-.85v-50.7c0-.82.65-1.34 1.45-1.14l31.45 7.48c.8.2 1.85-.2 2.32-.87l32.62-45.42c.48-.67.87-.54.87.28z" class="C"/><use xlink:href="#I" class="B"/><use xlink:href="#I" class="D"/><use xlink:href="#J" class="B"/><use xlink:href="#J" class="D"/><path d="M440.03 236.37c-.2.34-.46.64-.76.85l-.05.03L373 275.5c-.34.2-.65.22-.88.1l31.66-50.55a4.97 4.97 0 0 1 6.23-1.91z" class="C"/><path d="M371.72 222.55l30.4 13.43c2.26 1 4.92.18 6.23-1.9l31.94-51.1z" class="B"/><path d="M371.72 222.55l30.4 13.43c2.26 1 4.92.18 6.23-1.9l31.94-51.1z" class="E"/><path d="M371.72 222.55L402.35 234c2.18.8 4.63.01 5.9-1.94l32.04-49.1z" class="C"/><defs ><path id="B" d="M103 204.2c-2.65 2.8-5.48 4.55-8.05 5.22l-.34.08c-.08.03-.16.04-.24.06l-.55.1-.64.06-.4.01c-.06.01-.12.01-.2 0-2.54-.02-4.65-1.3-5.83-3.9-.44-.98-.72-2.07-.85-3.25l1.47-.76c6.87-3.97 12.43-13.6 12.43-21.53 0-.6-.02-1.16-.07-1.7 1.54-.68 3.03-1 4.4-.93h.05c.07 0 .14.01.22.01l.22.03c.08 0 .16.01.24.03 2.1.3 3.84 1.58 4.87 3.84 2.62 5.8-.4 15.95-6.73 22.64z"/><path id="C" d="M163.66 292.4l-5.54-3.2a.53.53 0 0 1-.26-.23l-1.02-1.78 3.3-1.9-.1.3z"/><path id="D" d="M393.85 143.84l36.3-20.95c1.2-.7 2.17-.2 2.17 1.1s-.97 2.9-2.16 3.6l-36.3 20.95c-1.2.7-2.17.2-2.17-1.1s.96-2.9 2.16-3.6z"/><path id="E" d="M344.15 87.68l-5.32-21.57 2.33-1.77c9.82-7.07 19.16-8.34 25.67-4.58L374.2 64c2.2 2.67.52 5.56 1.24 10.02L346 95.2z"/><path id="F" d="M343.5 134.13c-4.8 2.54-8.95 6.05-12.94 5.9l-7.45-4.3c-3.9-2.22-6.78-6.32-8.2-12.14-2-8.1-.76-18.43 3.5-29.07 4-10.03 10.25-19.2 17.67-26.03l7.45 4.3-2.76 14.7 2.75 11.15z"/><path id="G" d="M367.67 221.7c0-.82.58-1.83 1.3-2.24l66.13-38.18c.7-.4 1.87-.4 2.6 0l1.46.84c.7.4 1.3 1.4 1.3 2.24v50.7c0 .82-.58 1.83-1.3 2.24L373 275.48c-.7.4-1.87.4-2.6 0l-1.46-.84c-.7-.4-1.3-1.42-1.3-2.24z"/><path id="H" d="M373.73 223.72l-5.68-3.28c-.23.4-.38.86-.38 1.27v50.7c0 .82.58 1.83 1.3 2.24l1.46.84c.7.4 1.87.4 2.6 0l.73-.42v-51.34z"/><path id="I" d="M439.14 237.3c.03-.01.05-.03.08-.05l.05-.03c.3-.2.55-.5.76-.85.24-.4.4-.87.4-1.3l-29.27-11.45 19.6 18.5z"/><path id="J" d="M371.72 274.73c0 .43.15.72.4.85.23.12.54.1.88-.1v-.01l22.77-13.14 5.2-32.82-29.26 44.38z"/></defs></svg>